SplineFontDB: 3.2
FontName: UtoSerifKannada-Regular
FullName: Uto Serif Kannada Regular
FamilyName: Uto Serif Kannada
Weight: Regular
Copyright: Copyright 2022 The Noto Project Authors (https://github.com/notofonts/kannada)
Version: 2.004; ttfautohint (v1.8.4.7-5d5b)
ItalicAngle: 0
UnderlinePosition: -125
UnderlineWidth: 50
Ascent: 800
Descent: 200
InvalidEm: 0
sfntRevision: 0x00020106
LayerCount: 2
Layer: 0 1 "+BBcEMAQ0BD0EOAQ5 +BD8EOwQwBD0A" 1
Layer: 1 1 "+BB8ENQRABDUENAQ9BDgEOQAA +BD8EOwQwBD0A" 0
XUID: [1021 59 1751208496 8630]
StyleMap: 0x0040
FSType: 0
OS2Version: 4
OS2_WeightWidthSlopeOnly: 0
OS2_UseTypoMetrics: 1
CreationTime: 1506051623
ModificationTime: 1689047300
PfmFamily: 17
TTFWeight: 400
TTFWidth: 5
LineGap: 0
VLineGap: 0
Panose: 2 2 5 2 6 5 5 2 2 4
OS2TypoAscent: 910
OS2TypoAOffset: 0
OS2TypoDescent: -710
OS2TypoDOffset: 0
OS2TypoLinegap: 0
OS2WinAscent: 910
OS2WinAOffset: 0
OS2WinDescent: 710
OS2WinDOffset: 0
HheadAscent: 910
HheadAOffset: 0
HheadDescent: -710
HheadDOffset: 0
OS2SubXSize: 650
OS2SubYSize: 600
OS2SubXOff: 0
OS2SubYOff: 75
OS2SupXSize: 650
OS2SupYSize: 600
OS2SupXOff: 0
OS2SupYOff: 350
OS2StrikeYSize: 50
OS2StrikeYPos: 328
OS2CapHeight: 690
OS2XHeight: 547
OS2Vendor: 'GOOG'
OS2CodePages: 00000001.00000000
OS2UnicodeRanges: 80408003.00002042.00000000.00000000
Lookup: 1 0 0 "+BBUENAQ4BD0EOARHBD0EMARP +BD8EPgQ0BEEEQgQwBD0EPgQyBDoEMAAA lookup 0" { "+BBUENAQ4BD0EOARHBD0EMARP +BD8EPgQ0BEEEQgQwBD0EPgQyBDoEMAAA lookup 0 subtable"  } []
Lookup: 1 0 0 "+BBUENAQ4BD0EOARHBD0EMARP +BD8EPgQ0BEEEQgQwBD0EPgQyBDoEMAAA lookup 1" { "+BBUENAQ4BD0EOARHBD0EMARP +BD8EPgQ0BEEEQgQwBD0EPgQyBDoEMAAA lookup 1 subtable"  } []
Lookup: 1 0 0 "+BBUENAQ4BD0EOARHBD0EMARP +BD8EPgQ0BEEEQgQwBD0EPgQyBDoEMAAA lookup 2" { "+BBUENAQ4BD0EOARHBD0EMARP +BD8EPgQ0BEEEQgQwBD0EPgQyBDoEMAAA lookup 2 subtable"  } []

StartChar: .notdef
Encoding: 65536 -1 0
Width: 601
GlyphClass: 1
Flags: W
LayerCount: 2
Fore
SplineSet
95 0 m 1,0,-1
 95 714 l 1,1,-1
 506 714 l 1,2,-1
 506 0 l 1,3,-1
 95 0 l 1,0,-1
146 51 m 1,4,-1
 455 51 l 1,5,-1
 455 663 l 1,6,-1
 146 663 l 1,7,-1
 146 51 l 1,4,-1
EndSplineSet
EndChar

StartChar: spacingCandrabindu_kannada
Encoding: 3200 3200 5
Width: 584
GlyphClass: 1
Flags: W
LayerCount: 2
Fore
SplineSet
292 238 m 256,0,1
 266 238 266 238 250.5 253.5 c 128,-1,2
 235 269 235 269 235 293 c 256,3,4
 235 317 235 317 251 333 c 128,-1,5
 267 349 267 349 292 349 c 256,6,7
 317 349 317 349 333 333 c 128,-1,8
 349 317 349 317 349 293 c 256,9,10
 349 269 349 269 333.5 253.5 c 128,-1,11
 318 238 318 238 292 238 c 256,0,1
292 28 m 256,12,13
 218 28 218 28 163.5 56 c 128,-1,14
 109 84 109 84 78.5 149.5 c 128,-1,15
 48 215 48 215 45 327 c 1,16,-1
 97 328 l 1,17,18
 100 218 100 218 153 168.5 c 128,-1,19
 206 119 206 119 292 119 c 256,20,21
 378 119 378 119 429.5 169 c 128,-1,22
 481 219 481 219 487 328 c 1,23,-1
 539 327 l 1,24,25
 535 215 535 215 504 149.5 c 128,-1,26
 473 84 473 84 419.5 56 c 128,-1,27
 366 28 366 28 292 28 c 256,12,13
EndSplineSet
EndChar

StartChar: candrabindu_kannada
Encoding: 3201 3201 6
Width: 0
GlyphClass: 4
Flags: W
AnchorPoint: "+BBEENQQ3BEsEPARPBD0EPQQ+BDUA--3" -297 267 mark 0
AnchorPoint: "+BBEENQQ3BEsEPARPBD0EPQQ+BDUA--0" -297 267 mark 0
LayerCount: 2
Fore
SplineSet
-297 727 m 0,0,1
 -316 727 -316 727 -330.5 739 c 128,-1,2
 -345 751 -345 751 -345 773 c 0,3,4
 -345 794 -345 794 -330.5 806.5 c 128,-1,5
 -316 819 -316 819 -297 819 c 256,6,7
 -278 819 -278 819 -264.5 806.5 c 128,-1,8
 -251 794 -251 794 -251 773 c 0,9,10
 -251 751 -251 751 -265 739 c 128,-1,11
 -279 727 -279 727 -297 727 c 0,0,1
-297 597 m 0,12,13
 -379 597 -379 597 -422 645 c 128,-1,14
 -465 693 -465 693 -484 769 c 1,15,-1
 -449 785 l 1,16,17
 -434 752 -434 752 -416 726 c 128,-1,18
 -398 700 -398 700 -370 685.5 c 128,-1,19
 -342 671 -342 671 -297 671 c 256,20,21
 -252 671 -252 671 -224 685.5 c 128,-1,22
 -196 700 -196 700 -177.5 726 c 128,-1,23
 -159 752 -159 752 -145 785 c 1,24,-1
 -109 769 l 1,25,26
 -122 719 -122 719 -143.5 680 c 128,-1,27
 -165 641 -165 641 -202 619 c 128,-1,28
 -239 597 -239 597 -297 597 c 0,12,13
EndSplineSet
Substitution2: "+BBUENAQ4BD0EOARHBD0EMARP +BD8EPgQ0BEEEQgQwBD0EPgQyBDoEMAAA lookup 21 subtable" length_kannada
Substitution2: "+BBUENAQ4BD0EOARHBD0EMARP +BD8EPgQ0BEEEQgQwBD0EPgQyBDoEMAAA lookup 20 subtable" reph_kannada
Substitution2: "+BBUENAQ4BD0EOARHBD0EMARP +BD8EPgQ0BEEEQgQwBD0EPgQyBDoEMAAA lookup 19 subtable" anusvara_kannada
EndChar

StartChar: anusvara_kannada
Encoding: 3202 3202 7
Width: 605
GlyphClass: 4
Flags: W
LayerCount: 2
Fore
SplineSet
303 -12 m 256,0,1
 232 -12 232 -12 174.5 21.5 c 128,-1,2
 117 55 117 55 83.5 119 c 128,-1,3
 50 183 50 183 50 273 c 0,4,5
 50 364 50 364 83.5 428 c 128,-1,6
 117 492 117 492 174.5 525.5 c 128,-1,7
 232 559 232 559 303 559 c 256,8,9
 374 559 374 559 431 525.5 c 128,-1,10
 488 492 488 492 521.5 428 c 128,-1,11
 555 364 555 364 555 273 c 0,12,13
 555 183 555 183 521.5 119 c 128,-1,14
 488 55 488 55 431 21.5 c 128,-1,15
 374 -12 374 -12 303 -12 c 256,0,1
303 79 m 256,16,17
 394 79 394 79 449 130.5 c 128,-1,18
 504 182 504 182 504 273 c 256,19,20
 504 364 504 364 449 416 c 128,-1,21
 394 468 394 468 303 468 c 256,22,23
 212 468 212 468 156.5 416.5 c 128,-1,24
 101 365 101 365 101 273 c 0,25,26
 101 182 101 182 156.5 130.5 c 128,-1,27
 212 79 212 79 303 79 c 256,16,17
EndSplineSet
Substitution2: "+BBUENAQ4BD0EOARHBD0EMARP +BD8EPgQ0BEEEQgQwBD0EPgQyBDoEMAAA lookup 31 subtable" candrabindu_1CDA_knda
Substitution2: "+BBUENAQ4BD0EOARHBD0EMARP +BD8EPgQ0BEEEQgQwBD0EPgQyBDoEMAAA lookup 30 subtable" candrabindu_anudatta_knda
Substitution2: "+BBUENAQ4BD0EOARHBD0EMARP +BD8EPgQ0BEEEQgQwBD0EPgQyBDoEMAAA lookup 29 subtable" candrabindu_udatta_knda
Substitution2: "+BBUENAQ4BD0EOARHBD0EMARP +BD8EPgQ0BEEEQgQwBD0EPgQyBDoEMAAA lookup 28 subtable" uni1CF4
Substitution2: "+BBUENAQ4BD0EOARHBD0EMARP +BD8EPgQ0BEEEQgQwBD0EPgQyBDoEMAAA lookup 27 subtable" doubleSvarita_vedic
Substitution2: "+BBUENAQ4BD0EOARHBD0EMARP +BD8EPgQ0BEEEQgQwBD0EPgQyBDoEMAAA lookup 26 subtable" uni1CD2
Substitution2: "+BBUENAQ4BD0EOARHBD0EMARP +BD8EPgQ0BEEEQgQwBD0EPgQyBDoEMAAA lookup 25 subtable" uni1CD0
Substitution2: "+BBUENAQ4BD0EOARHBD0EMARP +BD8EPgQ0BEEEQgQwBD0EPgQyBDoEMAAA lookup 24 subtable" anudatta_deva
Substitution2: "+BBUENAQ4BD0EOARHBD0EMARP +BD8EPgQ0BEEEQgQwBD0EPgQyBDoEMAAA lookup 23 subtable" udatta_deva
Substitution2: "+BBUENAQ4BD0EOARHBD0EMARP +BD8EPgQ0BEEEQgQwBD0EPgQyBDoEMAAA lookup 22 subtable" candrabindu_kannada
EndChar

StartChar: visarga_kannada
Encoding: 3203 3203 8
Width: 335
GlyphClass: 4
Flags: W
LayerCount: 2
Fore
SplineSet
285 426 m 256,0,1
 285 364 285 364 250.5 328.5 c 128,-1,2
 216 293 216 293 167 293 c 256,3,4
 118 293 118 293 84 328.5 c 128,-1,5
 50 364 50 364 50 426 c 256,6,7
 50 488 50 488 84 523.5 c 128,-1,8
 118 559 118 559 167 559 c 256,9,10
 216 559 216 559 250.5 523.5 c 128,-1,11
 285 488 285 488 285 426 c 256,0,1
86 426 m 0,12,13
 86 396 86 396 108 376 c 128,-1,14
 130 356 130 356 167 356 c 0,15,16
 205 356 205 356 226.5 376 c 128,-1,17
 248 396 248 396 248 426 c 0,18,19
 248 455 248 455 226.5 475 c 128,-1,20
 205 495 205 495 167 495 c 0,21,22
 130 495 130 495 108 475 c 128,-1,23
 86 455 86 455 86 426 c 0,12,13
285 121 m 0,24,25
 285 60 285 60 250.5 24 c 128,-1,26
 216 -12 216 -12 167 -12 c 256,27,28
 118 -12 118 -12 84 24 c 128,-1,29
 50 60 50 60 50 121 c 0,30,31
 50 183 50 183 84 218.5 c 128,-1,32
 118 254 118 254 167 254 c 256,33,34
 216 254 216 254 250.5 218.5 c 128,-1,35
 285 183 285 183 285 121 c 0,24,25
86 121 m 0,36,37
 86 92 86 92 108 72 c 128,-1,38
 130 52 130 52 167 52 c 0,39,40
 205 52 205 52 226.5 72 c 128,-1,41
 248 92 248 92 248 121 c 0,42,43
 248 151 248 151 226.5 170.5 c 128,-1,44
 205 190 205 190 167 190 c 0,45,46
 130 190 130 190 108 170.5 c 128,-1,47
 86 151 86 151 86 121 c 0,36,37
EndSplineSet
EndChar

StartChar: uni0C84
Encoding: 3204 3204 9
Width: 1034
GlyphClass: 1
Flags: W
LayerCount: 2
Fore
SplineSet
120 525 m 1,0,1
 112 485 112 485 108.5 446 c 128,-1,2
 105 407 105 407 105 364 c 0,3,4
 105 242 105 242 137 154.5 c 128,-1,5
 169 67 169 67 227 11.5 c 128,-1,6
 285 -44 285 -44 363 -70.5 c 128,-1,7
 441 -97 441 -97 532 -97 c 0,8,9
 648 -97 648 -97 735.5 -54 c 128,-1,10
 823 -11 823 -11 872.5 76.5 c 128,-1,11
 922 164 922 164 922 298 c 0,12,13
 922 417 922 417 882.5 499 c 128,-1,14
 843 581 843 581 772.5 623.5 c 128,-1,15
 702 666 702 666 607 666 c 0,16,17
 524 666 524 666 456.5 634 c 128,-1,18
 389 602 389 602 350 537.5 c 128,-1,19
 311 473 311 473 311 373 c 0,20,21
 311 288 311 288 343.5 237.5 c 128,-1,22
 376 187 376 187 426.5 164.5 c 128,-1,23
 477 142 477 142 532 142 c 0,24,25
 630 142 630 142 676.5 188.5 c 128,-1,26
 723 235 723 235 723 314 c 0,27,28
 723 387 723 387 689 423.5 c 128,-1,29
 655 460 655 460 601 460 c 0,30,31
 558 460 558 460 530 439 c 128,-1,32
 502 418 502 418 492 383 c 1,33,34
 509 391 509 391 527 391 c 0,35,36
 564 391 564 391 576 373.5 c 128,-1,37
 588 356 588 356 588 330 c 0,38,39
 588 298 588 298 572.5 281.5 c 128,-1,40
 557 265 557 265 522 265 c 0,41,42
 482 265 482 265 460 290.5 c 128,-1,43
 438 316 438 316 438 360 c 0,44,45
 438 403 438 403 458 437.5 c 128,-1,46
 478 472 478 472 515.5 492.5 c 128,-1,47
 553 513 553 513 604 513 c 0,48,49
 685 513 685 513 734.5 460.5 c 128,-1,50
 784 408 784 408 784 315 c 0,51,52
 784 251 784 251 758.5 197.5 c 128,-1,53
 733 144 733 144 677.5 112 c 128,-1,54
 622 80 622 80 532 80 c 0,55,56
 454 80 454 80 391 113.5 c 128,-1,57
 328 147 328 147 291.5 213 c 128,-1,58
 255 279 255 279 255 374 c 0,59,60
 255 482 255 482 300.5 559.5 c 128,-1,61
 346 637 346 637 426 679 c 128,-1,62
 506 721 506 721 607 721 c 0,63,64
 714 721 714 721 799.5 673.5 c 128,-1,65
 885 626 885 626 935.5 532 c 128,-1,66
 986 438 986 438 986 298 c 0,67,68
 986 137 986 137 927 32.5 c 128,-1,69
 868 -72 868 -72 765.5 -122.5 c 128,-1,70
 663 -173 663 -173 530 -173 c 0,71,72
 388 -173 388 -173 279.5 -114 c 128,-1,73
 171 -55 171 -55 109.5 63 c 128,-1,74
 48 181 48 181 48 359 c 0,75,76
 48 399 48 399 52 441 c 128,-1,77
 56 483 56 483 64 529 c 1,78,-1
 120 525 l 1,0,1
EndSplineSet
EndChar

StartChar: a_kannada
Encoding: 3205 3205 10
Width: 829
GlyphClass: 2
Flags: W
AnchorPoint: "+BBEENQQ3BEsEPARPBD0EPQQ+BDUA--0" 414 547 basechar 0
LayerCount: 2
Fore
SplineSet
775 312 m 0,0,1
 775 148 775 148 687.5 68 c 128,-1,2
 600 -12 600 -12 413 -12 c 0,3,4
 232 -12 232 -12 143 68.5 c 128,-1,5
 54 149 54 149 54 304 c 0,6,7
 54 380 54 380 80 437 c 128,-1,8
 106 494 106 494 151.5 526 c 128,-1,9
 197 558 197 558 255 558 c 0,10,11
 317 558 317 558 345 516.5 c 128,-1,12
 373 475 373 475 373 418 c 0,13,14
 373 357 373 357 345 318.5 c 128,-1,15
 317 280 317 280 261 280 c 0,16,17
 206 280 206 280 176.5 315.5 c 128,-1,18
 147 351 147 351 147 411 c 0,19,20
 147 435 147 435 153 453 c 1,21,22
 127 425 127 425 113.5 388.5 c 128,-1,23
 100 352 100 352 100 302 c 0,24,25
 100 242 100 242 129 193 c 128,-1,26
 158 144 158 144 226.5 115 c 128,-1,27
 295 86 295 86 413 86 c 0,28,29
 506 86 506 86 567 104 c 128,-1,30
 628 122 628 122 664 153.5 c 128,-1,31
 700 185 700 185 715 225.5 c 128,-1,32
 730 266 730 266 730 312 c 0,33,34
 730 389 730 389 702 437 c 128,-1,35
 674 485 674 485 624 485 c 0,36,37
 596 485 596 485 578 469 c 128,-1,38
 560 453 560 453 560 424 c 0,39,40
 560 382 560 382 594.5 359.5 c 128,-1,41
 629 337 629 337 678 337 c 1,42,-1
 678 263 l 1,43,-1
 392 263 l 1,44,-1
 397 341 l 1,45,-1
 490 341 l 2,46,47
 510 341 510 341 529.5 341 c 128,-1,48
 549 341 549 341 567 339 c 1,49,50
 533 358 533 358 513 386 c 128,-1,51
 493 414 493 414 493 451 c 0,52,53
 493 498 493 498 525.5 528 c 128,-1,54
 558 558 558 558 608 558 c 0,55,56
 661 558 661 558 698.5 524.5 c 128,-1,57
 736 491 736 491 755.5 435.5 c 128,-1,58
 775 380 775 380 775 312 c 0,0,1
187 418 m 256,59,60
 187 390 187 390 205.5 372.5 c 128,-1,61
 224 355 224 355 258 355 c 0,62,63
 296 355 296 355 312.5 373.5 c 128,-1,64
 329 392 329 392 329 419 c 0,65,66
 329 444 329 444 312.5 463 c 128,-1,67
 296 482 296 482 260 482 c 256,68,69
 224 482 224 482 205.5 464 c 128,-1,70
 187 446 187 446 187 418 c 256,59,60
EndSplineSet
EndChar

StartChar: aa_kannada
Encoding: 3206 3206 11
Width: 784
GlyphClass: 2
Flags: W
AnchorPoint: "+BBEENQQ3BEsEPARPBD0EPQQ+BDUA--0" 392 547 basechar 0
LayerCount: 2
Fore
SplineSet
391 263 m 1,0,-1
 396 341 l 1,1,-1
 458 341 l 2,2,3
 476 341 476 341 494 341 c 128,-1,4
 512 341 512 341 530 339 c 2,5,-1
 533 339 l 1,6,7
 512 358 512 358 499.5 383.5 c 128,-1,8
 487 409 487 409 487 442 c 0,9,10
 487 489 487 489 519 523.5 c 128,-1,11
 551 558 551 558 606 558 c 0,12,13
 671 558 671 558 702.5 516.5 c 128,-1,14
 734 475 734 475 734 411 c 0,15,16
 734 362 734 362 715 325.5 c 128,-1,17
 696 289 696 289 657 274 c 1,18,19
 682 252 682 252 693.5 229 c 128,-1,20
 705 206 705 206 705 176 c 256,21,22
 705 146 705 146 691.5 113.5 c 128,-1,23
 678 81 678 81 646 52.5 c 128,-1,24
 614 24 614 24 557.5 6 c 128,-1,25
 501 -12 501 -12 414 -12 c 0,26,27
 233 -12 233 -12 143.5 68.5 c 128,-1,28
 54 149 54 149 54 304 c 0,29,30
 54 380 54 380 80 437 c 128,-1,31
 106 494 106 494 151.5 526 c 128,-1,32
 197 558 197 558 255 558 c 0,33,34
 317 558 317 558 345 516.5 c 128,-1,35
 373 475 373 475 373 418 c 0,36,37
 373 357 373 357 345 318.5 c 128,-1,38
 317 280 317 280 261 280 c 0,39,40
 206 280 206 280 176.5 315.5 c 128,-1,41
 147 351 147 351 147 411 c 0,42,43
 147 435 147 435 153 453 c 1,44,45
 127 425 127 425 113.5 388.5 c 128,-1,46
 100 352 100 352 100 302 c 0,47,48
 100 242 100 242 129 193 c 128,-1,49
 158 144 158 144 227 115 c 128,-1,50
 296 86 296 86 414 86 c 0,51,52
 487 86 487 86 533.5 96 c 128,-1,53
 580 106 580 106 605.5 121.5 c 128,-1,54
 631 137 631 137 640.5 156 c 128,-1,55
 650 175 650 175 650 193 c 0,56,57
 650 214 650 214 641.5 231 c 128,-1,58
 633 248 633 248 612 263 c 0,59,60
 606 263 606 263 599 263 c 2,61,-1
 391 263 l 1,0,-1
187 418 m 256,62,63
 187 390 187 390 205.5 372.5 c 128,-1,64
 224 355 224 355 258 355 c 0,65,66
 296 355 296 355 312.5 373.5 c 128,-1,67
 329 392 329 392 329 419 c 0,68,69
 329 444 329 444 312.5 463 c 128,-1,70
 296 482 296 482 260 482 c 256,71,72
 224 482 224 482 205.5 464 c 128,-1,73
 187 446 187 446 187 418 c 256,62,63
542 415 m 0,74,75
 542 390 542 390 554.5 372 c 128,-1,76
 567 354 567 354 588 339 c 1,77,-1
 608 339 l 2,78,79
 645 339 645 339 662 360.5 c 128,-1,80
 679 382 679 382 679 411 c 0,81,82
 679 439 679 439 663 460.5 c 128,-1,83
 647 482 647 482 610 482 c 0,84,85
 577 482 577 482 559.5 461.5 c 128,-1,86
 542 441 542 441 542 415 c 0,74,75
EndSplineSet
EndChar

StartChar: i_kannada
Encoding: 3207 3207 12
Width: 694
GlyphClass: 2
Flags: W
AnchorPoint: "+BBEENQQ3BEsEPARPBD0EPQQ+BDUA--0" 347 547 basechar 0
LayerCount: 2
Fore
SplineSet
634 -59 m 0,0,1
 634 -100 634 -100 616.5 -123 c 128,-1,2
 599 -146 599 -146 570 -146 c 0,3,4
 543 -146 543 -146 528 -129 c 128,-1,5
 513 -112 513 -112 513 -88 c 1,6,7
 539 -77 539 -77 552.5 -57 c 128,-1,8
 566 -37 566 -37 566 -5 c 0,9,10
 566 44 566 44 539 91 c 1,11,12
 497 43 497 43 441.5 15.5 c 128,-1,13
 386 -12 386 -12 325 -12 c 0,14,15
 244 -12 244 -12 197 28.5 c 128,-1,16
 150 69 150 69 150 129 c 0,17,18
 150 187 150 187 195.5 224.5 c 128,-1,19
 241 262 241 262 317 262 c 0,20,21
 380 262 380 262 433 237 c 128,-1,22
 486 212 486 212 526 173 c 1,23,24
 552 204 552 204 566 242 c 128,-1,25
 580 280 580 280 580 323 c 0,26,27
 580 388 580 388 550 428.5 c 128,-1,28
 520 469 520 469 461 469 c 0,29,30
 413 469 413 469 384 440.5 c 128,-1,31
 355 412 355 412 355 364 c 1,32,-1
 305 364 l 1,33,34
 305 411 305 411 277 440 c 128,-1,35
 249 469 249 469 197 469 c 0,36,37
 148 469 148 469 121.5 445.5 c 128,-1,38
 95 422 95 422 95 387 c 0,39,40
 95 364 95 364 103.5 346 c 128,-1,41
 112 328 112 328 129 309 c 1,42,-1
 102 286 l 1,43,44
 74 313 74 313 59 345.5 c 128,-1,45
 44 378 44 378 44 420 c 0,46,47
 44 480 44 480 85.5 519.5 c 128,-1,48
 127 559 127 559 191 559 c 0,49,50
 244 559 244 559 279 533 c 128,-1,51
 314 507 314 507 330 464 c 1,52,53
 343 509 343 509 378.5 534 c 128,-1,54
 414 559 414 559 462 559 c 0,55,56
 520 559 520 559 556 528.5 c 128,-1,57
 592 498 592 498 609 448 c 128,-1,58
 626 398 626 398 626 337 c 0,59,60
 626 277 626 277 610 223.5 c 128,-1,61
 594 170 594 170 566 127 c 1,62,63
 599 83 599 83 616.5 33.5 c 128,-1,64
 634 -16 634 -16 634 -59 c 0,0,1
209 150 m 0,65,66
 209 121 209 121 236.5 102 c 128,-1,67
 264 83 264 83 320 83 c 0,68,69
 373 83 373 83 418.5 99.5 c 128,-1,70
 464 116 464 116 498 144 c 1,71,72
 464 177 464 177 418 197.5 c 128,-1,73
 372 218 372 218 318 218 c 0,74,75
 266 218 266 218 237.5 200 c 128,-1,76
 209 182 209 182 209 150 c 0,65,66
EndSplineSet
EndChar

StartChar: ii_kannada
Encoding: 3208 3208 13
Width: 936
GlyphClass: 2
Flags: W
AnchorPoint: "+BBEENQQ3BEsEPARPBD0EPQQ+BDUA--0" 468 547 basechar 0
LayerCount: 2
Fore
SplineSet
353 -12 m 0,0,1
 274 -12 274 -12 216.5 20.5 c 128,-1,2
 159 53 159 53 127 108 c 128,-1,3
 95 163 95 163 92 230 c 1,4,-1
 24 230 l 1,5,-1
 31 305 l 1,6,-1
 99 305 l 1,7,8
 112 358 112 358 144.5 397 c 128,-1,9
 177 436 177 436 223 460 c 1,10,-1
 97 460 l 1,11,-1
 104 547 l 1,12,-1
 426 547 l 2,13,14
 476 547 476 547 500 552.5 c 128,-1,15
 524 558 524 558 538 570 c 0,16,17
 561 590 561 590 561 628 c 0,18,19
 561 686 561 686 506 744 c 1,20,-1
 542 771 l 1,21,22
 576 735 576 735 594.5 693 c 128,-1,23
 613 651 613 651 613 605 c 0,24,25
 613 578 613 578 606 551.5 c 128,-1,26
 599 525 599 525 577 503 c 0,27,28
 562 488 562 488 541 477.5 c 128,-1,29
 520 467 520 467 480 463 c 1,30,31
 528 438 528 438 560.5 398 c 128,-1,32
 593 358 593 358 606 305 c 1,33,-1
 691 305 l 1,34,35
 681 328 681 328 674.5 352 c 128,-1,36
 668 376 668 376 668 401 c 0,37,38
 668 462 668 462 697.5 497.5 c 128,-1,39
 727 533 727 533 776 533 c 0,40,41
 816 533 816 533 840 513.5 c 128,-1,42
 864 494 864 494 875 462.5 c 128,-1,43
 886 431 886 431 886 395 c 0,44,45
 886 339 886 339 857 296.5 c 128,-1,46
 828 254 828 254 772 238 c 1,47,48
 792 208 792 208 812.5 179.5 c 128,-1,49
 833 151 833 151 846.5 122 c 128,-1,50
 860 93 860 93 860 63 c 0,51,52
 860 29 860 29 841 8.5 c 128,-1,53
 822 -12 822 -12 789 -12 c 0,54,55
 752 -12 752 -12 734 9.5 c 128,-1,56
 716 31 716 31 716 64 c 1,57,58
 749 66 749 66 763 81 c 128,-1,59
 777 96 777 96 777 121 c 256,60,61
 777 146 777 146 763.5 173.5 c 128,-1,62
 750 201 750 201 732 231 c 1,63,64
 723 230 723 230 713 230 c 2,65,-1
 613 230 l 1,66,67
 611 163 611 163 581 108 c 128,-1,68
 551 53 551 53 493.5 20.5 c 128,-1,69
 436 -12 436 -12 353 -12 c 0,0,1
354 462 m 0,70,71
 277 462 277 462 223.5 419 c 128,-1,72
 170 376 170 376 159 305 c 1,73,-1
 547 305 l 1,74,75
 540 353 540 353 512.5 388.5 c 128,-1,76
 485 424 485 424 444 443 c 128,-1,77
 403 462 403 462 354 462 c 0,70,71
720 371 m 0,78,79
 720 354 720 354 723.5 338 c 128,-1,80
 727 322 727 322 734 306 c 1,81,82
 785 311 785 311 813.5 335 c 128,-1,83
 842 359 842 359 842 399 c 0,84,85
 842 428 842 428 827.5 444.5 c 128,-1,86
 813 461 813 461 786 461 c 0,87,88
 756 461 756 461 738 438.5 c 128,-1,89
 720 416 720 416 720 371 c 0,78,79
353 77 m 256,90,91
 437 77 437 77 486 120.5 c 128,-1,92
 535 164 535 164 547 230 c 1,93,-1
 159 230 l 1,94,95
 171 164 171 164 220 120.5 c 128,-1,96
 269 77 269 77 353 77 c 256,90,91
EndSplineSet
EndChar

StartChar: u_kannada
Encoding: 3209 3209 14
Width: 1106
GlyphClass: 2
Flags: W
AnchorPoint: "+BBEENQQ3BEsEPARPBD0EPQQ+BDUA--0" 553 547 basechar 0
LayerCount: 2
Fore
SplineSet
511 188 m 0,0,1
 511 88 511 88 456.5 38.5 c 128,-1,2
 402 -11 402 -11 309 -11 c 0,3,4
 231 -11 231 -11 174 27 c 128,-1,5
 117 65 117 65 85.5 134 c 128,-1,6
 54 203 54 203 54 294 c 0,7,8
 54 340 54 340 66 386.5 c 128,-1,9
 78 433 78 433 102 472 c 128,-1,10
 126 511 126 511 164.5 535 c 128,-1,11
 203 559 203 559 255 559 c 0,12,13
 296 559 296 559 322.5 539.5 c 128,-1,14
 349 520 349 520 361.5 488.5 c 128,-1,15
 374 457 374 457 374 419 c 0,16,17
 374 357 374 357 345.5 319 c 128,-1,18
 317 281 317 281 261 281 c 0,19,20
 206 281 206 281 176.5 316 c 128,-1,21
 147 351 147 351 147 412 c 0,22,23
 147 435 147 435 152 453 c 1,24,25
 99 398 99 398 99 292 c 0,26,27
 99 231 99 231 124 184 c 128,-1,28
 149 137 149 137 193.5 110.5 c 128,-1,29
 238 84 238 84 298 84 c 0,30,31
 380 84 380 84 421 120 c 128,-1,32
 462 156 462 156 462 211 c 0,33,34
 462 245 462 245 455.5 275.5 c 128,-1,35
 449 306 449 306 442.5 336.5 c 128,-1,36
 436 367 436 367 436 401 c 0,37,38
 436 471 436 471 476.5 515 c 128,-1,39
 517 559 517 559 584 559 c 0,40,41
 662 559 662 559 700.5 505 c 128,-1,42
 739 451 739 451 739 351 c 0,43,44
 739 311 739 311 737.5 284.5 c 128,-1,45
 736 258 736 258 736 220 c 0,46,47
 736 152 736 152 772.5 118 c 128,-1,48
 809 84 809 84 866 84 c 0,49,50
 928 84 928 84 967.5 123.5 c 128,-1,51
 1007 163 1007 163 1007 244 c 0,52,53
 1007 345 1007 345 959.5 415 c 128,-1,54
 912 485 912 485 808 513 c 1,55,56
 808 533 808 533 817.5 546 c 128,-1,57
 827 559 827 559 851 559 c 0,58,59
 887 559 887 559 923 536.5 c 128,-1,60
 959 514 959 514 988 472 c 128,-1,61
 1017 430 1017 430 1034.5 372 c 128,-1,62
 1052 314 1052 314 1052 244 c 0,63,64
 1052 123 1052 123 1006.5 56 c 128,-1,65
 961 -11 961 -11 870 -11 c 0,66,67
 782 -11 782 -11 733 46 c 128,-1,68
 684 103 684 103 684 207 c 0,69,70
 684 241 684 241 685.5 272.5 c 128,-1,71
 687 304 687 304 687 337 c 0,72,73
 687 399 687 399 662 434 c 128,-1,74
 637 469 637 469 583 469 c 0,75,76
 540 469 540 469 512.5 442 c 128,-1,77
 485 415 485 415 485 368 c 0,78,79
 485 339 485 339 491.5 310.5 c 128,-1,80
 498 282 498 282 504.5 252 c 128,-1,81
 511 222 511 222 511 188 c 0,0,1
188 419 m 0,82,83
 188 390 188 390 206.5 372.5 c 128,-1,84
 225 355 225 355 259 355 c 0,85,86
 297 355 297 355 313.5 373.5 c 128,-1,87
 330 392 330 392 330 419 c 0,88,89
 330 444 330 444 313 463 c 128,-1,90
 296 482 296 482 260 482 c 0,91,92
 225 482 225 482 206.5 464 c 128,-1,93
 188 446 188 446 188 419 c 0,82,83
EndSplineSet
EndChar

StartChar: uu_kannada
Encoding: 3210 3210 15
Width: 1460
GlyphClass: 2
Flags: W
AnchorPoint: "+BBEENQQ3BEsEPARPBD0EPQQ+BDUA--0" 730 547 basechar 0
LayerCount: 2
Fore
SplineSet
521 190 m 0,0,1
 521 91 521 91 466 40.5 c 128,-1,2
 411 -10 411 -10 317 -10 c 0,3,4
 234 -10 234 -10 175 28 c 128,-1,5
 116 66 116 66 85 134.5 c 128,-1,6
 54 203 54 203 54 294 c 0,7,8
 54 340 54 340 65.5 386.5 c 128,-1,9
 77 433 77 433 100.5 471.5 c 128,-1,10
 124 510 124 510 161 533.5 c 128,-1,11
 198 557 198 557 249 557 c 0,12,13
 314 557 314 557 344 516 c 128,-1,14
 374 475 374 475 374 418 c 0,15,16
 374 357 374 357 345.5 318.5 c 128,-1,17
 317 280 317 280 261 280 c 0,18,19
 206 280 206 280 176.5 315.5 c 128,-1,20
 147 351 147 351 147 411 c 0,21,22
 147 435 147 435 153 453 c 1,23,24
 99 398 99 398 99 292 c 0,25,26
 99 192 99 192 156 138.5 c 128,-1,27
 213 85 213 85 307 85 c 0,28,29
 390 85 390 85 431 121.5 c 128,-1,30
 472 158 472 158 472 214 c 0,31,32
 472 247 472 247 465.5 277 c 128,-1,33
 459 307 459 307 452.5 337 c 128,-1,34
 446 367 446 367 446 401 c 0,35,36
 446 471 446 471 486.5 514 c 128,-1,37
 527 557 527 557 594 557 c 0,38,39
 672 557 672 557 710.5 503.5 c 128,-1,40
 749 450 749 450 749 351 c 0,41,42
 749 311 749 311 747.5 284.5 c 128,-1,43
 746 258 746 258 746 220 c 0,44,45
 746 152 746 152 774.5 118 c 128,-1,46
 803 84 803 84 852 84 c 0,47,48
 890 84 890 84 912 106.5 c 128,-1,49
 934 129 934 129 934 174 c 0,50,51
 934 215 934 215 927 252 c 128,-1,52
 920 289 920 289 920 329 c 0,53,54
 920 396 920 396 948 447.5 c 128,-1,55
 976 499 976 499 1028 528 c 128,-1,56
 1080 557 1080 557 1151 557 c 0,57,58
 1231 557 1231 557 1288 517.5 c 128,-1,59
 1345 478 1345 478 1375.5 410 c 128,-1,60
 1406 342 1406 342 1406 255 c 0,61,62
 1406 182 1406 182 1387.5 122 c 128,-1,63
 1369 62 1369 62 1329 26 c 128,-1,64
 1289 -10 1289 -10 1225 -10 c 0,65,66
 1151 -10 1151 -10 1108.5 32.5 c 128,-1,67
 1066 75 1066 75 1066 145 c 0,68,69
 1066 209 1066 209 1101 245.5 c 128,-1,70
 1136 282 1136 282 1182 282 c 0,71,72
 1215 282 1215 282 1232.5 263.5 c 128,-1,73
 1250 245 1250 245 1250 216 c 0,74,75
 1250 194 1250 194 1236 177.5 c 128,-1,76
 1222 161 1222 161 1193 161 c 0,77,78
 1171 161 1171 161 1155.5 173 c 128,-1,79
 1140 185 1140 185 1140 213 c 2,80,-1
 1140 218 l 1,81,82
 1110 195 1110 195 1110 150 c 0,83,84
 1110 111 1110 111 1137.5 87.5 c 128,-1,85
 1165 64 1165 64 1217 64 c 0,86,87
 1285 64 1285 64 1322.5 115 c 128,-1,88
 1360 166 1360 166 1360 254 c 0,89,90
 1360 351 1360 351 1308.5 407.5 c 128,-1,91
 1257 464 1257 464 1160 464 c 0,92,93
 1069 464 1069 464 1020.5 419 c 128,-1,94
 972 374 972 374 972 303 c 0,95,96
 972 255 972 255 980 214.5 c 128,-1,97
 988 174 988 174 988 132 c 0,98,99
 988 65 988 65 955 27.5 c 128,-1,100
 922 -10 922 -10 856 -10 c 0,101,102
 780 -10 780 -10 737 46.5 c 128,-1,103
 694 103 694 103 694 208 c 0,104,105
 694 241 694 241 695.5 272.5 c 128,-1,106
 697 304 697 304 697 337 c 0,107,108
 697 398 697 398 672 432.5 c 128,-1,109
 647 467 647 467 593 467 c 0,110,111
 550 467 550 467 522.5 440.5 c 128,-1,112
 495 414 495 414 495 368 c 0,113,114
 495 340 495 340 501.5 311.5 c 128,-1,115
 508 283 508 283 514.5 253.5 c 128,-1,116
 521 224 521 224 521 190 c 0,0,1
188 418 m 256,117,118
 188 390 188 390 206.5 372.5 c 128,-1,119
 225 355 225 355 259 355 c 0,120,121
 297 355 297 355 313.5 373.5 c 128,-1,122
 330 392 330 392 330 419 c 0,123,124
 330 443 330 443 313 462 c 128,-1,125
 296 481 296 481 260 481 c 0,126,127
 225 481 225 481 206.5 463.5 c 128,-1,128
 188 446 188 446 188 418 c 256,117,118
EndSplineSet
EndChar

StartChar: rVocalic_kannada
Encoding: 3211 3211 16
Width: 1196
GlyphClass: 2
Flags: W
AnchorPoint: "+BBEENQQ3BEsEPARPBD0EPQQ+BDUA--0" 598 547 basechar 0
LayerCount: 2
Fore
SplineSet
212 -11 m 0,0,1
 129 -11 129 -11 84.5 25.5 c 128,-1,2
 40 62 40 62 40 115 c 0,3,4
 40 164 40 164 73 193.5 c 128,-1,5
 106 223 106 223 159 223 c 256,6,7
 212 223 212 223 242.5 195.5 c 128,-1,8
 273 168 273 168 273 122 c 0,9,10
 273 88 273 88 257.5 65.5 c 128,-1,11
 242 43 242 43 217 31 c 1,12,13
 267 35 267 35 306.5 65 c 128,-1,14
 346 95 346 95 369 148 c 128,-1,15
 392 201 392 201 392 274 c 0,16,17
 392 384 392 384 345.5 449 c 128,-1,18
 299 514 299 514 218 517 c 1,19,20
 244 505 244 505 258.5 481.5 c 128,-1,21
 273 458 273 458 273 426 c 0,22,23
 273 380 273 380 244 352.5 c 128,-1,24
 215 325 215 325 158 325 c 0,25,26
 106 325 106 325 73 354.5 c 128,-1,27
 40 384 40 384 40 433 c 0,28,29
 40 489 40 489 88 524 c 128,-1,30
 136 559 136 559 221 559 c 0,31,32
 303 559 303 559 362 521.5 c 128,-1,33
 421 484 421 484 453.5 420 c 128,-1,34
 486 356 486 356 486 276 c 0,35,36
 486 215 486 215 469 165 c 1,37,38
 500 128 500 128 536.5 106 c 128,-1,39
 573 84 573 84 629 84 c 0,40,41
 691 84 691 84 726.5 124.5 c 128,-1,42
 762 165 762 165 762 239 c 0,43,44
 762 303 762 303 735.5 353 c 128,-1,45
 709 403 709 403 659.5 431.5 c 128,-1,46
 610 460 610 460 541 460 c 2,47,-1
 537 460 l 1,48,-1
 543 547 l 1,49,-1
 636 547 l 2,50,51
 686 547 686 547 710 552.5 c 128,-1,52
 734 558 734 558 748 570 c 0,53,54
 771 590 771 590 771 628 c 0,55,56
 771 686 771 686 716 744 c 1,57,-1
 752 771 l 1,58,59
 786 735 786 735 804.5 693 c 128,-1,60
 823 651 823 651 823 605 c 0,61,62
 823 578 823 578 816 551.5 c 128,-1,63
 809 525 809 525 787 503 c 0,64,65
 772 488 772 488 749 477 c 128,-1,66
 726 466 726 466 684 462 c 1,67,68
 730 439 730 439 761.5 400 c 128,-1,69
 793 361 793 361 809 314 c 128,-1,70
 825 267 825 267 825 221 c 0,71,72
 825 186 825 186 820 155 c 1,73,74
 845 126 845 126 879.5 105 c 128,-1,75
 914 84 914 84 967 84 c 0,76,77
 1015 84 1015 84 1043.5 104 c 128,-1,78
 1072 124 1072 124 1085 155.5 c 128,-1,79
 1098 187 1098 187 1098 223 c 0,80,81
 1098 310 1098 310 1049.5 357.5 c 128,-1,82
 1001 405 1001 405 916 433 c 1,83,84
 914 439 914 439 912.5 449.5 c 128,-1,85
 911 460 911 460 911 470 c 0,86,87
 911 490 911 490 918.5 505.5 c 128,-1,88
 926 521 926 521 944 521 c 0,89,90
 969 521 969 521 1002.5 498 c 128,-1,91
 1036 475 1036 475 1068.5 434 c 128,-1,92
 1101 393 1101 393 1122.5 338 c 128,-1,93
 1144 283 1144 283 1144 219 c 0,94,95
 1144 156 1144 156 1126.5 103.5 c 128,-1,96
 1109 51 1109 51 1071.5 20 c 128,-1,97
 1034 -11 1034 -11 975 -11 c 0,98,99
 919 -11 919 -11 876.5 19 c 128,-1,100
 834 49 834 49 802 95 c 1,101,102
 782 48 782 48 742.5 18.5 c 128,-1,103
 703 -11 703 -11 639 -11 c 0,104,105
 576 -11 576 -11 529.5 23 c 128,-1,106
 483 57 483 57 444 111 c 1,107,108
 409 52 409 52 348 20.5 c 128,-1,109
 287 -11 287 -11 212 -11 c 0,0,1
156 370 m 0,110,111
 185 370 185 370 202 387 c 128,-1,112
 219 404 219 404 219 431 c 0,113,114
 219 459 219 459 203 477 c 128,-1,115
 187 495 187 495 155 495 c 0,116,117
 118 495 118 495 101 475.5 c 128,-1,118
 84 456 84 456 84 433 c 0,119,120
 84 406 84 406 101 388 c 128,-1,121
 118 370 118 370 156 370 c 0,110,111
151 53 m 0,122,123
 184 53 184 53 201.5 71 c 128,-1,124
 219 89 219 89 219 117 c 0,125,126
 219 144 219 144 201 161 c 128,-1,127
 183 178 183 178 151 178 c 0,128,129
 116 178 116 178 100 159.5 c 128,-1,130
 84 141 84 141 84 115 c 0,131,132
 84 92 84 92 100.5 72.5 c 128,-1,133
 117 53 117 53 151 53 c 0,122,123
EndSplineSet
EndChar

StartChar: rrVocalic_kannada
Encoding: 3296 3296 17
Width: 1551
GlyphClass: 2
Flags: W
AnchorPoint: "+BBEENQQ3BEsEPARPBD0EPQQ+BDUA--0" 775 547 basechar 0
LayerCount: 2
Fore
SplineSet
212 -12 m 0,0,1
 129 -12 129 -12 84.5 24.5 c 128,-1,2
 40 61 40 61 40 114 c 0,3,4
 40 163 40 163 73 192.5 c 128,-1,5
 106 222 106 222 159 222 c 256,6,7
 212 222 212 222 242.5 194.5 c 128,-1,8
 273 167 273 167 273 121 c 0,9,10
 273 87 273 87 257.5 64.5 c 128,-1,11
 242 42 242 42 217 30 c 1,12,13
 267 34 267 34 306.5 64 c 128,-1,14
 346 94 346 94 369 147.5 c 128,-1,15
 392 201 392 201 392 274 c 0,16,17
 392 384 392 384 345.5 449 c 128,-1,18
 299 514 299 514 218 517 c 1,19,20
 244 505 244 505 258.5 481.5 c 128,-1,21
 273 458 273 458 273 426 c 0,22,23
 273 380 273 380 244 352.5 c 128,-1,24
 215 325 215 325 158 325 c 0,25,26
 106 325 106 325 73 354.5 c 128,-1,27
 40 384 40 384 40 433 c 0,28,29
 40 489 40 489 88 524 c 128,-1,30
 136 559 136 559 221 559 c 0,31,32
 303 559 303 559 362 521.5 c 128,-1,33
 421 484 421 484 453.5 419.5 c 128,-1,34
 486 355 486 355 486 275 c 0,35,36
 486 215 486 215 469 164 c 1,37,38
 499 128 499 128 536 106.5 c 128,-1,39
 573 85 573 85 629 85 c 0,40,41
 691 85 691 85 726.5 125 c 128,-1,42
 762 165 762 165 762 239 c 0,43,44
 762 303 762 303 735.5 353 c 128,-1,45
 709 403 709 403 659.5 431.5 c 128,-1,46
 610 460 610 460 541 460 c 2,47,-1
 537 460 l 1,48,-1
 543 547 l 1,49,-1
 636 547 l 2,50,51
 686 547 686 547 710 552.5 c 128,-1,52
 734 558 734 558 748 570 c 0,53,54
 771 590 771 590 771 628 c 0,55,56
 771 686 771 686 716 744 c 1,57,-1
 752 771 l 1,58,59
 786 735 786 735 804.5 693 c 128,-1,60
 823 651 823 651 823 605 c 0,61,62
 823 578 823 578 816 551.5 c 128,-1,63
 809 525 809 525 787 503 c 0,64,65
 772 488 772 488 749 477 c 128,-1,66
 726 466 726 466 684 462 c 1,67,68
 730 439 730 439 761.5 400 c 128,-1,69
 793 361 793 361 809 314 c 128,-1,70
 825 267 825 267 825 221 c 0,71,72
 825 191 825 191 821 164 c 1,73,74
 857 122 857 122 893 102.5 c 128,-1,75
 929 83 929 83 964 83 c 0,76,77
 997 83 997 83 1012 100.5 c 128,-1,78
 1027 118 1027 118 1031 145.5 c 128,-1,79
 1035 173 1035 173 1035 204 c 0,80,81
 1035 224 1035 224 1034 253 c 128,-1,82
 1033 282 1033 282 1033 324 c 0,83,84
 1033 431 1033 431 1093 494.5 c 128,-1,85
 1153 558 1153 558 1257 558 c 0,86,87
 1332 558 1332 558 1386 521 c 128,-1,88
 1440 484 1440 484 1469.5 414.5 c 128,-1,89
 1499 345 1499 345 1499 249 c 0,90,91
 1499 178 1499 178 1479 118.5 c 128,-1,92
 1459 59 1459 59 1418.5 23.5 c 128,-1,93
 1378 -12 1378 -12 1317 -12 c 0,94,95
 1244 -12 1244 -12 1201 31.5 c 128,-1,96
 1158 75 1158 75 1158 145 c 0,97,98
 1158 209 1158 209 1193 245.5 c 128,-1,99
 1228 282 1228 282 1274 282 c 0,100,101
 1308 282 1308 282 1325 263.5 c 128,-1,102
 1342 245 1342 245 1342 216 c 0,103,104
 1342 194 1342 194 1328.5 177.5 c 128,-1,105
 1315 161 1315 161 1286 161 c 0,106,107
 1263 161 1263 161 1247.5 173 c 128,-1,108
 1232 185 1232 185 1232 213 c 2,109,-1
 1232 218 l 1,110,111
 1203 194 1203 194 1203 150 c 0,112,113
 1203 110 1203 110 1230.5 86.5 c 128,-1,114
 1258 63 1258 63 1309 63 c 0,115,116
 1377 63 1377 63 1415 112.5 c 128,-1,117
 1453 162 1453 162 1453 248 c 0,118,119
 1453 322 1453 322 1427.5 370.5 c 128,-1,120
 1402 419 1402 419 1358.5 443.5 c 128,-1,121
 1315 468 1315 468 1260 468 c 0,122,123
 1157 468 1157 468 1113 396 c 0,124,125
 1097 371 1097 371 1089.5 336.5 c 128,-1,126
 1082 302 1082 302 1082 243 c 0,127,128
 1082 218 1082 218 1083 189.5 c 128,-1,129
 1084 161 1084 161 1084 129 c 0,130,131
 1084 62 1084 62 1057 25 c 128,-1,132
 1030 -12 1030 -12 971 -12 c 0,133,134
 926 -12 926 -12 886.5 17 c 128,-1,135
 847 46 847 46 808 110 c 1,136,137
 790 58 790 58 749 24 c 128,-1,138
 708 -10 708 -10 639 -10 c 0,139,140
 576 -10 576 -10 529.5 24 c 128,-1,141
 483 58 483 58 445 111 c 1,142,143
 409 51 409 51 348.5 19.5 c 128,-1,144
 288 -12 288 -12 212 -12 c 0,0,1
156 371 m 0,145,146
 185 371 185 371 202 387.5 c 128,-1,147
 219 404 219 404 219 432 c 0,148,149
 219 459 219 459 203 477 c 128,-1,150
 187 495 187 495 155 495 c 0,151,152
 118 495 118 495 101 475.5 c 128,-1,153
 84 456 84 456 84 433 c 0,154,155
 84 406 84 406 101 388.5 c 128,-1,156
 118 371 118 371 156 371 c 0,145,146
151 52 m 0,157,158
 184 52 184 52 201.5 70 c 128,-1,159
 219 88 219 88 219 116 c 0,160,161
 219 143 219 143 201 159.5 c 128,-1,162
 183 176 183 176 151 176 c 0,163,164
 116 176 116 176 100 158 c 128,-1,165
 84 140 84 140 84 114 c 0,166,167
 84 91 84 91 100.5 71.5 c 128,-1,168
 117 52 117 52 151 52 c 0,157,158
EndSplineSet
EndChar

StartChar: lVocalic_kannada
Encoding: 3212 3212 18
Width: 738
GlyphClass: 2
Flags: W
AnchorPoint: "+BBEENQQ3BEsEPARPBD0EPQQ+BDUA--0" 369 547 basechar 0
LayerCount: 2
Fore
SplineSet
517 -11 m 0,0,1
 453 -11 453 -11 415.5 23.5 c 128,-1,2
 378 58 378 58 378 113 c 0,3,4
 378 154 378 154 396 183.5 c 128,-1,5
 414 213 414 213 440 236.5 c 128,-1,6
 466 260 466 260 492 282.5 c 128,-1,7
 518 305 518 305 536 331 c 128,-1,8
 554 357 554 357 554 391 c 0,9,10
 554 424 554 424 530 446 c 128,-1,11
 506 468 506 468 458 468 c 0,12,13
 403 468 403 468 375.5 440 c 128,-1,14
 348 412 348 412 348 364 c 1,15,-1
 298 364 l 1,16,17
 298 411 298 411 271.5 439.5 c 128,-1,18
 245 468 245 468 193 468 c 0,19,20
 144 468 144 468 117.5 445 c 128,-1,21
 91 422 91 422 91 387 c 0,22,23
 91 364 91 364 99.5 346 c 128,-1,24
 108 328 108 328 126 309 c 1,25,-1
 98 287 l 1,26,27
 70 313 70 313 55 345.5 c 128,-1,28
 40 378 40 378 40 420 c 0,29,30
 40 480 40 480 81.5 519 c 128,-1,31
 123 558 123 558 187 558 c 0,32,33
 241 558 241 558 275.5 531.5 c 128,-1,34
 310 505 310 505 325 463 c 1,35,36
 340 509 340 509 375 533.5 c 128,-1,37
 410 558 410 558 460 558 c 0,38,39
 508 558 508 558 540.5 538 c 128,-1,40
 573 518 573 518 589 484.5 c 128,-1,41
 605 451 605 451 605 411 c 0,42,43
 605 363 605 363 588.5 329.5 c 128,-1,44
 572 296 572 296 547.5 271.5 c 128,-1,45
 523 247 523 247 498 226.5 c 128,-1,46
 473 206 473 206 456.5 184.5 c 128,-1,47
 440 163 440 163 440 136 c 0,48,49
 440 108 440 108 461.5 90.5 c 128,-1,50
 483 73 483 73 520 73 c 0,51,52
 562 73 562 73 589 91.5 c 128,-1,53
 616 110 616 110 632 140.5 c 128,-1,54
 648 171 648 171 656 208 c 1,55,-1
 698 202 l 1,56,57
 688 141 688 141 666.5 93 c 128,-1,58
 645 45 645 45 609 17 c 128,-1,59
 573 -11 573 -11 517 -11 c 0,0,1
EndSplineSet
EndChar

StartChar: llVocalic_kannada
Encoding: 3297 3297 19
Width: 738
GlyphClass: 2
Flags: W
AnchorPoint: "+BBEENQQ3BEsEPARPBD0EPQQ+BDUA--0" 369 547 basechar 0
LayerCount: 2
Fore
SplineSet
517 -11 m 0,0,1
 510 -11 510 -11 504 -11 c 1,2,3
 485 -28 485 -28 472.5 -46.5 c 128,-1,4
 460 -65 460 -65 460 -88 c 0,5,6
 460 -116 460 -116 481.5 -133.5 c 128,-1,7
 503 -151 503 -151 540 -151 c 0,8,9
 582 -151 582 -151 609 -132.5 c 128,-1,10
 636 -114 636 -114 652 -83.5 c 128,-1,11
 668 -53 668 -53 676 -16 c 1,12,-1
 718 -22 l 1,13,14
 708 -83 708 -83 686.5 -131 c 128,-1,15
 665 -179 665 -179 629 -207 c 128,-1,16
 593 -235 593 -235 537 -235 c 0,17,18
 473 -235 473 -235 435.5 -200.5 c 128,-1,19
 398 -166 398 -166 398 -111 c 0,20,21
 398 -75 398 -75 413 -47.5 c 128,-1,22
 428 -20 428 -20 449 2 c 1,23,24
 416 16 416 16 397 45 c 128,-1,25
 378 74 378 74 378 113 c 0,26,27
 378 154 378 154 396 183.5 c 128,-1,28
 414 213 414 213 440 236.5 c 128,-1,29
 466 260 466 260 492 282.5 c 128,-1,30
 518 305 518 305 536 331 c 128,-1,31
 554 357 554 357 554 391 c 0,32,33
 554 424 554 424 530 446 c 128,-1,34
 506 468 506 468 458 468 c 0,35,36
 403 468 403 468 375.5 440 c 128,-1,37
 348 412 348 412 348 364 c 1,38,-1
 298 364 l 1,39,40
 298 411 298 411 271.5 439.5 c 128,-1,41
 245 468 245 468 193 468 c 0,42,43
 144 468 144 468 117.5 445 c 128,-1,44
 91 422 91 422 91 387 c 0,45,46
 91 364 91 364 99.5 346 c 128,-1,47
 108 328 108 328 126 309 c 1,48,-1
 98 287 l 1,49,50
 70 313 70 313 55 345.5 c 128,-1,51
 40 378 40 378 40 420 c 0,52,53
 40 480 40 480 81.5 519 c 128,-1,54
 123 558 123 558 187 558 c 0,55,56
 241 558 241 558 275.5 531.5 c 128,-1,57
 310 505 310 505 325 463 c 1,58,59
 340 509 340 509 375 533.5 c 128,-1,60
 410 558 410 558 460 558 c 0,61,62
 508 558 508 558 540.5 538 c 128,-1,63
 573 518 573 518 589 484.5 c 128,-1,64
 605 451 605 451 605 411 c 0,65,66
 605 363 605 363 588.5 329.5 c 128,-1,67
 572 296 572 296 547.5 271.5 c 128,-1,68
 523 247 523 247 498 226.5 c 128,-1,69
 473 206 473 206 456.5 184.5 c 128,-1,70
 440 163 440 163 440 136 c 0,71,72
 440 108 440 108 461.5 90.5 c 128,-1,73
 483 73 483 73 520 73 c 0,74,75
 562 73 562 73 589 91.5 c 128,-1,76
 616 110 616 110 632 140.5 c 128,-1,77
 648 171 648 171 656 208 c 1,78,-1
 698 202 l 1,79,80
 688 141 688 141 666.5 93 c 128,-1,81
 645 45 645 45 609 17 c 128,-1,82
 573 -11 573 -11 517 -11 c 0,0,1
EndSplineSet
EndChar

StartChar: e_kannada
Encoding: 3214 3214 20
Width: 762
GlyphClass: 2
Flags: W
AnchorPoint: "+BBEENQQ3BEsEPARPBD0EPQQ+BDUA--0" 381 547 basechar 0
LayerCount: 2
Fore
SplineSet
710 179 m 0,0,1
 710 121 710 121 688.5 78 c 128,-1,2
 667 35 667 35 629 11.5 c 128,-1,3
 591 -12 591 -12 542 -12 c 0,4,5
 479 -12 479 -12 434 24.5 c 128,-1,6
 389 61 389 61 372 124 c 1,7,8
 352 63 352 63 313.5 25.5 c 128,-1,9
 275 -12 275 -12 206 -12 c 0,10,11
 154 -12 154 -12 119 13 c 128,-1,12
 84 38 84 38 66 79 c 128,-1,13
 48 120 48 120 48 167 c 0,14,15
 48 232 48 232 82.5 275.5 c 128,-1,16
 117 319 117 319 177 319 c 0,17,18
 224 319 224 319 249.5 293.5 c 128,-1,19
 275 268 275 268 275 229 c 0,20,21
 275 191 275 191 251 169 c 128,-1,22
 227 147 227 147 185 141 c 1,23,-1
 178 178 l 1,24,25
 195 182 195 182 204.5 191.5 c 128,-1,26
 214 201 214 201 214 219 c 256,27,28
 214 237 214 237 202 248.5 c 128,-1,29
 190 260 190 260 166 260 c 0,30,31
 132 260 132 260 112.5 238.5 c 128,-1,32
 93 217 93 217 93 181 c 0,33,34
 93 132 93 132 125 107.5 c 128,-1,35
 157 83 157 83 217 83 c 0,36,37
 324 83 324 83 356 200 c 1,38,-1
 390 200 l 1,39,40
 401 144 401 144 437 113.5 c 128,-1,41
 473 83 473 83 528 83 c 0,42,43
 581 83 581 83 610 117.5 c 128,-1,44
 639 152 639 152 639 209 c 0,45,46
 639 294 639 294 598.5 351 c 128,-1,47
 558 408 558 408 486.5 437 c 128,-1,48
 415 466 415 466 321 466 c 0,49,50
 262 466 262 466 194 454 c 1,51,52
 187 466 187 466 185 476.5 c 128,-1,53
 183 487 183 487 183 493 c 0,54,55
 183 560 183 560 288 560 c 0,56,57
 386 560 386 560 463.5 525.5 c 128,-1,58
 541 491 541 491 596.5 434.5 c 128,-1,59
 652 378 652 378 681 311 c 128,-1,60
 710 244 710 244 710 179 c 0,0,1
EndSplineSet
EndChar

StartChar: ee_kannada
Encoding: 3215 3215 21
Width: 765
GlyphClass: 2
Flags: W
AnchorPoint: "+BBEENQQ3BEsEPARPBD0EPQQ+BDUA--0" 382 547 basechar 0
LayerCount: 2
Fore
SplineSet
713 216 m 0,0,1
 713 150 713 150 694 98.5 c 128,-1,2
 675 47 675 47 637.5 17.5 c 128,-1,3
 600 -12 600 -12 546 -12 c 0,4,5
 484 -12 484 -12 436.5 24.5 c 128,-1,6
 389 61 389 61 372 124 c 1,7,8
 352 63 352 63 313.5 25.5 c 128,-1,9
 275 -12 275 -12 206 -12 c 0,10,11
 154 -12 154 -12 119 13 c 128,-1,12
 84 38 84 38 66 79 c 128,-1,13
 48 120 48 120 48 167 c 0,14,15
 48 232 48 232 82.5 275.5 c 128,-1,16
 117 319 117 319 177 319 c 0,17,18
 224 319 224 319 249.5 293.5 c 128,-1,19
 275 268 275 268 275 229 c 0,20,21
 275 191 275 191 251 169 c 128,-1,22
 227 147 227 147 185 141 c 1,23,-1
 178 178 l 1,24,25
 195 182 195 182 204.5 191.5 c 128,-1,26
 214 201 214 201 214 219 c 256,27,28
 214 237 214 237 202 248.5 c 128,-1,29
 190 260 190 260 166 260 c 0,30,31
 132 260 132 260 112.5 238.5 c 128,-1,32
 93 217 93 217 93 181 c 0,33,34
 93 132 93 132 125 107.5 c 128,-1,35
 157 83 157 83 217 83 c 0,36,37
 324 83 324 83 356 200 c 1,38,-1
 390 200 l 1,39,40
 401 144 401 144 439 113.5 c 128,-1,41
 477 83 477 83 532 83 c 0,42,43
 585 83 585 83 614.5 119.5 c 128,-1,44
 644 156 644 156 644 220 c 0,45,46
 644 280 644 280 621.5 334.5 c 128,-1,47
 599 389 599 389 550.5 431 c 128,-1,48
 502 473 502 473 425 496 c 1,49,50
 412 441 412 441 379 406.5 c 128,-1,51
 346 372 346 372 298 372 c 0,52,53
 242 372 242 372 203 413.5 c 128,-1,54
 164 455 164 455 153 540 c 1,55,-1
 195 556 l 1,56,57
 206 510 206 510 229 486 c 128,-1,58
 252 462 252 462 296 462 c 256,59,60
 340 462 340 462 364.5 484.5 c 128,-1,61
 389 507 389 507 399 557 c 1,62,63
 508 534 508 534 577 482.5 c 128,-1,64
 646 431 646 431 679.5 362 c 128,-1,65
 713 293 713 293 713 216 c 0,0,1
EndSplineSet
EndChar

StartChar: ai_kannada
Encoding: 3216 3216 22
Width: 751
GlyphClass: 2
Flags: W
AnchorPoint: "+BBEENQQ3BEsEPARPBD0EPQQ+BDUA--0" 375 547 basechar 0
LayerCount: 2
Fore
SplineSet
697 264 m 0,0,1
 697 193 697 193 678.5 130 c 128,-1,2
 660 67 660 67 623 28 c 128,-1,3
 586 -11 586 -11 529 -11 c 0,4,5
 466 -11 466 -11 430 25.5 c 128,-1,6
 394 62 394 62 376 125 c 1,7,8
 356 64 356 64 318 26.5 c 128,-1,9
 280 -11 280 -11 212 -11 c 0,10,11
 160 -11 160 -11 124.5 14 c 128,-1,12
 89 39 89 39 71.5 80.5 c 128,-1,13
 54 122 54 122 54 169 c 0,14,15
 54 233 54 233 88.5 277 c 128,-1,16
 123 321 123 321 183 321 c 0,17,18
 230 321 230 321 255.5 295 c 128,-1,19
 281 269 281 269 281 230 c 0,20,21
 281 192 281 192 257 170.5 c 128,-1,22
 233 149 233 149 190 143 c 1,23,-1
 184 179 l 1,24,25
 201 183 201 183 210.5 192.5 c 128,-1,26
 220 202 220 202 220 220 c 256,27,28
 220 238 220 238 208 249.5 c 128,-1,29
 196 261 196 261 171 261 c 0,30,31
 138 261 138 261 118.5 238.5 c 128,-1,32
 99 216 99 216 99 179 c 0,33,34
 99 134 99 134 129 109 c 128,-1,35
 159 84 159 84 214 84 c 0,36,37
 273 84 273 84 309 113.5 c 128,-1,38
 345 143 345 143 362 201 c 1,39,-1
 396 201 l 1,40,41
 411 149 411 149 437.5 116.5 c 128,-1,42
 464 84 464 84 520 84 c 256,43,44
 576 84 576 84 610 129.5 c 128,-1,45
 644 175 644 175 644 266 c 0,46,47
 644 362 644 362 607 414.5 c 128,-1,48
 570 467 570 467 514 467 c 0,49,50
 461 467 461 467 432.5 438.5 c 128,-1,51
 404 410 404 410 392 361 c 1,52,-1
 365 361 l 1,53,54
 352 408 352 408 319.5 437.5 c 128,-1,55
 287 467 287 467 240 467 c 0,56,57
 194 467 194 467 160.5 443.5 c 128,-1,58
 127 420 127 420 116 375 c 1,59,-1
 80 388 l 1,60,61
 87 433 87 433 107 471.5 c 128,-1,62
 127 510 127 510 159 533.5 c 128,-1,63
 191 557 191 557 235 557 c 0,64,65
 286 557 286 557 322 526.5 c 128,-1,66
 358 496 358 496 376 449 c 1,67,68
 391 496 391 496 425 526.5 c 128,-1,69
 459 557 459 557 512 557 c 0,70,71
 559 557 559 557 593.5 532.5 c 128,-1,72
 628 508 628 508 651 466.5 c 128,-1,73
 674 425 674 425 685.5 372.5 c 128,-1,74
 697 320 697 320 697 264 c 0,0,1
EndSplineSet
EndChar

StartChar: o_kannada
Encoding: 3218 3218 23
Width: 736
GlyphClass: 2
Flags: W
AnchorPoint: "+BBEENQQ3BEsEPARPBD0EPQQ+BDUA--0" 368 547 basechar 0
LayerCount: 2
Fore
SplineSet
684 176 m 0,0,1
 684 148 684 148 678 115.5 c 128,-1,2
 672 83 672 83 656 54 c 128,-1,3
 640 25 640 25 612 7 c 128,-1,4
 584 -11 584 -11 540 -11 c 0,5,6
 475 -11 475 -11 435.5 26.5 c 128,-1,7
 396 64 396 64 378 125 c 1,8,9
 355 58 355 58 315 23.5 c 128,-1,10
 275 -11 275 -11 212 -11 c 0,11,12
 148 -11 148 -11 108 28 c 128,-1,13
 68 67 68 67 68 125 c 0,14,15
 68 169 68 169 92 206.5 c 128,-1,16
 116 244 116 244 162 287 c 0,17,18
 200 322 200 322 219.5 347 c 128,-1,19
 239 372 239 372 239 405 c 0,20,21
 239 433 239 433 221 454 c 128,-1,22
 203 475 203 475 164 475 c 0,23,24
 128 475 128 475 107.5 457 c 128,-1,25
 87 439 87 439 87 407 c 0,26,27
 87 388 87 388 92.5 375 c 128,-1,28
 98 362 98 362 105 348 c 1,29,-1
 76 329 l 1,30,31
 58 350 58 350 46 377.5 c 128,-1,32
 34 405 34 405 34 439 c 0,33,34
 34 486 34 486 67.5 522 c 128,-1,35
 101 558 101 558 168 558 c 0,36,37
 237 558 237 558 268.5 520 c 128,-1,38
 300 482 300 482 300 427 c 0,39,40
 300 387 300 387 279.5 353 c 128,-1,41
 259 319 259 319 217 278 c 0,42,43
 180 242 180 242 158 213.5 c 128,-1,44
 136 185 136 185 136 155 c 0,45,46
 136 121 136 121 158.5 102.5 c 128,-1,47
 181 84 181 84 221 84 c 0,48,49
 275 84 275 84 310.5 114 c 128,-1,50
 346 144 346 144 364 201 c 1,51,-1
 397 201 l 1,52,53
 412 150 412 150 439 117 c 128,-1,54
 466 84 466 84 527 84 c 256,55,56
 588 84 588 84 613 115 c 128,-1,57
 638 146 638 146 638 185 c 0,58,59
 638 217 638 217 624 243 c 128,-1,60
 610 269 610 269 582 291 c 1,61,62
 587 307 587 307 598 316.5 c 128,-1,63
 609 326 609 326 622 326 c 0,64,65
 643 326 643 326 656.5 304 c 128,-1,66
 670 282 670 282 677 248 c 128,-1,67
 684 214 684 214 684 176 c 0,0,1
EndSplineSet
EndChar

StartChar: oo_kannada
Encoding: 3219 3219 24
Width: 736
GlyphClass: 2
Flags: W
AnchorPoint: "+BBEENQQ3BEsEPARPBD0EPQQ+BDUA--0" 368 547 basechar 0
LayerCount: 2
Fore
SplineSet
212 -11 m 256,0,1
 148 -11 148 -11 108 28 c 128,-1,2
 68 67 68 67 68 125 c 0,3,4
 68 169 68 169 92 206.5 c 128,-1,5
 116 244 116 244 162 287 c 0,6,7
 200 323 200 323 219.5 347.5 c 128,-1,8
 239 372 239 372 239 406 c 0,9,10
 239 434 239 434 221 455 c 128,-1,11
 203 476 203 476 164 476 c 0,12,13
 128 476 128 476 107.5 458 c 128,-1,14
 87 440 87 440 87 408 c 0,15,16
 87 389 87 389 92.5 375.5 c 128,-1,17
 98 362 98 362 105 348 c 1,18,-1
 76 329 l 1,19,20
 58 350 58 350 46 377 c 128,-1,21
 34 404 34 404 34 438 c 0,22,23
 34 485 34 485 67.5 521.5 c 128,-1,24
 101 558 101 558 168 558 c 0,25,26
 177 558 177 558 185 557 c 1,27,28
 154 574 154 574 133 600.5 c 128,-1,29
 112 627 112 627 112 665 c 0,30,31
 112 713 112 713 154.5 747 c 128,-1,32
 197 781 197 781 279 782 c 1,33,-1
 287 742 l 1,34,35
 246 735 246 735 220.5 711 c 128,-1,36
 195 687 195 687 195 652 c 0,37,38
 195 615 195 615 211.5 591.5 c 128,-1,39
 228 568 228 568 247 546 c 0,40,41
 267 524 267 524 283.5 499 c 128,-1,42
 300 474 300 474 300 436 c 0,43,44
 300 393 300 393 279 356.5 c 128,-1,45
 258 320 258 320 217 278 c 0,46,47
 180 241 180 241 158 213 c 128,-1,48
 136 185 136 185 136 154 c 0,49,50
 136 121 136 121 158.5 102.5 c 128,-1,51
 181 84 181 84 221 84 c 0,52,53
 275 84 275 84 310.5 114 c 128,-1,54
 346 144 346 144 364 201 c 1,55,-1
 397 201 l 1,56,57
 412 150 412 150 439 117 c 128,-1,58
 466 84 466 84 527 84 c 256,59,60
 588 84 588 84 613 115 c 128,-1,61
 638 146 638 146 638 185 c 0,62,63
 638 217 638 217 624 243 c 128,-1,64
 610 269 610 269 582 291 c 1,65,66
 587 307 587 307 598 316.5 c 128,-1,67
 609 326 609 326 622 326 c 0,68,69
 643 326 643 326 656.5 304 c 128,-1,70
 670 282 670 282 677 248 c 128,-1,71
 684 214 684 214 684 176 c 0,72,73
 684 147 684 147 678 114.5 c 128,-1,74
 672 82 672 82 656 53.5 c 128,-1,75
 640 25 640 25 612 7 c 128,-1,76
 584 -11 584 -11 540 -11 c 0,77,78
 475 -11 475 -11 435.5 26.5 c 128,-1,79
 396 64 396 64 378 125 c 1,80,81
 355 58 355 58 315.5 23.5 c 128,-1,82
 276 -11 276 -11 212 -11 c 256,0,1
EndSplineSet
EndChar

StartChar: au_kannada
Encoding: 3220 3220 25
Width: 740
GlyphClass: 2
Flags: W
AnchorPoint: "+BBEENQQ3BEsEPARPBD0EPQQ+BDUA--0" 370 547 basechar 0
LayerCount: 2
Fore
SplineSet
54 544 m 1,0,-1
 61 611 l 1,1,-1
 183 611 l 2,2,3
 217 611 217 611 236.5 622.5 c 128,-1,4
 256 634 256 634 256 660 c 0,5,6
 256 678 256 678 247 695 c 1,7,-1
 42 695 l 1,8,-1
 49 782 l 1,9,-1
 448 782 l 2,10,11
 570 782 570 782 626.5 722 c 128,-1,12
 683 662 683 662 683 567 c 0,13,14
 683 479 683 479 638.5 424.5 c 128,-1,15
 594 370 594 370 513 370 c 0,16,17
 446 370 446 370 410 410.5 c 128,-1,18
 374 451 374 451 374 509 c 0,19,20
 374 555 374 555 391.5 581.5 c 128,-1,21
 409 608 409 608 432.5 619 c 128,-1,22
 456 630 456 630 475 630 c 0,23,24
 510 630 510 630 525 615 c 128,-1,25
 540 600 540 600 540 574 c 0,26,27
 540 552 540 552 527 537 c 128,-1,28
 514 522 514 522 489 522 c 0,29,30
 470 522 470 522 456 533.5 c 128,-1,31
 442 545 442 545 442 567 c 2,32,-1
 442 571 l 1,33,34
 434 565 434 565 426 554 c 128,-1,35
 418 543 418 543 418 521 c 0,36,37
 418 488 418 488 445 470.5 c 128,-1,38
 472 453 472 453 518 453 c 0,39,40
 571 453 571 453 603.5 485 c 128,-1,41
 636 517 636 517 636 567 c 0,42,43
 636 626 636 626 597.5 660.5 c 128,-1,44
 559 695 559 695 465 695 c 2,45,-1
 287 695 l 1,46,47
 299 670 299 670 299 645 c 0,48,49
 299 607 299 607 278.5 583 c 128,-1,50
 258 559 258 559 223 549 c 1,51,52
 263 535 263 535 281.5 502.5 c 128,-1,53
 300 470 300 470 300 428 c 0,54,55
 300 387 300 387 279.5 353 c 128,-1,56
 259 319 259 319 217 278 c 0,57,58
 180 242 180 242 158 213.5 c 128,-1,59
 136 185 136 185 136 154 c 0,60,61
 136 120 136 120 158.5 101.5 c 128,-1,62
 181 83 181 83 221 83 c 0,63,64
 275 83 275 83 310.5 113.5 c 128,-1,65
 346 144 346 144 364 200 c 1,66,-1
 397 200 l 1,67,68
 412 149 412 149 439 116 c 128,-1,69
 466 83 466 83 527 83 c 256,70,71
 588 83 588 83 613 113.5 c 128,-1,72
 638 144 638 144 638 183 c 0,73,74
 638 215 638 215 624 241 c 128,-1,75
 610 267 610 267 582 289 c 1,76,77
 587 305 587 305 598 314.5 c 128,-1,78
 609 324 609 324 622 324 c 0,79,80
 643 324 643 324 656.5 302 c 128,-1,81
 670 280 670 280 677 246 c 128,-1,82
 684 212 684 212 684 174 c 0,83,84
 684 146 684 146 678 113.5 c 128,-1,85
 672 81 672 81 656 52.5 c 128,-1,86
 640 24 640 24 612 6 c 128,-1,87
 584 -12 584 -12 540 -12 c 0,88,89
 477 -12 477 -12 437.5 25.5 c 128,-1,90
 398 63 398 63 378 123 c 1,91,92
 354 57 354 57 314.5 22.5 c 128,-1,93
 275 -12 275 -12 212 -12 c 0,94,95
 148 -12 148 -12 108 27 c 128,-1,96
 68 66 68 66 68 124 c 0,97,98
 68 168 68 168 92 206 c 128,-1,99
 116 244 116 244 162 287 c 0,100,101
 200 324 200 324 219.5 349 c 128,-1,102
 239 374 239 374 239 408 c 0,103,104
 239 437 239 437 221 458.5 c 128,-1,105
 203 480 203 480 164 480 c 0,106,107
 128 480 128 480 107.5 461.5 c 128,-1,108
 87 443 87 443 87 410 c 0,109,110
 87 390 87 390 92.5 376 c 128,-1,111
 98 362 98 362 105 348 c 1,112,-1
 76 329 l 1,113,114
 58 350 58 350 46 377.5 c 128,-1,115
 34 405 34 405 34 439 c 0,116,117
 34 472 34 472 50 500.5 c 128,-1,118
 66 529 66 529 99 544 c 1,119,-1
 54 544 l 1,0,-1
EndSplineSet
EndChar

StartChar: ka_kannada
Encoding: 3221 3221 26
Width: 578
GlyphClass: 2
Flags: W
AnchorPoint: "+BBEENQQ3BEsEPARPBD0EPQQ+BDUA--2" 290 0 basechar 0
AnchorPoint: "+BBEENQQ3BEsEPARPBD0EPQQ+BDUA--0" 289 547 basechar 0
LayerCount: 2
Fore
SplineSet
287 -10 m 0,0,1
 233 -10 233 -10 191.5 12 c 128,-1,2
 150 34 150 34 127 71.5 c 128,-1,3
 104 109 104 109 104 155 c 0,4,5
 104 202 104 202 125 237.5 c 128,-1,6
 146 273 146 273 181 296 c 1,7,8
 159 295 159 295 138 294.5 c 128,-1,9
 117 294 117 294 86 294 c 2,10,-1
 59 294 l 1,11,-1
 63 361 l 1,12,-1
 255 361 l 1,13,14
 268 372 268 372 275.5 385 c 128,-1,15
 283 398 283 398 283 417 c 0,16,17
 283 430 283 430 280 441 c 128,-1,18
 277 452 277 452 272 460 c 1,19,-1
 58 460 l 1,20,-1
 64 547 l 1,21,-1
 335 547 l 2,22,23
 385 547 385 547 409 552.5 c 128,-1,24
 433 558 433 558 447 570 c 0,25,26
 470 590 470 590 470 628 c 0,27,28
 470 686 470 686 415 744 c 1,29,-1
 451 771 l 1,30,31
 485 735 485 735 503.5 693 c 128,-1,32
 522 651 522 651 522 605 c 0,33,34
 522 578 522 578 515 551.5 c 128,-1,35
 508 525 508 525 486 503 c 0,36,37
 467 484 467 484 434.5 472 c 128,-1,38
 402 460 402 460 331 460 c 2,39,-1
 328 460 l 1,40,41
 338 436 338 436 338 414 c 0,42,43
 338 399 338 399 334.5 385.5 c 128,-1,44
 331 372 331 372 326 361 c 1,45,-1
 517 361 l 1,46,-1
 517 294 l 1,47,-1
 496 294 l 2,48,49
 461 294 461 294 438.5 294.5 c 128,-1,50
 416 295 416 295 394 296 c 1,51,52
 430 273 430 273 451 237.5 c 128,-1,53
 472 202 472 202 472 155 c 0,54,55
 472 109 472 109 448.5 71.5 c 128,-1,56
 425 34 425 34 383.5 12 c 128,-1,57
 342 -10 342 -10 287 -10 c 0,0,1
287 80 m 0,58,59
 352 80 352 80 380.5 110.5 c 128,-1,60
 409 141 409 141 409 183 c 0,61,62
 409 234 409 234 375.5 264.5 c 128,-1,63
 342 295 342 295 288 295 c 0,64,65
 230 295 230 295 198.5 264 c 128,-1,66
 167 233 167 233 167 183 c 0,67,68
 167 137 167 137 198 108.5 c 128,-1,69
 229 80 229 80 287 80 c 0,58,59
EndSplineSet
Substitution2: "+BBUENAQ4BD0EOARHBD0EMARP +BD8EPgQ0BEEEQgQwBD0EPgQyBDoEMAAA lookup 44 subtable" ka_kannada.below
Ligature2: "'psts' Post Base Substitutions lookup 42 subtable" ka_kannada zerowidthjoiner
Substitution2: "+BBUENAQ4BD0EOARHBD0EMARP +BD8EPgQ0BEEEQgQwBD0EPgQyBDoEMAAA lookup 9 subtable" ka_kannada.base
EndChar

StartChar: kha_kannada
Encoding: 3222 3222 27
Width: 826
GlyphClass: 2
Flags: W
AnchorPoint: "+BBEENQQ3BEsEPARPBD0EPQQ+BDUA--2" 407 0 basechar 0
AnchorPoint: "+BBEENQQ3BEsEPARPBD0EPQQ+BDUA--0" 413 547 basechar 0
LayerCount: 2
Fore
SplineSet
190 -11 m 0,0,1
 121 -11 121 -11 80.5 24.5 c 128,-1,2
 40 60 40 60 40 123 c 0,3,4
 40 173 40 173 75 208 c 128,-1,5
 110 243 110 243 174 243 c 0,6,7
 226 243 226 243 267.5 222.5 c 128,-1,8
 309 202 309 202 354 171 c 1,9,10
 369 199 369 199 376.5 233 c 128,-1,11
 384 267 384 267 384 303 c 0,12,13
 384 392 384 392 347.5 433.5 c 128,-1,14
 311 475 311 475 252 475 c 0,15,16
 214 475 214 475 189.5 457.5 c 128,-1,17
 165 440 165 440 165 407 c 0,18,19
 165 386 165 386 172.5 374 c 128,-1,20
 180 362 180 362 189 357 c 1,21,-1
 189 360 l 2,22,23
 189 383 189 383 203 394 c 128,-1,24
 217 405 217 405 236 405 c 0,25,26
 262 405 262 405 274.5 390 c 128,-1,27
 287 375 287 375 287 353 c 0,28,29
 287 328 287 328 273.5 312.5 c 128,-1,30
 260 297 260 297 227 297 c 0,31,32
 207 297 207 297 182 308 c 128,-1,33
 157 319 157 319 138.5 345.5 c 128,-1,34
 120 372 120 372 120 418 c 0,35,36
 120 477 120 477 156 517.5 c 128,-1,37
 192 558 192 558 259 558 c 0,38,39
 319 558 319 558 357 522.5 c 128,-1,40
 395 487 395 487 413.5 429 c 128,-1,41
 432 371 432 371 432 303 c 0,42,43
 432 216 432 216 399 141 c 1,44,45
 449 110 449 110 488 98 c 128,-1,46
 527 86 527 86 574 86 c 0,47,48
 642 86 642 86 685 123.5 c 128,-1,49
 728 161 728 161 728 245 c 0,50,51
 728 322 728 322 695 384 c 128,-1,52
 662 446 662 446 602 489 c 128,-1,53
 542 532 542 532 460 552 c 1,54,55
 458 560 458 560 456.5 566.5 c 128,-1,56
 455 573 455 573 455 580 c 0,57,58
 455 600 455 600 464 612 c 128,-1,59
 473 624 473 624 489 624 c 0,60,61
 513 624 513 624 549 608.5 c 128,-1,62
 585 593 585 593 624 562.5 c 128,-1,63
 663 532 663 532 697 486 c 128,-1,64
 731 440 731 440 752.5 378.5 c 128,-1,65
 774 317 774 317 774 241 c 0,66,67
 774 124 774 124 727 56.5 c 128,-1,68
 680 -11 680 -11 582 -11 c 0,69,70
 523 -11 523 -11 475 13 c 128,-1,71
 427 37 427 37 369 85 c 1,72,73
 336 39 336 39 292 14 c 128,-1,74
 248 -11 248 -11 190 -11 c 0,0,1
103 139 m 0,75,76
 103 111 103 111 124.5 93.5 c 128,-1,77
 146 76 146 76 192 76 c 0,78,79
 234 76 234 76 266 89.5 c 128,-1,80
 298 103 298 103 321 126 c 1,81,82
 279 162 279 162 244.5 180.5 c 128,-1,83
 210 199 210 199 174 199 c 0,84,85
 137 199 137 199 120 181.5 c 128,-1,86
 103 164 103 164 103 139 c 0,75,76
EndSplineSet
Substitution2: "+BBUENAQ4BD0EOARHBD0EMARP +BD8EPgQ0BEEEQgQwBD0EPgQyBDoEMAAA lookup 44 subtable" kha_kannada.below
Ligature2: "'psts' Post Base Substitutions lookup 42 subtable" kha_kannada zerowidthjoiner
Substitution2: "+BBUENAQ4BD0EOARHBD0EMARP +BD8EPgQ0BEEEQgQwBD0EPgQyBDoEMAAA lookup 9 subtable" kha_kannada.base
EndChar

StartChar: ga_kannada
Encoding: 3223 3223 28
Width: 620
GlyphClass: 2
Flags: W
AnchorPoint: "+BBEENQQ3BEsEPARPBD0EPQQ+BDUA--2" 311 0 basechar 0
AnchorPoint: "+BBEENQQ3BEsEPARPBD0EPQQ+BDUA--0" 310 547 basechar 0
LayerCount: 2
Fore
SplineSet
60 0 m 1,0,-1
 60 114 l 2,1,2
 60 185 60 185 75.5 248.5 c 128,-1,3
 91 312 91 312 123 364 c 0,4,5
 142 393 142 393 165 417.5 c 128,-1,6
 188 442 188 442 218 460 c 1,7,-1
 60 460 l 1,8,-1
 66 547 l 1,9,-1
 375 547 l 2,10,11
 425 547 425 547 449 552.5 c 128,-1,12
 473 558 473 558 487 570 c 0,13,14
 510 590 510 590 510 628 c 0,15,16
 510 686 510 686 455 744 c 1,17,-1
 491 771 l 1,18,19
 525 735 525 735 543.5 693 c 128,-1,20
 562 651 562 651 562 605 c 0,21,22
 562 578 562 578 555 551.5 c 128,-1,23
 548 525 548 525 526 503 c 0,24,25
 509 486 509 486 482.5 474.5 c 128,-1,26
 456 463 456 463 403 461 c 1,27,28
 430 446 430 446 452 424.5 c 128,-1,29
 474 403 474 403 492 377 c 0,30,31
 530 324 530 324 546 256 c 128,-1,32
 562 188 562 188 562 117 c 2,33,-1
 562 0 l 1,34,-1
 467 0 l 1,35,-1
 467 104 l 2,36,37
 467 186 467 186 462 238.5 c 128,-1,38
 457 291 457 291 446 328 c 0,39,40
 429 388 429 388 394 424 c 128,-1,41
 359 460 359 460 312 460 c 0,42,43
 258 460 258 460 223.5 419.5 c 128,-1,44
 189 379 189 379 173 318 c 0,45,46
 164 283 164 283 159 233 c 128,-1,47
 154 183 154 183 154 111 c 2,48,-1
 154 0 l 1,49,-1
 60 0 l 1,0,-1
EndSplineSet
Ligature2: "'psts' Post Base Substitutions lookup 42 subtable" ga_kannada zerowidthjoiner
Substitution2: "+BBUENAQ4BD0EOARHBD0EMARP +BD8EPgQ0BEEEQgQwBD0EPgQyBDoEMAAA lookup 9 subtable" ga_kannada.base
EndChar

StartChar: gha_kannada
Encoding: 3224 3224 29
Width: 896
GlyphClass: 2
Flags: W
AnchorPoint: "+BBEENQQ3BEsEPARPBD0EPQQ+BDUA--2" 376 0 basechar 0
AnchorPoint: "+BBEENQQ3BEsEPARPBD0EPQQ+BDUA--0" 448 547 basechar 0
LayerCount: 2
Fore
SplineSet
60 460 m 1,0,-1
 67 547 l 1,1,-1
 498 547 l 2,2,3
 548 547 548 547 572 552.5 c 128,-1,4
 596 558 596 558 610 570 c 0,5,6
 633 590 633 590 633 628 c 0,7,8
 633 686 633 686 578 744 c 1,9,-1
 614 771 l 1,10,11
 648 735 648 735 666.5 693 c 128,-1,12
 685 651 685 651 685 605 c 0,13,14
 685 578 685 578 678.5 551 c 128,-1,15
 672 524 672 524 649 503 c 0,16,17
 636 491 636 491 618 481 c 128,-1,18
 600 471 600 471 571 465.5 c 128,-1,19
 542 460 542 460 494 460 c 2,20,-1
 60 460 l 1,0,-1
212 -11 m 0,21,22
 160 -11 160 -11 124.5 14 c 128,-1,23
 89 39 89 39 71.5 80 c 128,-1,24
 54 121 54 121 54 168 c 0,25,26
 54 232 54 232 88.5 275.5 c 128,-1,27
 123 319 123 319 183 319 c 0,28,29
 230 319 230 319 255.5 293.5 c 128,-1,30
 281 268 281 268 281 229 c 0,31,32
 281 191 281 191 257 169 c 128,-1,33
 233 147 233 147 190 141 c 1,34,-1
 184 178 l 1,35,36
 220 186 220 186 220 219 c 0,37,38
 220 237 220 237 208 248.5 c 128,-1,39
 196 260 196 260 171 260 c 0,40,41
 138 260 138 260 118.5 238.5 c 128,-1,42
 99 217 99 217 99 182 c 0,43,44
 99 133 99 133 131 108.5 c 128,-1,45
 163 84 163 84 223 84 c 0,46,47
 330 84 330 84 362 200 c 1,48,-1
 396 200 l 1,49,50
 411 150 411 150 439.5 117 c 128,-1,51
 468 84 468 84 529 84 c 0,52,53
 584 84 584 84 611 118 c 128,-1,54
 638 152 638 152 638 206 c 0,55,56
 638 255 638 255 619.5 288.5 c 128,-1,57
 601 322 601 322 565 363 c 1,58,-1
 604 397 l 1,59,60
 639 356 639 356 670 331.5 c 128,-1,61
 701 307 701 307 741 307 c 0,62,63
 773 307 773 307 790.5 325 c 128,-1,64
 808 343 808 343 808 371 c 0,65,66
 808 445 808 445 724 456 c 1,67,68
 727 475 727 475 736.5 488 c 128,-1,69
 746 501 746 501 762 501 c 0,70,71
 784 501 784 501 804.5 481 c 128,-1,72
 825 461 825 461 838.5 429 c 128,-1,73
 852 397 852 397 852 359 c 0,74,75
 852 303 852 303 823 269 c 128,-1,76
 794 235 794 235 743 235 c 0,77,78
 711 235 711 235 679 250 c 1,79,80
 682 239 682 239 683.5 228 c 128,-1,81
 685 217 685 217 685 205 c 0,82,83
 685 171 685 171 678.5 133.5 c 128,-1,84
 672 96 672 96 655.5 63 c 128,-1,85
 639 30 639 30 609.5 9.5 c 128,-1,86
 580 -11 580 -11 534 -11 c 0,87,88
 472 -11 472 -11 433.5 26.5 c 128,-1,89
 395 64 395 64 376 124 c 1,90,91
 356 63 356 63 318.5 26 c 128,-1,92
 281 -11 281 -11 212 -11 c 0,21,22
381 304 m 0,93,94
 356 304 356 304 340 320 c 128,-1,95
 324 336 324 336 324 360 c 256,96,97
 324 384 324 384 340 400 c 128,-1,98
 356 416 356 416 381 416 c 0,99,100
 407 416 407 416 422.5 400 c 128,-1,101
 438 384 438 384 438 360 c 256,102,103
 438 336 438 336 422.5 320 c 128,-1,104
 407 304 407 304 381 304 c 0,93,94
376 -196 m 256,105,106
 353 -196 353 -196 340 -187 c 128,-1,107
 327 -178 327 -178 327 -156 c 0,108,109
 327 -141 327 -141 332.5 -115.5 c 128,-1,110
 338 -90 338 -90 346 -61.5 c 128,-1,111
 354 -33 354 -33 362 -9 c 1,112,-1
 390 -9 l 1,113,114
 399 -32 399 -32 407 -60 c 128,-1,115
 415 -88 415 -88 420 -113.5 c 128,-1,116
 425 -139 425 -139 425 -156 c 0,117,118
 425 -178 425 -178 412 -187 c 128,-1,119
 399 -196 399 -196 376 -196 c 256,105,106
EndSplineSet
Ligature2: "'psts' Post Base Substitutions lookup 42 subtable" gha_kannada zerowidthjoiner
Substitution2: "+BBUENAQ4BD0EOARHBD0EMARP +BD8EPgQ0BEEEQgQwBD0EPgQyBDoEMAAA lookup 9 subtable" gha_kannada.base
EndChar

StartChar: nga_kannada
Encoding: 3225 3225 30
Width: 738
GlyphClass: 2
Flags: W
AnchorPoint: "+BBEENQQ3BEsEPARPBD0EPQQ+BDUA--2" 381 0 basechar 0
AnchorPoint: "+BBEENQQ3BEsEPARPBD0EPQQ+BDUA--0" 369 547 basechar 0
LayerCount: 2
Fore
SplineSet
686 191 m 0,0,1
 686 134 686 134 670.5 88 c 128,-1,2
 655 42 655 42 622.5 15.5 c 128,-1,3
 590 -11 590 -11 537 -11 c 0,4,5
 476 -11 476 -11 435.5 26.5 c 128,-1,6
 395 64 395 64 378 124 c 1,7,8
 355 58 355 58 315 23.5 c 128,-1,9
 275 -11 275 -11 212 -11 c 0,10,11
 148 -11 148 -11 108 28 c 128,-1,12
 68 67 68 67 68 125 c 0,13,14
 68 163 68 163 88 196 c 128,-1,15
 108 229 108 229 145 266 c 2,16,-1
 202 325 l 2,17,18
 220 344 220 344 229.5 363.5 c 128,-1,19
 239 383 239 383 239 405 c 0,20,21
 239 433 239 433 221 454 c 128,-1,22
 203 475 203 475 164 475 c 0,23,24
 128 475 128 475 107.5 457 c 128,-1,25
 87 439 87 439 87 407 c 0,26,27
 87 388 87 388 92.5 375 c 128,-1,28
 98 362 98 362 105 348 c 1,29,-1
 76 329 l 1,30,31
 58 350 58 350 46 377.5 c 128,-1,32
 34 405 34 405 34 439 c 0,33,34
 34 486 34 486 67.5 522 c 128,-1,35
 101 558 101 558 168 558 c 0,36,37
 237 558 237 558 268.5 519.5 c 128,-1,38
 300 481 300 481 300 426 c 0,39,40
 300 421 300 421 300 418 c 1,41,-1
 337 455 l 2,42,43
 382 500 382 500 424.5 529.5 c 128,-1,44
 467 559 467 559 521 559 c 256,45,46
 575 559 575 559 603.5 530.5 c 128,-1,47
 632 502 632 502 632 467 c 0,48,49
 632 442 632 442 618 423.5 c 128,-1,50
 604 405 604 405 579 399 c 1,51,52
 573 430 573 430 549 453 c 128,-1,53
 525 476 525 476 483 476 c 0,54,55
 444 476 444 476 413 457.5 c 128,-1,56
 382 439 382 439 347 404 c 2,57,-1
 176 234 l 2,58,59
 136 195 136 195 136 155 c 0,60,61
 136 121 136 121 158.5 102.5 c 128,-1,62
 181 84 181 84 221 84 c 0,63,64
 275 84 275 84 310.5 114 c 128,-1,65
 346 144 346 144 364 201 c 1,66,-1
 397 201 l 1,67,68
 413 144 413 144 444.5 114 c 128,-1,69
 476 84 476 84 531 84 c 0,70,71
 587 84 587 84 612.5 115.5 c 128,-1,72
 638 147 638 147 638 193 c 0,73,74
 638 231 638 231 624 263.5 c 128,-1,75
 610 296 610 296 581 313 c 1,76,77
 586 328 586 328 596.5 338 c 128,-1,78
 607 348 607 348 620 348 c 0,79,80
 642 348 642 348 656.5 324.5 c 128,-1,81
 671 301 671 301 678.5 265 c 128,-1,82
 686 229 686 229 686 191 c 0,0,1
435 301 m 0,83,84
 435 279 435 279 420.5 263.5 c 128,-1,85
 406 248 406 248 380 248 c 0,86,87
 356 248 356 248 341 263.5 c 128,-1,88
 326 279 326 279 326 301 c 0,89,90
 326 324 326 324 341 339.5 c 128,-1,91
 356 355 356 355 380 355 c 0,92,93
 405 355 405 355 420 339.5 c 128,-1,94
 435 324 435 324 435 301 c 0,83,84
EndSplineSet
Ligature2: "'psts' Post Base Substitutions lookup 42 subtable" nga_kannada zerowidthjoiner
Substitution2: "+BBUENAQ4BD0EOARHBD0EMARP +BD8EPgQ0BEEEQgQwBD0EPgQyBDoEMAAA lookup 9 subtable" nga_kannada.base
EndChar

StartChar: ca_kannada
Encoding: 3226 3226 31
Width: 772
GlyphClass: 2
Flags: W
AnchorPoint: "+BBEENQQ3BEsEPARPBD0EPQQ+BDUA--2" 381 0 basechar 0
AnchorPoint: "+BBEENQQ3BEsEPARPBD0EPQQ+BDUA--0" 386 547 basechar 0
LayerCount: 2
Fore
SplineSet
212 -11 m 0,0,1
 148 -11 148 -11 108 27.5 c 128,-1,2
 68 66 68 66 68 124 c 0,3,4
 68 168 68 168 92 206 c 128,-1,5
 116 244 116 244 162 287 c 0,6,7
 200 322 200 322 219.5 347 c 128,-1,8
 239 372 239 372 239 405 c 0,9,10
 239 433 239 433 221 454 c 128,-1,11
 203 475 203 475 164 475 c 0,12,13
 128 475 128 475 107.5 457 c 128,-1,14
 87 439 87 439 87 407 c 0,15,16
 87 388 87 388 92.5 375 c 128,-1,17
 98 362 98 362 105 348 c 1,18,-1
 76 329 l 1,19,20
 58 350 58 350 46 377.5 c 128,-1,21
 34 405 34 405 34 439 c 0,22,23
 34 486 34 486 67.5 522 c 128,-1,24
 101 558 101 558 168 558 c 0,25,26
 237 558 237 558 268.5 520 c 128,-1,27
 300 482 300 482 300 427 c 0,28,29
 300 387 300 387 279.5 353 c 128,-1,30
 259 319 259 319 217 278 c 0,31,32
 180 242 180 242 158 213.5 c 128,-1,33
 136 185 136 185 136 154 c 0,34,35
 136 120 136 120 158.5 102 c 128,-1,36
 181 84 181 84 221 84 c 0,37,38
 275 84 275 84 310.5 114 c 128,-1,39
 346 144 346 144 364 201 c 1,40,-1
 397 201 l 1,41,42
 412 150 412 150 439 117 c 128,-1,43
 466 84 466 84 520 84 c 0,44,45
 568 84 568 84 592.5 111 c 128,-1,46
 617 138 617 138 617 181 c 0,47,48
 617 228 617 228 585 264.5 c 128,-1,49
 553 301 553 301 486 301 c 2,50,-1
 422 301 l 1,51,-1
 426 369 l 1,52,-1
 521 369 l 1,53,54
 545 385 545 385 545 417 c 0,55,56
 545 431 545 431 540.5 442 c 128,-1,57
 536 453 536 453 530 460 c 1,58,-1
 523 460 l 1,59,-1
 420 460 l 1,60,-1
 427 547 l 1,61,-1
 527 547 l 2,62,63
 577 547 577 547 601 552.5 c 128,-1,64
 625 558 625 558 639 570 c 0,65,66
 662 590 662 590 662 628 c 0,67,68
 662 686 662 686 607 744 c 1,69,-1
 643 771 l 1,70,71
 677 735 677 735 695.5 693 c 128,-1,72
 714 651 714 651 714 605 c 0,73,74
 714 578 714 578 707 551.5 c 128,-1,75
 700 525 700 525 678 503 c 0,76,77
 664 489 664 489 643.5 478.5 c 128,-1,78
 623 468 623 468 586 463 c 1,79,80
 601 440 601 440 601 416 c 0,81,82
 601 389 601 389 586 369 c 1,83,-1
 710 369 l 1,84,-1
 710 301 l 1,85,-1
 609 301 l 1,86,87
 647 274 647 274 666 234 c 128,-1,88
 685 194 685 194 685 148 c 0,89,90
 685 108 685 108 669 71.5 c 128,-1,91
 653 35 653 35 621 12 c 128,-1,92
 589 -11 589 -11 540 -11 c 0,93,94
 476 -11 476 -11 436.5 25.5 c 128,-1,95
 397 62 397 62 378 125 c 1,96,97
 355 58 355 58 315 23.5 c 128,-1,98
 275 -11 275 -11 212 -11 c 0,0,1
EndSplineSet
Ligature2: "'psts' Post Base Substitutions lookup 42 subtable" ca_kannada zerowidthjoiner
Substitution2: "+BBUENAQ4BD0EOARHBD0EMARP +BD8EPgQ0BEEEQgQwBD0EPgQyBDoEMAAA lookup 9 subtable" ca_kannada.base
EndChar

StartChar: cha_kannada
Encoding: 3227 3227 32
Width: 801
GlyphClass: 2
Flags: W
AnchorPoint: "+BBEENQQ3BEsEPARPBD0EPQQ+BDUA--2" 409 0 basechar 0
AnchorPoint: "+BBEENQQ3BEsEPARPBD0EPQQ+BDUA--0" 400 547 basechar 0
LayerCount: 2
Fore
SplineSet
243 -12 m 0,0,1
 158 -12 158 -12 105 54 c 128,-1,2
 52 120 52 120 52 240 c 0,3,4
 52 334 52 334 78.5 406 c 128,-1,5
 105 478 105 478 151 518.5 c 128,-1,6
 197 559 197 559 255 559 c 0,7,8
 296 559 296 559 322 539.5 c 128,-1,9
 348 520 348 520 360.5 488.5 c 128,-1,10
 373 457 373 457 373 419 c 0,11,12
 373 357 373 357 344.5 319 c 128,-1,13
 316 281 316 281 260 281 c 0,14,15
 205 281 205 281 176 316.5 c 128,-1,16
 147 352 147 352 147 412 c 0,17,18
 147 435 147 435 152 452 c 1,19,20
 126 420 126 420 112.5 371 c 128,-1,21
 99 322 99 322 99 261 c 0,22,23
 99 173 99 173 138 128 c 128,-1,24
 177 83 177 83 247 83 c 0,25,26
 307 83 307 83 341.5 111.5 c 128,-1,27
 376 140 376 140 392 200 c 1,28,-1
 426 200 l 1,29,30
 441 148 441 148 472 115.5 c 128,-1,31
 503 83 503 83 561 83 c 0,32,33
 617 83 617 83 651 118.5 c 128,-1,34
 685 154 685 154 685 222 c 0,35,36
 685 289 685 289 657 341 c 128,-1,37
 629 393 629 393 581 424 c 128,-1,38
 533 455 533 455 474 460 c 1,39,-1
 434 460 l 1,40,-1
 441 547 l 1,41,-1
 560 547 l 2,42,43
 610 547 610 547 634 552.5 c 128,-1,44
 658 558 658 558 672 570 c 0,45,46
 695 590 695 590 695 628 c 0,47,48
 695 686 695 686 640 744 c 1,49,-1
 676 771 l 1,50,51
 710 735 710 735 728.5 693 c 128,-1,52
 747 651 747 651 747 605 c 0,53,54
 747 578 747 578 740.5 551 c 128,-1,55
 734 524 734 524 711 503 c 0,56,57
 694 487 694 487 668 475.5 c 128,-1,58
 642 464 642 464 590 461 c 1,59,60
 640 438 640 438 675 397.5 c 128,-1,61
 710 357 710 357 728.5 308.5 c 128,-1,62
 747 260 747 260 747 213 c 0,63,64
 747 154 747 154 730.5 102.5 c 128,-1,65
 714 51 714 51 676 19.5 c 128,-1,66
 638 -12 638 -12 574 -12 c 0,67,68
 508 -12 508 -12 467 26 c 128,-1,69
 426 64 426 64 407 125 c 1,70,71
 387 65 387 65 351 26.5 c 128,-1,72
 315 -12 315 -12 243 -12 c 0,0,1
258 355 m 0,73,74
 296 355 296 355 312.5 373.5 c 128,-1,75
 329 392 329 392 329 419 c 0,76,77
 329 444 329 444 312 463 c 128,-1,78
 295 482 295 482 259 482 c 0,79,80
 224 482 224 482 205.5 464 c 128,-1,81
 187 446 187 446 187 419 c 0,82,83
 187 390 187 390 205.5 372.5 c 128,-1,84
 224 355 224 355 258 355 c 0,73,74
410 -193 m 0,85,86
 386 -193 386 -193 373 -183.5 c 128,-1,87
 360 -174 360 -174 360 -152 c 0,88,89
 360 -137 360 -137 365 -112 c 128,-1,90
 370 -87 370 -87 378.5 -58.5 c 128,-1,91
 387 -30 387 -30 395 -6 c 1,92,-1
 423 -6 l 1,93,94
 431 -29 431 -29 439 -57 c 128,-1,95
 447 -85 447 -85 452.5 -110 c 128,-1,96
 458 -135 458 -135 458 -152 c 0,97,98
 458 -174 458 -174 445.5 -183.5 c 128,-1,99
 433 -193 433 -193 410 -193 c 0,85,86
EndSplineSet
Ligature2: "'psts' Post Base Substitutions lookup 42 subtable" cha_kannada zerowidthjoiner
Substitution2: "+BBUENAQ4BD0EOARHBD0EMARP +BD8EPgQ0BEEEQgQwBD0EPgQyBDoEMAAA lookup 9 subtable" cha_kannada.base
EndChar

StartChar: ja_kannada
Encoding: 3228 3228 33
Width: 736
GlyphClass: 2
Flags: W
AnchorPoint: "+BBEENQQ3BEsEPARPBD0EPQQ+BDUA--2" 381 0 basechar 0
AnchorPoint: "+BBEENQQ3BEsEPARPBD0EPQQ+BDUA--0" 368 547 basechar 0
LayerCount: 2
Fore
SplineSet
684 175 m 0,0,1
 684 147 684 147 678 114.5 c 128,-1,2
 672 82 672 82 656 53.5 c 128,-1,3
 640 25 640 25 612 7 c 128,-1,4
 584 -11 584 -11 540 -11 c 0,5,6
 475 -11 475 -11 435.5 26.5 c 128,-1,7
 396 64 396 64 378 125 c 1,8,9
 355 58 355 58 315.5 23.5 c 128,-1,10
 276 -11 276 -11 212 -11 c 256,11,12
 148 -11 148 -11 108 28 c 128,-1,13
 68 67 68 67 68 125 c 0,14,15
 68 169 68 169 92 206.5 c 128,-1,16
 116 244 116 244 162 287 c 0,17,18
 200 322 200 322 219.5 347 c 128,-1,19
 239 372 239 372 239 405 c 0,20,21
 239 433 239 433 221 454 c 128,-1,22
 203 475 203 475 164 475 c 0,23,24
 128 475 128 475 107.5 457 c 128,-1,25
 87 439 87 439 87 407 c 0,26,27
 87 388 87 388 92.5 374.5 c 128,-1,28
 98 361 98 361 105 348 c 1,29,-1
 76 329 l 1,30,31
 58 350 58 350 46 377 c 128,-1,32
 34 404 34 404 34 438 c 0,33,34
 34 485 34 485 67.5 521.5 c 128,-1,35
 101 558 101 558 168 558 c 0,36,37
 208 558 208 558 238.5 542 c 128,-1,38
 269 526 269 526 296 502 c 128,-1,39
 323 478 323 478 350 454 c 128,-1,40
 377 430 377 430 408.5 414 c 128,-1,41
 440 398 440 398 482 398 c 0,42,43
 516 398 516 398 536 412.5 c 128,-1,44
 556 427 556 427 556 452 c 0,45,46
 556 475 556 475 538.5 492 c 128,-1,47
 521 509 521 509 480 516 c 1,48,49
 490 558 490 558 523 558 c 0,50,51
 546 558 546 558 563.5 540 c 128,-1,52
 581 522 581 522 591 493.5 c 128,-1,53
 601 465 601 465 601 432 c 0,54,55
 601 379 601 379 574 348.5 c 128,-1,56
 547 318 547 318 498 318 c 0,57,58
 444 318 444 318 396.5 350.5 c 128,-1,59
 349 383 349 383 304 435 c 1,60,61
 302 387 302 387 281 353 c 128,-1,62
 260 319 260 319 217 278 c 0,63,64
 180 242 180 242 158 213.5 c 128,-1,65
 136 185 136 185 136 154 c 0,66,67
 136 120 136 120 158.5 102 c 128,-1,68
 181 84 181 84 221 84 c 0,69,70
 275 84 275 84 310.5 114 c 128,-1,71
 346 144 346 144 364 201 c 1,72,-1
 397 201 l 1,73,74
 407 168 407 168 422 141.5 c 128,-1,75
 437 115 437 115 462 99.5 c 128,-1,76
 487 84 487 84 527 84 c 0,77,78
 588 84 588 84 613 114.5 c 128,-1,79
 638 145 638 145 638 185 c 0,80,81
 638 217 638 217 624 243 c 128,-1,82
 610 269 610 269 582 291 c 1,83,84
 587 307 587 307 598 316.5 c 128,-1,85
 609 326 609 326 622 326 c 0,86,87
 643 326 643 326 656.5 304 c 128,-1,88
 670 282 670 282 677 247.5 c 128,-1,89
 684 213 684 213 684 175 c 0,0,1
EndSplineSet
Ligature2: "'psts' Post Base Substitutions lookup 42 subtable" ja_kannada zerowidthjoiner
Substitution2: "+BBUENAQ4BD0EOARHBD0EMARP +BD8EPgQ0BEEEQgQwBD0EPgQyBDoEMAAA lookup 9 subtable" ja_kannada.base
EndChar

StartChar: jha_kannada
Encoding: 3229 3229 34
Width: 1260
GlyphClass: 2
Flags: W
AnchorPoint: "+BBEENQQ3BEsEPARPBD0EPQQ+BDUA--2" 541 0 basechar 0
AnchorPoint: "+BBEENQQ3BEsEPARPBD0EPQQ+BDUA--0" 630 547 basechar 0
LayerCount: 2
Fore
SplineSet
316 -11 m 0,0,1
 235 -11 235 -11 176.5 22 c 128,-1,2
 118 55 118 55 86 111.5 c 128,-1,3
 54 168 54 168 54 240 c 0,4,5
 54 317 54 317 88 372.5 c 128,-1,6
 122 428 122 428 182 460 c 1,7,-1
 59 460 l 1,8,-1
 66 547 l 1,9,-1
 388 547 l 2,10,11
 438 547 438 547 462 552.5 c 128,-1,12
 486 558 486 558 500 570 c 0,13,14
 523 590 523 590 523 628 c 0,15,16
 523 686 523 686 468 744 c 1,17,-1
 504 771 l 1,18,19
 538 735 538 735 556.5 693 c 128,-1,20
 575 651 575 651 575 605 c 0,21,22
 575 578 575 578 568 551.5 c 128,-1,23
 561 525 561 525 539 503 c 0,24,25
 524 488 524 488 503 477.5 c 128,-1,26
 482 467 482 467 442 463 c 1,27,28
 504 431 504 431 539.5 374.5 c 128,-1,29
 575 318 575 318 575 240 c 0,30,31
 575 193 575 193 560 151 c 1,32,33
 585 123 585 123 619.5 104 c 128,-1,34
 654 85 654 85 704 85 c 0,35,36
 751 85 751 85 779.5 104.5 c 128,-1,37
 808 124 808 124 821 155.5 c 128,-1,38
 834 187 834 187 834 223 c 0,39,40
 834 310 834 310 786 357.5 c 128,-1,41
 738 405 738 405 652 433 c 1,42,43
 651 439 651 439 649 449.5 c 128,-1,44
 647 460 647 460 647 470 c 0,45,46
 647 490 647 490 655 505.5 c 128,-1,47
 663 521 663 521 681 521 c 0,48,49
 705 521 705 521 739 498 c 128,-1,50
 773 475 773 475 805 434 c 128,-1,51
 837 393 837 393 858.5 338 c 128,-1,52
 880 283 880 283 880 219 c 0,53,54
 880 190 880 190 876 164 c 1,55,56
 903 132 903 132 939 108.5 c 128,-1,57
 975 85 975 85 1031 85 c 0,58,59
 1078 85 1078 85 1107 104.5 c 128,-1,60
 1136 124 1136 124 1149 155.5 c 128,-1,61
 1162 187 1162 187 1162 223 c 0,62,63
 1162 310 1162 310 1113 357.5 c 128,-1,64
 1064 405 1064 405 979 433 c 1,65,66
 978 439 978 439 976 449.5 c 128,-1,67
 974 460 974 460 974 470 c 0,68,69
 974 490 974 490 982 505.5 c 128,-1,70
 990 521 990 521 1008 521 c 0,71,72
 1032 521 1032 521 1066 498 c 128,-1,73
 1100 475 1100 475 1132.5 434 c 128,-1,74
 1165 393 1165 393 1186.5 338 c 128,-1,75
 1208 283 1208 283 1208 219 c 0,76,77
 1208 156 1208 156 1189 104 c 128,-1,78
 1170 52 1170 52 1131.5 21 c 128,-1,79
 1093 -10 1093 -10 1034 -10 c 0,80,81
 976 -10 976 -10 936 21.5 c 128,-1,82
 896 53 896 53 862 104 c 1,83,84
 843 53 843 53 804.5 21.5 c 128,-1,85
 766 -10 766 -10 707 -10 c 0,86,87
 650 -10 650 -10 610 21 c 128,-1,88
 570 52 570 52 537 102 c 1,89,90
 505 51 505 51 449 20 c 128,-1,91
 393 -11 393 -11 316 -11 c 0,0,1
315 84 m 256,92,93
 378 84 378 84 421 109.5 c 128,-1,94
 464 135 464 135 485.5 177.5 c 128,-1,95
 507 220 507 220 507 271 c 0,96,97
 507 324 507 324 482 367 c 128,-1,98
 457 410 457 410 414 435.5 c 128,-1,99
 371 461 371 461 315 461 c 0,100,101
 260 461 260 461 216.5 435 c 128,-1,102
 173 409 173 409 148 366 c 128,-1,103
 123 323 123 323 123 271 c 0,104,105
 123 221 123 221 145 178.5 c 128,-1,106
 167 136 167 136 209.5 110 c 128,-1,107
 252 84 252 84 315 84 c 256,92,93
867 -193 m 0,108,109
 843 -193 843 -193 830 -184 c 128,-1,110
 817 -175 817 -175 817 -153 c 0,111,112
 817 -138 817 -138 822.5 -113 c 128,-1,113
 828 -88 828 -88 836.5 -59 c 128,-1,114
 845 -30 845 -30 853 -6 c 1,115,-1
 880 -6 l 1,116,117
 888 -29 888 -29 896 -57 c 128,-1,118
 904 -85 904 -85 909.5 -110.5 c 128,-1,119
 915 -136 915 -136 915 -153 c 0,120,121
 915 -175 915 -175 902.5 -184 c 128,-1,122
 890 -193 890 -193 867 -193 c 0,108,109
EndSplineSet
Ligature2: "'psts' Post Base Substitutions lookup 42 subtable" jha_kannada zerowidthjoiner
Substitution2: "+BBUENAQ4BD0EOARHBD0EMARP +BD8EPgQ0BEEEQgQwBD0EPgQyBDoEMAAA lookup 9 subtable" jha_kannada.base
EndChar

StartChar: nya_kannada
Encoding: 3230 3230 35
Width: 920
GlyphClass: 2
Flags: W
AnchorPoint: "+BBEENQQ3BEsEPARPBD0EPQQ+BDUA--2" 440 -100 basechar 0
AnchorPoint: "+BBEENQQ3BEsEPARPBD0EPQQ+BDUA--0" 460 547 basechar 0
LayerCount: 2
Fore
SplineSet
634 -59 m 0,0,1
 634 -100 634 -100 616.5 -123 c 128,-1,2
 599 -146 599 -146 570 -146 c 0,3,4
 543 -146 543 -146 528 -129 c 128,-1,5
 513 -112 513 -112 513 -88 c 1,6,7
 539 -77 539 -77 552.5 -57 c 128,-1,8
 566 -37 566 -37 566 -5 c 0,9,10
 566 44 566 44 539 91 c 1,11,12
 497 43 497 43 441.5 15.5 c 128,-1,13
 386 -12 386 -12 325 -12 c 0,14,15
 244 -12 244 -12 197 28.5 c 128,-1,16
 150 69 150 69 150 129 c 0,17,18
 150 187 150 187 195.5 224.5 c 128,-1,19
 241 262 241 262 317 262 c 0,20,21
 380 262 380 262 433 237 c 128,-1,22
 486 212 486 212 526 173 c 1,23,24
 552 204 552 204 566 242 c 128,-1,25
 580 280 580 280 580 323 c 0,26,27
 580 388 580 388 550 428.5 c 128,-1,28
 520 469 520 469 461 469 c 0,29,30
 413 469 413 469 384 440.5 c 128,-1,31
 355 412 355 412 355 364 c 1,32,-1
 305 364 l 1,33,34
 305 411 305 411 277 440 c 128,-1,35
 249 469 249 469 197 469 c 0,36,37
 148 469 148 469 121.5 445.5 c 128,-1,38
 95 422 95 422 95 387 c 0,39,40
 95 364 95 364 103.5 346 c 128,-1,41
 112 328 112 328 129 309 c 1,42,-1
 102 286 l 1,43,44
 74 313 74 313 59 345.5 c 128,-1,45
 44 378 44 378 44 420 c 0,46,47
 44 480 44 480 85.5 519.5 c 128,-1,48
 127 559 127 559 191 559 c 0,49,50
 244 559 244 559 279 533 c 128,-1,51
 314 507 314 507 330 464 c 1,52,53
 343 509 343 509 378.5 534 c 128,-1,54
 414 559 414 559 462 559 c 0,55,56
 514 559 514 559 548.5 533.5 c 128,-1,57
 583 508 583 508 602 467 c 1,58,59
 618 508 618 508 652 533 c 128,-1,60
 686 558 686 558 737 558 c 0,61,62
 800 558 800 558 840 518.5 c 128,-1,63
 880 479 880 479 880 419 c 0,64,65
 880 377 880 377 865 344.5 c 128,-1,66
 850 312 850 312 822 285 c 1,67,-1
 795 308 l 1,68,69
 812 327 812 327 821 345 c 128,-1,70
 830 363 830 363 830 386 c 0,71,72
 830 421 830 421 804.5 444.5 c 128,-1,73
 779 468 779 468 731 468 c 0,74,75
 681 468 681 468 653.5 439 c 128,-1,76
 626 410 626 410 626 363 c 1,77,-1
 625 363 l 1,78,79
 626 350 626 350 626 337 c 0,80,81
 626 277 626 277 610 223.5 c 128,-1,82
 594 170 594 170 566 127 c 1,83,84
 599 83 599 83 616.5 33.5 c 128,-1,85
 634 -16 634 -16 634 -59 c 0,0,1
209 150 m 0,86,87
 209 121 209 121 236.5 102 c 128,-1,88
 264 83 264 83 320 83 c 0,89,90
 373 83 373 83 418.5 99.5 c 128,-1,91
 464 116 464 116 498 144 c 1,92,93
 464 177 464 177 418 197.5 c 128,-1,94
 372 218 372 218 318 218 c 0,95,96
 266 218 266 218 237.5 200 c 128,-1,97
 209 182 209 182 209 150 c 0,86,87
EndSplineSet
Ligature2: "'psts' Post Base Substitutions lookup 42 subtable" nya_kannada zerowidthjoiner
Substitution2: "+BBUENAQ4BD0EOARHBD0EMARP +BD8EPgQ0BEEEQgQwBD0EPgQyBDoEMAAA lookup 9 subtable" nya_kannada.base
EndChar

StartChar: tta_kannada
Encoding: 3231 3231 36
Width: 803
GlyphClass: 2
Flags: W
AnchorPoint: "+BBEENQQ3BEsEPARPBD0EPQQ+BDUA--2" 411 0 basechar 0
AnchorPoint: "+BBEENQQ3BEsEPARPBD0EPQQ+BDUA--0" 401 547 basechar 0
LayerCount: 2
Fore
SplineSet
245 -12 m 0,0,1
 161 -12 161 -12 107.5 48.5 c 128,-1,2
 54 109 54 109 54 218 c 0,3,4
 54 301 54 301 78 365.5 c 128,-1,5
 102 430 102 430 143.5 469 c 128,-1,6
 185 508 185 508 238 514 c 1,7,8
 196 533 196 533 166.5 564.5 c 128,-1,9
 137 596 137 596 137 641 c 0,10,11
 137 693 137 693 179.5 729.5 c 128,-1,12
 222 766 222 766 304 767 c 1,13,-1
 312 727 l 1,14,15
 269 720 269 720 244.5 693 c 128,-1,16
 220 666 220 666 220 628 c 0,17,18
 220 599 220 599 232 579.5 c 128,-1,19
 244 560 244 560 264.5 543.5 c 128,-1,20
 285 527 285 527 310 507 c 0,21,22
 348 478 348 478 361.5 448 c 128,-1,23
 375 418 375 418 375 376 c 0,24,25
 375 318 375 318 346.5 282 c 128,-1,26
 318 246 318 246 262 246 c 0,27,28
 207 246 207 246 177.5 280.5 c 128,-1,29
 148 315 148 315 148 373 c 0,30,31
 148 386 148 386 150 397 c 1,32,33
 129 370 129 370 117 332.5 c 128,-1,34
 105 295 105 295 105 248 c 0,35,36
 105 166 105 166 143.5 124.5 c 128,-1,37
 182 83 182 83 249 83 c 0,38,39
 309 83 309 83 343.5 111.5 c 128,-1,40
 378 140 378 140 394 200 c 1,41,-1
 428 200 l 1,42,43
 443 148 443 148 474 115.5 c 128,-1,44
 505 83 505 83 563 83 c 0,45,46
 619 83 619 83 653 118.5 c 128,-1,47
 687 154 687 154 687 221 c 0,48,49
 687 305 687 305 642.5 364.5 c 128,-1,50
 598 424 598 424 528 446 c 1,51,-1
 534 481 l 1,52,53
 572 497 572 497 593 529.5 c 128,-1,54
 614 562 614 562 614 599 c 0,55,56
 614 648 614 648 588 682.5 c 128,-1,57
 562 717 562 717 518 727 c 1,58,-1
 526 767 l 1,59,60
 586 767 586 767 624 743 c 128,-1,61
 662 719 662 719 679.5 683.5 c 128,-1,62
 697 648 697 648 697 611 c 0,63,64
 697 560 697 560 664.5 519.5 c 128,-1,65
 632 479 632 479 589 461 c 1,66,67
 635 440 635 440 671.5 401.5 c 128,-1,68
 708 363 708 363 728.5 313.5 c 128,-1,69
 749 264 749 264 749 211 c 0,70,71
 749 153 749 153 732.5 102 c 128,-1,72
 716 51 716 51 678 19.5 c 128,-1,73
 640 -12 640 -12 576 -12 c 0,74,75
 510 -12 510 -12 469 26 c 128,-1,76
 428 64 428 64 409 125 c 1,77,78
 389 65 389 65 353 26.5 c 128,-1,79
 317 -12 317 -12 245 -12 c 0,0,1
260 321 m 0,80,81
 298 321 298 321 314.5 338 c 128,-1,82
 331 355 331 355 331 380 c 0,83,84
 331 403 331 403 314 421 c 128,-1,85
 297 439 297 439 261 439 c 0,86,87
 226 439 226 439 207.5 422.5 c 128,-1,88
 189 406 189 406 189 380 c 0,89,90
 189 353 189 353 207.5 337 c 128,-1,91
 226 321 226 321 260 321 c 0,80,81
EndSplineSet
Ligature2: "'psts' Post Base Substitutions lookup 42 subtable" tta_kannada zerowidthjoiner
Substitution2: "+BBUENAQ4BD0EOARHBD0EMARP +BD8EPgQ0BEEEQgQwBD0EPgQyBDoEMAAA lookup 9 subtable" tta_kannada.base
EndChar

StartChar: ttha_kannada
Encoding: 3232 3232 37
Width: 629
GlyphClass: 2
Flags: W
AnchorPoint: "+BBEENQQ3BEsEPARPBD0EPQQ+BDUA--2" 316 0 basechar 0
AnchorPoint: "+BBEENQQ3BEsEPARPBD0EPQQ+BDUA--0" 314 547 basechar 0
LayerCount: 2
Fore
SplineSet
316 -12 m 0,0,1
 235 -12 235 -12 176.5 21 c 128,-1,2
 118 54 118 54 86 110.5 c 128,-1,3
 54 167 54 167 54 239 c 0,4,5
 54 316 54 316 88 372 c 128,-1,6
 122 428 122 428 182 460 c 1,7,-1
 59 460 l 1,8,-1
 66 547 l 1,9,-1
 388 547 l 2,10,11
 438 547 438 547 462 552.5 c 128,-1,12
 486 558 486 558 500 570 c 0,13,14
 523 590 523 590 523 628 c 0,15,16
 523 686 523 686 468 744 c 1,17,-1
 504 771 l 1,18,19
 538 735 538 735 556.5 693 c 128,-1,20
 575 651 575 651 575 605 c 0,21,22
 575 578 575 578 568 551.5 c 128,-1,23
 561 525 561 525 539 503 c 0,24,25
 524 488 524 488 503 477.5 c 128,-1,26
 482 467 482 467 442 463 c 1,27,28
 504 431 504 431 539.5 374.5 c 128,-1,29
 575 318 575 318 575 239 c 0,30,31
 575 172 575 172 544 114.5 c 128,-1,32
 513 57 513 57 455.5 22.5 c 128,-1,33
 398 -12 398 -12 316 -12 c 0,0,1
315 83 m 256,34,35
 378 83 378 83 421 108.5 c 128,-1,36
 464 134 464 134 485.5 177 c 128,-1,37
 507 220 507 220 507 271 c 0,38,39
 507 324 507 324 482 367 c 128,-1,40
 457 410 457 410 414 435.5 c 128,-1,41
 371 461 371 461 315 461 c 0,42,43
 260 461 260 461 216.5 435 c 128,-1,44
 173 409 173 409 148 366 c 128,-1,45
 123 323 123 323 123 271 c 0,46,47
 123 221 123 221 145 178 c 128,-1,48
 167 135 167 135 209.5 109 c 128,-1,49
 252 83 252 83 315 83 c 256,34,35
314 222 m 0,50,51
 289 222 289 222 273.5 238 c 128,-1,52
 258 254 258 254 258 277 c 0,53,54
 258 301 258 301 273.5 317 c 128,-1,55
 289 333 289 333 314 333 c 0,56,57
 340 333 340 333 356 317.5 c 128,-1,58
 372 302 372 302 372 277 c 0,59,60
 372 254 372 254 356 238 c 128,-1,61
 340 222 340 222 314 222 c 0,50,51
EndSplineSet
Ligature2: "'psts' Post Base Substitutions lookup 42 subtable" ttha_kannada zerowidthjoiner
Substitution2: "+BBUENAQ4BD0EOARHBD0EMARP +BD8EPgQ0BEEEQgQwBD0EPgQyBDoEMAAA lookup 9 subtable" ttha_kannada.base
EndChar

StartChar: dda_kannada
Encoding: 3233 3233 38
Width: 761
GlyphClass: 2
Flags: W
AnchorPoint: "+BBEENQQ3BEsEPARPBD0EPQQ+BDUA--2" 372 0 basechar 0
AnchorPoint: "+BBEENQQ3BEsEPARPBD0EPQQ+BDUA--0" 380 547 basechar 0
LayerCount: 2
Fore
SplineSet
222 -12 m 256,0,1
 163 -12 163 -12 125.5 17.5 c 128,-1,2
 88 47 88 47 71 94 c 128,-1,3
 54 141 54 141 54 191 c 0,4,5
 54 283 54 283 99 354.5 c 128,-1,6
 144 426 144 426 219 460 c 1,7,-1
 56 460 l 1,8,-1
 63 547 l 1,9,-1
 520 547 l 2,10,11
 570 547 570 547 594 552.5 c 128,-1,12
 618 558 618 558 632 570 c 0,13,14
 655 590 655 590 655 628 c 0,15,16
 655 686 655 686 600 744 c 1,17,-1
 636 771 l 1,18,19
 670 735 670 735 688.5 693 c 128,-1,20
 707 651 707 651 707 605 c 0,21,22
 707 578 707 578 700.5 551 c 128,-1,23
 694 524 694 524 671 503 c 0,24,25
 655 488 655 488 632 477 c 128,-1,26
 609 466 609 466 565 462 c 1,27,28
 609 441 609 441 626.5 407.5 c 128,-1,29
 644 374 644 374 646 341 c 1,30,31
 675 312 675 312 691 270 c 128,-1,32
 707 228 707 228 707 186 c 0,33,34
 707 89 707 89 658.5 38.5 c 128,-1,35
 610 -12 610 -12 533 -12 c 0,36,37
 463 -12 463 -12 427.5 25.5 c 128,-1,38
 392 63 392 63 372 125 c 1,39,40
 359 64 359 64 320 26 c 128,-1,41
 281 -12 281 -12 222 -12 c 256,0,1
232 83 m 0,42,43
 272 83 272 83 295.5 98 c 128,-1,44
 319 113 319 113 332.5 139.5 c 128,-1,45
 346 166 346 166 355 200 c 1,46,-1
 389 200 l 1,47,48
 404 146 404 146 433.5 114.5 c 128,-1,49
 463 83 463 83 523 83 c 0,50,51
 579 83 579 83 613 112.5 c 128,-1,52
 647 142 647 142 647 204 c 0,53,54
 647 223 647 223 643 242.5 c 128,-1,55
 639 262 639 262 630 280 c 1,56,57
 617 248 617 248 587.5 224.5 c 128,-1,58
 558 201 558 201 509 201 c 0,59,60
 463 201 463 201 432.5 227 c 128,-1,61
 402 253 402 253 402 296 c 0,62,63
 402 338 402 338 431.5 363.5 c 128,-1,64
 461 389 461 389 511 389 c 0,65,66
 557 389 557 389 592 372 c 1,67,68
 582 416 582 416 537.5 438.5 c 128,-1,69
 493 461 493 461 423 461 c 2,70,-1
 372 461 l 2,71,72
 295 461 295 461 239 427 c 128,-1,73
 183 393 183 393 153 337.5 c 128,-1,74
 123 282 123 282 123 217 c 0,75,76
 123 153 123 153 151.5 118 c 128,-1,77
 180 83 180 83 232 83 c 0,42,43
454 305 m 0,78,79
 454 266 454 266 511 266 c 0,80,81
 545 266 545 266 566.5 280.5 c 128,-1,82
 588 295 588 295 593 325 c 1,83,84
 579 336 579 336 560.5 342 c 128,-1,85
 542 348 542 348 518 348 c 0,86,87
 490 348 490 348 472 338.5 c 128,-1,88
 454 329 454 329 454 305 c 0,78,79
EndSplineSet
Ligature2: "'psts' Post Base Substitutions lookup 42 subtable" dda_kannada zerowidthjoiner
Substitution2: "+BBUENAQ4BD0EOARHBD0EMARP +BD8EPgQ0BEEEQgQwBD0EPgQyBDoEMAAA lookup 9 subtable" dda_kannada.base
EndChar

StartChar: ddha_kannada
Encoding: 3234 3234 39
Width: 761
GlyphClass: 2
Flags: W
AnchorPoint: "+BBEENQQ3BEsEPARPBD0EPQQ+BDUA--2" 373 0 basechar 0
AnchorPoint: "+BBEENQQ3BEsEPARPBD0EPQQ+BDUA--0" 380 547 basechar 0
LayerCount: 2
Fore
SplineSet
222 -12 m 256,0,1
 163 -12 163 -12 125.5 17.5 c 128,-1,2
 88 47 88 47 71 94 c 128,-1,3
 54 141 54 141 54 191 c 0,4,5
 54 283 54 283 99 354.5 c 128,-1,6
 144 426 144 426 219 460 c 1,7,-1
 56 460 l 1,8,-1
 63 547 l 1,9,-1
 520 547 l 2,10,11
 570 547 570 547 594 552.5 c 128,-1,12
 618 558 618 558 632 570 c 0,13,14
 655 590 655 590 655 628 c 0,15,16
 655 686 655 686 600 744 c 1,17,-1
 636 771 l 1,18,19
 670 735 670 735 688.5 693 c 128,-1,20
 707 651 707 651 707 605 c 0,21,22
 707 578 707 578 700.5 551 c 128,-1,23
 694 524 694 524 671 503 c 0,24,25
 655 488 655 488 632 477 c 128,-1,26
 609 466 609 466 565 462 c 1,27,28
 609 441 609 441 626.5 407.5 c 128,-1,29
 644 374 644 374 646 341 c 1,30,31
 675 312 675 312 691 270 c 128,-1,32
 707 228 707 228 707 186 c 0,33,34
 707 89 707 89 658.5 38.5 c 128,-1,35
 610 -12 610 -12 533 -12 c 0,36,37
 463 -12 463 -12 427.5 25.5 c 128,-1,38
 392 63 392 63 372 125 c 1,39,40
 359 64 359 64 320 26 c 128,-1,41
 281 -12 281 -12 222 -12 c 256,0,1
232 83 m 0,42,43
 272 83 272 83 295.5 98 c 128,-1,44
 319 113 319 113 332.5 139.5 c 128,-1,45
 346 166 346 166 355 200 c 1,46,-1
 389 200 l 1,47,48
 404 146 404 146 433.5 114.5 c 128,-1,49
 463 83 463 83 523 83 c 0,50,51
 579 83 579 83 613 112.5 c 128,-1,52
 647 142 647 142 647 204 c 0,53,54
 647 223 647 223 643 242.5 c 128,-1,55
 639 262 639 262 630 280 c 1,56,57
 617 248 617 248 587.5 224.5 c 128,-1,58
 558 201 558 201 509 201 c 0,59,60
 463 201 463 201 432.5 227 c 128,-1,61
 402 253 402 253 402 296 c 0,62,63
 402 338 402 338 431.5 363.5 c 128,-1,64
 461 389 461 389 511 389 c 0,65,66
 557 389 557 389 592 372 c 1,67,68
 582 416 582 416 537.5 438.5 c 128,-1,69
 493 461 493 461 423 461 c 2,70,-1
 372 461 l 2,71,72
 295 461 295 461 239 427 c 128,-1,73
 183 393 183 393 153 337.5 c 128,-1,74
 123 282 123 282 123 217 c 0,75,76
 123 153 123 153 151.5 118 c 128,-1,77
 180 83 180 83 232 83 c 0,42,43
454 305 m 0,78,79
 454 266 454 266 511 266 c 0,80,81
 545 266 545 266 566.5 280.5 c 128,-1,82
 588 295 588 295 593 325 c 1,83,84
 579 336 579 336 560.5 342 c 128,-1,85
 542 348 542 348 518 348 c 0,86,87
 490 348 490 348 472 338.5 c 128,-1,88
 454 329 454 329 454 305 c 0,78,79
374 -196 m 0,89,90
 350 -196 350 -196 337 -187 c 128,-1,91
 324 -178 324 -178 324 -156 c 0,92,93
 324 -141 324 -141 329 -115.5 c 128,-1,94
 334 -90 334 -90 342.5 -61.5 c 128,-1,95
 351 -33 351 -33 359 -9 c 1,96,-1
 387 -9 l 1,97,98
 395 -32 395 -32 403 -60 c 128,-1,99
 411 -88 411 -88 416 -113.5 c 128,-1,100
 421 -139 421 -139 421 -156 c 0,101,102
 421 -178 421 -178 409 -187 c 128,-1,103
 397 -196 397 -196 374 -196 c 0,89,90
EndSplineSet
Ligature2: "'psts' Post Base Substitutions lookup 42 subtable" ddha_kannada zerowidthjoiner
Substitution2: "+BBUENAQ4BD0EOARHBD0EMARP +BD8EPgQ0BEEEQgQwBD0EPgQyBDoEMAAA lookup 9 subtable" ddha_kannada.base
EndChar

StartChar: nna_kannada
Encoding: 3235 3235 40
Width: 846
GlyphClass: 2
Flags: W
AnchorPoint: "+BBEENQQ3BEsEPARPBD0EPQQ+BDUA--2" 424 0 basechar 0
AnchorPoint: "+BBEENQQ3BEsEPARPBD0EPQQ+BDUA--0" 423 547 basechar 0
LayerCount: 2
Fore
SplineSet
205 -11 m 0,0,1
 141 -11 141 -11 97.5 28.5 c 128,-1,2
 54 68 54 68 54 136 c 0,3,4
 54 192 54 192 84.5 229.5 c 128,-1,5
 115 267 115 267 162 285 c 1,6,7
 115 303 115 303 87 336.5 c 128,-1,8
 59 370 59 370 59 418 c 0,9,10
 59 459 59 459 80 490.5 c 128,-1,11
 101 522 101 522 137.5 540 c 128,-1,12
 174 558 174 558 220 558 c 0,13,14
 287 558 287 558 332.5 522.5 c 128,-1,15
 378 487 378 487 398 432 c 1,16,17
 422 485 422 485 468.5 521.5 c 128,-1,18
 515 558 515 558 583 558 c 0,19,20
 652 558 652 558 699 518.5 c 128,-1,21
 746 479 746 479 770 414 c 128,-1,22
 794 349 794 349 794 270 c 0,23,24
 794 187 794 187 771 123.5 c 128,-1,25
 748 60 748 60 704 24.5 c 128,-1,26
 660 -11 660 -11 595 -11 c 0,27,28
 543 -11 543 -11 504.5 11.5 c 128,-1,29
 466 34 466 34 445 72.5 c 128,-1,30
 424 111 424 111 424 158 c 0,31,32
 424 226 424 226 459.5 269 c 128,-1,33
 495 312 495 312 552 312 c 0,34,35
 599 312 599 312 623 283.5 c 128,-1,36
 647 255 647 255 657 218 c 1,37,-1
 629 203 l 1,38,39
 617 221 617 221 597.5 232.5 c 128,-1,40
 578 244 578 244 549 244 c 0,41,42
 512 244 512 244 490.5 223 c 128,-1,43
 469 202 469 202 469 167 c 0,44,45
 469 127 469 127 500 105 c 128,-1,46
 531 83 531 83 580 83 c 0,47,48
 623 83 623 83 660 105 c 128,-1,49
 697 127 697 127 719.5 169 c 128,-1,50
 742 211 742 211 742 272 c 0,51,52
 742 327 742 327 723 371.5 c 128,-1,53
 704 416 704 416 667 442 c 128,-1,54
 630 468 630 468 575 468 c 0,55,56
 517 468 517 468 476 442.5 c 128,-1,57
 435 417 435 417 417 369 c 1,58,-1
 379 369 l 1,59,60
 366 414 366 414 334 441 c 128,-1,61
 302 468 302 468 247 468 c 0,62,63
 198 468 198 468 169.5 446 c 128,-1,64
 141 424 141 424 141 386 c 256,65,66
 141 348 141 348 171.5 327.5 c 128,-1,67
 202 307 202 307 249 307 c 1,68,-1
 249 258 l 1,69,70
 202 258 202 258 169 233.5 c 128,-1,71
 136 209 136 209 136 165 c 0,72,73
 136 125 136 125 161 103 c 128,-1,74
 186 81 186 81 226 81 c 0,75,76
 261 81 261 81 288.5 93.5 c 128,-1,77
 316 106 316 106 337 125 c 1,78,-1
 369 98 l 1,79,80
 340 49 340 49 301 19 c 128,-1,81
 262 -11 262 -11 205 -11 c 0,0,1
EndSplineSet
Ligature2: "'psts' Post Base Substitutions lookup 42 subtable" nna_kannada zerowidthjoiner
Substitution2: "+BBUENAQ4BD0EOARHBD0EMARP +BD8EPgQ0BEEEQgQwBD0EPgQyBDoEMAAA lookup 9 subtable" nna_kannada.base
EndChar

StartChar: ta_kannada
Encoding: 3236 3236 41
Width: 614
GlyphClass: 2
Flags: W
AnchorPoint: "+BBEENQQ3BEsEPARPBD0EPQQ+BDUA--2" 305 0 basechar 0
AnchorPoint: "+BBEENQQ3BEsEPARPBD0EPQQ+BDUA--0" 307 547 basechar 0
LayerCount: 2
Fore
SplineSet
311 -11 m 0,0,1
 240 -11 240 -11 190 9.5 c 128,-1,2
 140 30 140 30 109 64.5 c 128,-1,3
 78 99 78 99 64 140 c 128,-1,4
 50 181 50 181 50 222 c 0,5,6
 50 233 50 233 50.5 243 c 128,-1,7
 51 253 51 253 53 266 c 1,8,-1
 92 266 l 1,9,10
 93 219 93 219 113.5 177 c 128,-1,11
 134 135 134 135 181.5 109.5 c 128,-1,12
 229 84 229 84 309 84 c 0,13,14
 404 84 404 84 450.5 124 c 128,-1,15
 497 164 497 164 497 223 c 0,16,17
 497 251 497 251 488.5 273 c 128,-1,18
 480 295 480 295 464 312 c 1,19,20
 456 257 456 257 419 224 c 128,-1,21
 382 191 382 191 323 191 c 0,22,23
 263 191 263 191 226 219.5 c 128,-1,24
 189 248 189 248 189 295 c 256,25,26
 189 342 189 342 227.5 370 c 128,-1,27
 266 398 266 398 334 398 c 0,28,29
 372 398 372 398 407 388 c 1,30,31
 396 415 396 415 374 433 c 128,-1,32
 352 451 352 451 326 460 c 1,33,-1
 51 460 l 1,34,-1
 58 547 l 1,35,-1
 373 547 l 2,36,37
 423 547 423 547 447 552.5 c 128,-1,38
 471 558 471 558 485 570 c 0,39,40
 508 590 508 590 508 628 c 0,41,42
 508 686 508 686 453 744 c 1,43,-1
 489 771 l 1,44,45
 523 735 523 735 541.5 693 c 128,-1,46
 560 651 560 651 560 605 c 0,47,48
 560 578 560 578 553.5 551 c 128,-1,49
 547 524 547 524 524 503 c 0,50,51
 507 486 507 486 480 474.5 c 128,-1,52
 453 463 453 463 399 461 c 1,53,54
 423 444 423 444 440 418.5 c 128,-1,55
 457 393 457 393 463 365 c 1,56,57
 508 339 508 339 534 295.5 c 128,-1,58
 560 252 560 252 560 197 c 0,59,60
 560 140 560 140 532 92.5 c 128,-1,61
 504 45 504 45 449 17 c 128,-1,62
 394 -11 394 -11 311 -11 c 0,0,1
250 305 m 0,63,64
 250 283 250 283 270 270 c 128,-1,65
 290 257 290 257 320 257 c 0,66,67
 362 257 362 257 389 281 c 128,-1,68
 416 305 416 305 416 343 c 1,69,70
 380 357 380 357 334 357 c 0,71,72
 291 357 291 357 270.5 342.5 c 128,-1,73
 250 328 250 328 250 305 c 0,63,64
EndSplineSet
Substitution2: "+BBUENAQ4BD0EOARHBD0EMARP +BD8EPgQ0BEEEQgQwBD0EPgQyBDoEMAAA lookup 9 subtable" ta_kannada.base
EndChar

StartChar: tha_kannada
Encoding: 3237 3237 42
Width: 745
GlyphClass: 2
Flags: W
AnchorPoint: "+BBEENQQ3BEsEPARPBD0EPQQ+BDUA--2" 373 0 basechar 0
AnchorPoint: "+BBEENQQ3BEsEPARPBD0EPQQ+BDUA--0" 372 547 basechar 0
LayerCount: 2
Fore
SplineSet
222 -11 m 0,0,1
 163 -11 163 -11 125.5 18.5 c 128,-1,2
 88 48 88 48 71 94.5 c 128,-1,3
 54 141 54 141 54 191 c 0,4,5
 54 283 54 283 99 354 c 128,-1,6
 144 425 144 425 218 460 c 1,7,-1
 56 460 l 1,8,-1
 63 547 l 1,9,-1
 504 547 l 2,10,11
 554 547 554 547 578 552.5 c 128,-1,12
 602 558 602 558 616 570 c 0,13,14
 639 590 639 590 639 628 c 0,15,16
 639 686 639 686 584 744 c 1,17,-1
 620 771 l 1,18,19
 654 735 654 735 672.5 693 c 128,-1,20
 691 651 691 651 691 605 c 0,21,22
 691 578 691 578 684.5 551 c 128,-1,23
 678 524 678 524 655 503 c 0,24,25
 637 486 637 486 609.5 474.5 c 128,-1,26
 582 463 582 463 526 460 c 1,27,28
 601 426 601 426 646 355.5 c 128,-1,29
 691 285 691 285 691 191 c 0,30,31
 691 158 691 158 683 123 c 128,-1,32
 675 88 675 88 655.5 57.5 c 128,-1,33
 636 27 636 27 604 8 c 128,-1,34
 572 -11 572 -11 524 -11 c 0,35,36
 461 -11 461 -11 425.5 25.5 c 128,-1,37
 390 62 390 62 373 125 c 1,38,39
 359 64 359 64 320.5 26.5 c 128,-1,40
 282 -11 282 -11 222 -11 c 0,0,1
226 85 m 0,41,42
 268 85 268 85 293 100 c 128,-1,43
 318 115 318 115 332.5 141 c 128,-1,44
 347 167 347 167 356 200 c 1,45,-1
 390 200 l 1,46,47
 406 147 406 147 434 116 c 128,-1,48
 462 85 462 85 520 85 c 0,49,50
 575 85 575 85 598.5 122 c 128,-1,51
 622 159 622 159 622 217 c 0,52,53
 622 283 622 283 592.5 338.5 c 128,-1,54
 563 394 563 394 508 427.5 c 128,-1,55
 453 461 453 461 375 461 c 2,56,-1
 371 461 l 2,57,58
 294 461 294 461 238 427 c 128,-1,59
 182 393 182 393 152.5 337.5 c 128,-1,60
 123 282 123 282 123 217 c 0,61,62
 123 153 123 153 150 119 c 128,-1,63
 177 85 177 85 226 85 c 0,41,42
374 271 m 256,64,65
 348 271 348 271 332.5 286.5 c 128,-1,66
 317 302 317 302 317 326 c 256,67,68
 317 350 317 350 333 366 c 128,-1,69
 349 382 349 382 374 382 c 256,70,71
 399 382 399 382 415 366 c 128,-1,72
 431 350 431 350 431 326 c 256,73,74
 431 302 431 302 415.5 286.5 c 128,-1,75
 400 271 400 271 374 271 c 256,64,65
374 -193 m 0,76,77
 350 -193 350 -193 337 -184 c 128,-1,78
 324 -175 324 -175 324 -153 c 0,79,80
 324 -138 324 -138 329 -113 c 128,-1,81
 334 -88 334 -88 342.5 -59 c 128,-1,82
 351 -30 351 -30 359 -6 c 1,83,-1
 387 -6 l 1,84,85
 395 -29 395 -29 403 -57 c 128,-1,86
 411 -85 411 -85 416 -110.5 c 128,-1,87
 421 -136 421 -136 421 -153 c 0,88,89
 421 -175 421 -175 409 -184 c 128,-1,90
 397 -193 397 -193 374 -193 c 0,76,77
EndSplineSet
Ligature2: "'psts' Post Base Substitutions lookup 42 subtable" tha_kannada zerowidthjoiner
Substitution2: "+BBUENAQ4BD0EOARHBD0EMARP +BD8EPgQ0BEEEQgQwBD0EPgQyBDoEMAAA lookup 9 subtable" tha_kannada.base
EndChar

StartChar: da_kannada
Encoding: 3238 3238 43
Width: 745
GlyphClass: 2
Flags: W
AnchorPoint: "+BBEENQQ3BEsEPARPBD0EPQQ+BDUA--2" 373 0 basechar 0
AnchorPoint: "+BBEENQQ3BEsEPARPBD0EPQQ+BDUA--0" 372 547 basechar 0
LayerCount: 2
Fore
SplineSet
222 -11 m 0,0,1
 163 -11 163 -11 125.5 18.5 c 128,-1,2
 88 48 88 48 71 94.5 c 128,-1,3
 54 141 54 141 54 191 c 0,4,5
 54 283 54 283 99 354 c 128,-1,6
 144 425 144 425 218 460 c 1,7,-1
 56 460 l 1,8,-1
 63 547 l 1,9,-1
 504 547 l 2,10,11
 554 547 554 547 578 552.5 c 128,-1,12
 602 558 602 558 616 570 c 0,13,14
 639 590 639 590 639 628 c 0,15,16
 639 686 639 686 584 744 c 1,17,-1
 620 771 l 1,18,19
 654 735 654 735 672.5 693 c 128,-1,20
 691 651 691 651 691 605 c 0,21,22
 691 578 691 578 684.5 551 c 128,-1,23
 678 524 678 524 655 503 c 0,24,25
 637 486 637 486 609.5 474.5 c 128,-1,26
 582 463 582 463 526 460 c 1,27,28
 601 426 601 426 646 355.5 c 128,-1,29
 691 285 691 285 691 191 c 0,30,31
 691 158 691 158 683 123 c 128,-1,32
 675 88 675 88 655.5 57.5 c 128,-1,33
 636 27 636 27 604 8 c 128,-1,34
 572 -11 572 -11 524 -11 c 0,35,36
 461 -11 461 -11 425.5 25.5 c 128,-1,37
 390 62 390 62 373 125 c 1,38,39
 359 64 359 64 320.5 26.5 c 128,-1,40
 282 -11 282 -11 222 -11 c 0,0,1
226 85 m 0,41,42
 268 85 268 85 293 100 c 128,-1,43
 318 115 318 115 332.5 141 c 128,-1,44
 347 167 347 167 356 200 c 1,45,-1
 390 200 l 1,46,47
 406 147 406 147 434 116 c 128,-1,48
 462 85 462 85 520 85 c 0,49,50
 575 85 575 85 598.5 122 c 128,-1,51
 622 159 622 159 622 217 c 0,52,53
 622 283 622 283 592.5 338.5 c 128,-1,54
 563 394 563 394 508 427.5 c 128,-1,55
 453 461 453 461 375 461 c 2,56,-1
 371 461 l 2,57,58
 294 461 294 461 238 427 c 128,-1,59
 182 393 182 393 152.5 337.5 c 128,-1,60
 123 282 123 282 123 217 c 0,61,62
 123 153 123 153 150 119 c 128,-1,63
 177 85 177 85 226 85 c 0,41,42
EndSplineSet
Ligature2: "'psts' Post Base Substitutions lookup 42 subtable" da_kannada zerowidthjoiner
Substitution2: "+BBUENAQ4BD0EOARHBD0EMARP +BD8EPgQ0BEEEQgQwBD0EPgQyBDoEMAAA lookup 9 subtable" da_kannada.base
EndChar

StartChar: dha_kannada
Encoding: 3239 3239 44
Width: 745
GlyphClass: 2
Flags: W
AnchorPoint: "+BBEENQQ3BEsEPARPBD0EPQQ+BDUA--2" 373 0 basechar 0
AnchorPoint: "+BBEENQQ3BEsEPARPBD0EPQQ+BDUA--0" 372 547 basechar 0
LayerCount: 2
Fore
SplineSet
222 -11 m 0,0,1
 163 -11 163 -11 125.5 18.5 c 128,-1,2
 88 48 88 48 71 94.5 c 128,-1,3
 54 141 54 141 54 191 c 0,4,5
 54 283 54 283 99 354 c 128,-1,6
 144 425 144 425 218 460 c 1,7,-1
 56 460 l 1,8,-1
 63 547 l 1,9,-1
 504 547 l 2,10,11
 554 547 554 547 578 552.5 c 128,-1,12
 602 558 602 558 616 570 c 0,13,14
 639 590 639 590 639 628 c 0,15,16
 639 686 639 686 584 744 c 1,17,-1
 620 771 l 1,18,19
 654 735 654 735 672.5 693 c 128,-1,20
 691 651 691 651 691 605 c 0,21,22
 691 578 691 578 684.5 551 c 128,-1,23
 678 524 678 524 655 503 c 0,24,25
 637 486 637 486 609.5 474.5 c 128,-1,26
 582 463 582 463 526 460 c 1,27,28
 601 426 601 426 646 355.5 c 128,-1,29
 691 285 691 285 691 191 c 0,30,31
 691 158 691 158 683 123 c 128,-1,32
 675 88 675 88 655.5 57.5 c 128,-1,33
 636 27 636 27 604 8 c 128,-1,34
 572 -11 572 -11 524 -11 c 0,35,36
 461 -11 461 -11 425.5 25.5 c 128,-1,37
 390 62 390 62 373 125 c 1,38,39
 359 64 359 64 320.5 26.5 c 128,-1,40
 282 -11 282 -11 222 -11 c 0,0,1
226 85 m 0,41,42
 268 85 268 85 293 100 c 128,-1,43
 318 115 318 115 332.5 141 c 128,-1,44
 347 167 347 167 356 200 c 1,45,-1
 390 200 l 1,46,47
 406 147 406 147 434 116 c 128,-1,48
 462 85 462 85 520 85 c 0,49,50
 575 85 575 85 598.5 122 c 128,-1,51
 622 159 622 159 622 217 c 0,52,53
 622 283 622 283 592.5 338.5 c 128,-1,54
 563 394 563 394 508 427.5 c 128,-1,55
 453 461 453 461 375 461 c 2,56,-1
 371 461 l 2,57,58
 294 461 294 461 238 427 c 128,-1,59
 182 393 182 393 152.5 337.5 c 128,-1,60
 123 282 123 282 123 217 c 0,61,62
 123 153 123 153 150 119 c 128,-1,63
 177 85 177 85 226 85 c 0,41,42
374 -193 m 0,64,65
 350 -193 350 -193 337 -184 c 128,-1,66
 324 -175 324 -175 324 -153 c 0,67,68
 324 -138 324 -138 329 -113 c 128,-1,69
 334 -88 334 -88 342.5 -59 c 128,-1,70
 351 -30 351 -30 359 -6 c 1,71,-1
 387 -6 l 1,72,73
 395 -29 395 -29 403 -57 c 128,-1,74
 411 -85 411 -85 416 -110.5 c 128,-1,75
 421 -136 421 -136 421 -153 c 0,76,77
 421 -175 421 -175 409 -184 c 128,-1,78
 397 -193 397 -193 374 -193 c 0,64,65
EndSplineSet
Ligature2: "'psts' Post Base Substitutions lookup 42 subtable" dha_kannada zerowidthjoiner
Substitution2: "+BBUENAQ4BD0EOARHBD0EMARP +BD8EPgQ0BEEEQgQwBD0EPgQyBDoEMAAA lookup 9 subtable" dha_kannada.base
EndChar

StartChar: na_kannada
Encoding: 3240 3240 45
Width: 682
GlyphClass: 2
Flags: W
AnchorPoint: "+BBEENQQ3BEsEPARPBD0EPQQ+BDUA--2" 341 0 basechar 0
AnchorPoint: "+BBEENQQ3BEsEPARPBD0EPQQ+BDUA--0" 341 547 basechar 0
LayerCount: 2
Fore
SplineSet
155 -52 m 0,0,1
 134 -52 134 -52 110.5 -28 c 128,-1,2
 87 -4 87 -4 70.5 41 c 128,-1,3
 54 86 54 86 54 148 c 0,4,5
 54 227 54 227 88.5 269.5 c 128,-1,6
 123 312 123 312 173 312 c 0,7,8
 205 312 205 312 228 297.5 c 128,-1,9
 251 283 251 283 275 252.5 c 128,-1,10
 299 222 299 222 332 174 c 0,11,12
 364 129 364 129 389 106 c 128,-1,13
 414 83 414 83 457 83 c 0,14,15
 512 83 512 83 535.5 118.5 c 128,-1,16
 559 154 559 154 559 206 c 0,17,18
 559 279 559 279 527 336.5 c 128,-1,19
 495 394 495 394 438 427 c 128,-1,20
 381 460 381 460 305 460 c 2,21,-1
 56 460 l 1,22,-1
 63 547 l 1,23,-1
 441 547 l 2,24,25
 491 547 491 547 515 552.5 c 128,-1,26
 539 558 539 558 553 570 c 0,27,28
 576 588 576 588 576 628 c 0,29,30
 576 686 576 686 521 744 c 1,31,-1
 557 771 l 1,32,33
 591 735 591 735 609.5 693 c 128,-1,34
 628 651 628 651 628 605 c 0,35,36
 628 578 628 578 621.5 551 c 128,-1,37
 615 524 615 524 592 503 c 0,38,39
 575 486 575 486 548 474.5 c 128,-1,40
 521 463 521 463 466 461 c 1,41,42
 521 432 521 432 557 387 c 128,-1,43
 593 342 593 342 610.5 289 c 128,-1,44
 628 236 628 236 628 185 c 0,45,46
 628 155 628 155 621.5 121 c 128,-1,47
 615 87 615 87 599 56.5 c 128,-1,48
 583 26 583 26 553.5 7 c 128,-1,49
 524 -12 524 -12 477 -12 c 0,50,51
 433 -12 433 -12 403 6.5 c 128,-1,52
 373 25 373 25 350.5 55.5 c 128,-1,53
 328 86 328 86 304 122 c 0,54,55
 275 167 275 167 246.5 193.5 c 128,-1,56
 218 220 218 220 179 220 c 0,57,58
 143 220 143 220 121.5 198.5 c 128,-1,59
 100 177 100 177 100 136 c 0,60,61
 100 96 100 96 122.5 60 c 128,-1,62
 145 24 145 24 196 10 c 1,63,64
 196 -2 196 -2 193.5 -16.5 c 128,-1,65
 191 -31 191 -31 182 -41.5 c 128,-1,66
 173 -52 173 -52 155 -52 c 0,0,1
EndSplineSet
Ligature2: "'psts' Post Base Substitutions lookup 42 subtable" na_kannada zerowidthjoiner
Substitution2: "+BBUENAQ4BD0EOARHBD0EMARP +BD8EPgQ0BEEEQgQwBD0EPgQyBDoEMAAA lookup 9 subtable" na_kannada.base
EndChar

StartChar: pa_kannada
Encoding: 3242 3242 46
Width: 739
GlyphClass: 2
Flags: W
AnchorPoint: "+BBEENQQ3BEsEPARPBD0EPQQ+BDUA--2" 379 0 basechar 0
AnchorPoint: "+BBEENQQ3BEsEPARPBD0EPQQ+BDUA--0" 369 547 basechar 0
LayerCount: 2
Fore
SplineSet
59 460 m 1,0,-1
 65 547 l 1,1,-1
 498 547 l 2,2,3
 548 547 548 547 572 552.5 c 128,-1,4
 596 558 596 558 610 570 c 0,5,6
 633 588 633 588 633 628 c 0,7,8
 633 686 633 686 578 744 c 1,9,-1
 614 771 l 1,10,11
 648 735 648 735 666.5 693 c 128,-1,12
 685 651 685 651 685 605 c 0,13,14
 685 578 685 578 678.5 551 c 128,-1,15
 672 524 672 524 649 503 c 0,16,17
 636 491 636 491 618 481 c 128,-1,18
 600 471 600 471 571 465.5 c 128,-1,19
 542 460 542 460 494 460 c 2,20,-1
 59 460 l 1,0,-1
381 304 m 0,21,22
 356 304 356 304 340 320 c 128,-1,23
 324 336 324 336 324 360 c 256,24,25
 324 384 324 384 340 400 c 128,-1,26
 356 416 356 416 381 416 c 0,27,28
 407 416 407 416 422.5 400 c 128,-1,29
 438 384 438 384 438 360 c 256,30,31
 438 336 438 336 422.5 320 c 128,-1,32
 407 304 407 304 381 304 c 0,21,22
212 -11 m 0,33,34
 160 -11 160 -11 124.5 14 c 128,-1,35
 89 39 89 39 71.5 80 c 128,-1,36
 54 121 54 121 54 168 c 0,37,38
 54 232 54 232 88.5 275.5 c 128,-1,39
 123 319 123 319 183 319 c 0,40,41
 230 319 230 319 255.5 293.5 c 128,-1,42
 281 268 281 268 281 229 c 0,43,44
 281 191 281 191 257 169 c 128,-1,45
 233 147 233 147 190 141 c 1,46,-1
 184 178 l 1,47,48
 220 186 220 186 220 219 c 0,49,50
 220 237 220 237 208 248.5 c 128,-1,51
 196 260 196 260 171 260 c 0,52,53
 138 260 138 260 118.5 238.5 c 128,-1,54
 99 217 99 217 99 182 c 0,55,56
 99 133 99 133 131 108.5 c 128,-1,57
 163 84 163 84 223 84 c 0,58,59
 330 84 330 84 362 200 c 1,60,-1
 396 200 l 1,61,62
 411 150 411 150 439.5 117 c 128,-1,63
 468 84 468 84 529 84 c 0,64,65
 585 84 585 84 611.5 119.5 c 128,-1,66
 638 155 638 155 638 209 c 0,67,68
 638 268 638 268 612 309 c 128,-1,69
 586 350 586 350 554 380 c 1,70,71
 559 395 559 395 569.5 405 c 128,-1,72
 580 415 580 415 594 415 c 0,73,74
 618 415 618 415 638.5 387 c 128,-1,75
 659 359 659 359 672 312 c 128,-1,76
 685 265 685 265 685 208 c 0,77,78
 685 174 685 174 678.5 136 c 128,-1,79
 672 98 672 98 655.5 64.5 c 128,-1,80
 639 31 639 31 609.5 10 c 128,-1,81
 580 -11 580 -11 534 -11 c 0,82,83
 472 -11 472 -11 433.5 26.5 c 128,-1,84
 395 64 395 64 376 124 c 1,85,86
 356 63 356 63 318.5 26 c 128,-1,87
 281 -11 281 -11 212 -11 c 0,33,34
EndSplineSet
Substitution2: "+BBUENAQ4BD0EOARHBD0EMARP +BD8EPgQ0BEEEQgQwBD0EPgQyBDoEMAAA lookup 44 subtable" pa_kannada.below
Ligature2: "'psts' Post Base Substitutions lookup 42 subtable" pa_kannada zerowidthjoiner
Substitution2: "+BBUENAQ4BD0EOARHBD0EMARP +BD8EPgQ0BEEEQgQwBD0EPgQyBDoEMAAA lookup 9 subtable" pa_kannada.base
EndChar

StartChar: pha_kannada
Encoding: 3243 3243 47
Width: 741
GlyphClass: 2
Flags: W
AnchorPoint: "+BBEENQQ3BEsEPARPBD0EPQQ+BDUA--2" 377 0 basechar 0
AnchorPoint: "+BBEENQQ3BEsEPARPBD0EPQQ+BDUA--0" 370 547 basechar 0
LayerCount: 2
Fore
SplineSet
59 460 m 1,0,-1
 65 547 l 1,1,-1
 498 547 l 2,2,3
 548 547 548 547 572 552.5 c 128,-1,4
 596 558 596 558 610 570 c 0,5,6
 633 588 633 588 633 628 c 0,7,8
 633 686 633 686 578 744 c 1,9,-1
 614 771 l 1,10,11
 648 735 648 735 666.5 693 c 128,-1,12
 685 651 685 651 685 605 c 0,13,14
 685 578 685 578 678.5 551 c 128,-1,15
 672 524 672 524 649 503 c 0,16,17
 636 491 636 491 618 481 c 128,-1,18
 600 471 600 471 571 465.5 c 128,-1,19
 542 460 542 460 494 460 c 2,20,-1
 59 460 l 1,0,-1
381 304 m 0,21,22
 356 304 356 304 340 320 c 128,-1,23
 324 336 324 336 324 360 c 256,24,25
 324 384 324 384 340 400 c 128,-1,26
 356 416 356 416 381 416 c 0,27,28
 407 416 407 416 422.5 400 c 128,-1,29
 438 384 438 384 438 360 c 256,30,31
 438 336 438 336 422.5 320 c 128,-1,32
 407 304 407 304 381 304 c 0,21,22
212 -11 m 0,33,34
 160 -11 160 -11 124.5 14 c 128,-1,35
 89 39 89 39 71.5 80 c 128,-1,36
 54 121 54 121 54 168 c 0,37,38
 54 232 54 232 88.5 275.5 c 128,-1,39
 123 319 123 319 183 319 c 0,40,41
 230 319 230 319 255.5 293.5 c 128,-1,42
 281 268 281 268 281 229 c 0,43,44
 281 191 281 191 257 169 c 128,-1,45
 233 147 233 147 190 141 c 1,46,-1
 184 178 l 1,47,48
 220 186 220 186 220 219 c 0,49,50
 220 237 220 237 208 248.5 c 128,-1,51
 196 260 196 260 171 260 c 0,52,53
 138 260 138 260 118.5 238.5 c 128,-1,54
 99 217 99 217 99 182 c 0,55,56
 99 133 99 133 131 108.5 c 128,-1,57
 163 84 163 84 223 84 c 0,58,59
 330 84 330 84 362 200 c 1,60,-1
 396 200 l 1,61,62
 411 150 411 150 439.5 117 c 128,-1,63
 468 84 468 84 529 84 c 0,64,65
 585 84 585 84 611.5 119.5 c 128,-1,66
 638 155 638 155 638 209 c 0,67,68
 638 268 638 268 612 309 c 128,-1,69
 586 350 586 350 554 380 c 1,70,71
 559 395 559 395 569.5 405 c 128,-1,72
 580 415 580 415 594 415 c 0,73,74
 618 415 618 415 638.5 387 c 128,-1,75
 659 359 659 359 672 312 c 128,-1,76
 685 265 685 265 685 208 c 0,77,78
 685 174 685 174 678.5 136 c 128,-1,79
 672 98 672 98 655.5 64.5 c 128,-1,80
 639 31 639 31 609.5 10 c 128,-1,81
 580 -11 580 -11 534 -11 c 0,82,83
 472 -11 472 -11 433.5 26.5 c 128,-1,84
 395 64 395 64 376 124 c 1,85,86
 356 63 356 63 318.5 26 c 128,-1,87
 281 -11 281 -11 212 -11 c 0,33,34
377 -196 m 256,88,89
 354 -196 354 -196 341 -187 c 128,-1,90
 328 -178 328 -178 328 -156 c 0,91,92
 328 -141 328 -141 333 -115.5 c 128,-1,93
 338 -90 338 -90 346.5 -61.5 c 128,-1,94
 355 -33 355 -33 363 -9 c 1,95,-1
 391 -9 l 1,96,97
 399 -32 399 -32 407 -60 c 128,-1,98
 415 -88 415 -88 420 -113.5 c 128,-1,99
 425 -139 425 -139 425 -156 c 0,100,101
 425 -178 425 -178 412.5 -187 c 128,-1,102
 400 -196 400 -196 377 -196 c 256,88,89
EndSplineSet
Substitution2: "+BBUENAQ4BD0EOARHBD0EMARP +BD8EPgQ0BEEEQgQwBD0EPgQyBDoEMAAA lookup 44 subtable" pha_kannada.below
Ligature2: "'psts' Post Base Substitutions lookup 42 subtable" pha_kannada zerowidthjoiner
Substitution2: "+BBUENAQ4BD0EOARHBD0EMARP +BD8EPgQ0BEEEQgQwBD0EPgQyBDoEMAAA lookup 9 subtable" pha_kannada.base
EndChar

StartChar: ba_kannada
Encoding: 3244 3244 48
Width: 751
GlyphClass: 2
Flags: W
AnchorPoint: "+BBEENQQ3BEsEPARPBD0EPQQ+BDUA--2" 381 0 basechar 0
AnchorPoint: "+BBEENQQ3BEsEPARPBD0EPQQ+BDUA--0" 375 547 basechar 0
LayerCount: 2
Fore
SplineSet
212 -11 m 0,0,1
 148 -11 148 -11 108 27.5 c 128,-1,2
 68 66 68 66 68 124 c 0,3,4
 68 168 68 168 92 206 c 128,-1,5
 116 244 116 244 162 287 c 0,6,7
 200 322 200 322 219.5 347 c 128,-1,8
 239 372 239 372 239 405 c 0,9,10
 239 433 239 433 221 454 c 128,-1,11
 203 475 203 475 164 475 c 0,12,13
 128 475 128 475 107.5 457 c 128,-1,14
 87 439 87 439 87 407 c 0,15,16
 87 388 87 388 92.5 374.5 c 128,-1,17
 98 361 98 361 105 348 c 1,18,-1
 76 329 l 1,19,20
 58 350 58 350 46 377 c 128,-1,21
 34 404 34 404 34 438 c 0,22,23
 34 485 34 485 67.5 521.5 c 128,-1,24
 101 558 101 558 168 558 c 0,25,26
 237 558 237 558 268.5 520 c 128,-1,27
 300 482 300 482 300 427 c 0,28,29
 300 387 300 387 279.5 352.5 c 128,-1,30
 259 318 259 318 217 278 c 0,31,32
 180 242 180 242 158 213.5 c 128,-1,33
 136 185 136 185 136 154 c 0,34,35
 136 120 136 120 158.5 102 c 128,-1,36
 181 84 181 84 221 84 c 0,37,38
 275 84 275 84 310.5 114 c 128,-1,39
 346 144 346 144 364 200 c 1,40,-1
 397 200 l 1,41,42
 411 152 411 152 439 117.5 c 128,-1,43
 467 83 467 83 522 83 c 0,44,45
 581 83 581 83 615.5 124.5 c 128,-1,46
 650 166 650 166 650 242 c 0,47,48
 650 321 650 321 616.5 384 c 128,-1,49
 583 447 583 447 522.5 490.5 c 128,-1,50
 462 534 462 534 381 552 c 1,51,52
 375 567 375 567 375 580 c 0,53,54
 375 600 375 600 384.5 611.5 c 128,-1,55
 394 623 394 623 409 623 c 0,56,57
 435 623 435 623 471.5 607.5 c 128,-1,58
 508 592 508 592 547.5 560.5 c 128,-1,59
 587 529 587 529 621 483 c 128,-1,60
 655 437 655 437 676 376 c 128,-1,61
 697 315 697 315 697 239 c 0,62,63
 697 145 697 145 675 90.5 c 128,-1,64
 653 36 653 36 615.5 12.5 c 128,-1,65
 578 -11 578 -11 533 -11 c 0,66,67
 474 -11 474 -11 434 28.5 c 128,-1,68
 394 68 394 68 378 124 c 1,69,70
 355 58 355 58 315 23.5 c 128,-1,71
 275 -11 275 -11 212 -11 c 0,0,1
EndSplineSet
Ligature2: "'psts' Post Base Substitutions lookup 42 subtable" ba_kannada zerowidthjoiner
Substitution2: "+BBUENAQ4BD0EOARHBD0EMARP +BD8EPgQ0BEEEQgQwBD0EPgQyBDoEMAAA lookup 9 subtable" ba_kannada.base
EndChar

StartChar: bha_kannada
Encoding: 3245 3245 49
Width: 753
GlyphClass: 2
Flags: W
AnchorPoint: "+BBEENQQ3BEsEPARPBD0EPQQ+BDUA--2" 377 0 basechar 0
AnchorPoint: "+BBEENQQ3BEsEPARPBD0EPQQ+BDUA--0" 376 547 basechar 0
LayerCount: 2
Fore
SplineSet
212 -11 m 256,0,1
 148 -11 148 -11 108 27.5 c 128,-1,2
 68 66 68 66 68 124 c 0,3,4
 68 168 68 168 92 206 c 128,-1,5
 116 244 116 244 162 287 c 0,6,7
 200 322 200 322 219.5 347 c 128,-1,8
 239 372 239 372 239 405 c 0,9,10
 239 433 239 433 221 454 c 128,-1,11
 203 475 203 475 164 475 c 0,12,13
 128 475 128 475 107.5 457 c 128,-1,14
 87 439 87 439 87 407 c 0,15,16
 87 388 87 388 92.5 375 c 128,-1,17
 98 362 98 362 105 348 c 1,18,-1
 76 329 l 1,19,20
 58 350 58 350 46 377.5 c 128,-1,21
 34 405 34 405 34 439 c 0,22,23
 34 486 34 486 67.5 522 c 128,-1,24
 101 558 101 558 168 558 c 0,25,26
 237 558 237 558 268.5 520 c 128,-1,27
 300 482 300 482 300 427 c 0,28,29
 300 387 300 387 279.5 353 c 128,-1,30
 259 319 259 319 217 278 c 0,31,32
 180 242 180 242 158 213.5 c 128,-1,33
 136 185 136 185 136 154 c 0,34,35
 136 120 136 120 158.5 102 c 128,-1,36
 181 84 181 84 221 84 c 0,37,38
 275 84 275 84 310.5 114 c 128,-1,39
 346 144 346 144 364 201 c 1,40,-1
 397 201 l 1,41,42
 412 150 412 150 439 117 c 128,-1,43
 466 84 466 84 526 84 c 0,44,45
 579 84 579 84 607.5 119 c 128,-1,46
 636 154 636 154 636 221 c 0,47,48
 636 293 636 293 604 346.5 c 128,-1,49
 572 400 572 400 519 430 c 128,-1,50
 466 460 466 460 402 460 c 2,51,-1
 396 460 l 1,52,-1
 402 547 l 1,53,-1
 511 547 l 2,54,55
 562 547 562 547 585.5 552.5 c 128,-1,56
 609 558 609 558 624 571 c 0,57,58
 646 590 646 590 646 629 c 0,59,60
 646 685 646 685 592 745 c 1,61,-1
 628 771 l 1,62,63
 661 736 661 736 680 693.5 c 128,-1,64
 699 651 699 651 699 605 c 0,65,66
 699 579 699 579 692 551.5 c 128,-1,67
 685 524 685 524 663 503 c 0,68,69
 646 487 646 487 620 475.5 c 128,-1,70
 594 464 594 464 541 461 c 1,71,72
 591 438 591 438 626.5 396.5 c 128,-1,73
 662 355 662 355 680.5 302.5 c 128,-1,74
 699 250 699 250 699 193 c 0,75,76
 699 102 699 102 656.5 45.5 c 128,-1,77
 614 -11 614 -11 540 -11 c 0,78,79
 476 -11 476 -11 437 25.5 c 128,-1,80
 398 62 398 62 378 125 c 1,81,82
 355 58 355 58 315.5 23.5 c 128,-1,83
 276 -11 276 -11 212 -11 c 256,0,1
378 -193 m 0,84,85
 354 -193 354 -193 341 -184 c 128,-1,86
 328 -175 328 -175 328 -153 c 0,87,88
 328 -138 328 -138 333.5 -113 c 128,-1,89
 339 -88 339 -88 347 -59 c 128,-1,90
 355 -30 355 -30 363 -6 c 1,91,-1
 391 -6 l 1,92,93
 400 -29 400 -29 408 -57 c 128,-1,94
 416 -85 416 -85 421 -110.5 c 128,-1,95
 426 -136 426 -136 426 -153 c 0,96,97
 426 -175 426 -175 413.5 -184 c 128,-1,98
 401 -193 401 -193 378 -193 c 0,84,85
EndSplineSet
Ligature2: "'psts' Post Base Substitutions lookup 42 subtable" bha_kannada zerowidthjoiner
Substitution2: "+BBUENAQ4BD0EOARHBD0EMARP +BD8EPgQ0BEEEQgQwBD0EPgQyBDoEMAAA lookup 9 subtable" bha_kannada.base
EndChar

StartChar: ya_kannada
Encoding: 3247 3247 51
Width: 1250
GlyphClass: 2
Flags: W
AnchorPoint: "+BBEENQQ3BEsEPARPBD0EPQQ+BDUA--2" 626 0 basechar 0
AnchorPoint: "+BBEENQQ3BEsEPARPBD0EPQQ+BDUA--0" 625 547 basechar 0
LayerCount: 2
Fore
SplineSet
287 -11 m 0,0,1
 206 -11 206 -11 154.5 29 c 128,-1,2
 103 69 103 69 78.5 134 c 128,-1,3
 54 199 54 199 54 273 c 0,4,5
 54 364 54 364 84 427.5 c 128,-1,6
 114 491 114 491 166.5 524.5 c 128,-1,7
 219 558 219 558 286 558 c 0,8,9
 358 558 358 558 410 523 c 128,-1,10
 462 488 462 488 490 424.5 c 128,-1,11
 518 361 518 361 518 273 c 0,12,13
 518 224 518 224 509 182 c 1,14,15
 541 138 541 138 579.5 111 c 128,-1,16
 618 84 618 84 677 84 c 0,17,18
 738 84 738 84 773.5 121 c 128,-1,19
 809 158 809 158 809 226 c 0,20,21
 809 296 809 296 778.5 348.5 c 128,-1,22
 748 401 748 401 696 430.5 c 128,-1,23
 644 460 644 460 579 460 c 2,24,-1
 560 460 l 1,25,-1
 566 547 l 1,26,-1
 685 547 l 2,27,28
 735 547 735 547 759 552.5 c 128,-1,29
 783 558 783 558 797 570 c 0,30,31
 820 588 820 588 820 628 c 0,32,33
 820 686 820 686 765 744 c 1,34,-1
 801 771 l 1,35,36
 835 735 835 735 853.5 693 c 128,-1,37
 872 651 872 651 872 605 c 0,38,39
 872 578 872 578 865.5 551 c 128,-1,40
 859 524 859 524 836 503 c 0,41,42
 819 487 819 487 794 475.5 c 128,-1,43
 769 464 769 464 719 461 c 1,44,45
 769 437 769 437 803 397 c 128,-1,46
 837 357 837 357 854.5 309.5 c 128,-1,47
 872 262 872 262 872 216 c 0,48,49
 872 188 872 188 868 162 c 1,50,51
 894 130 894 130 930 107 c 128,-1,52
 966 84 966 84 1021 84 c 0,53,54
 1068 84 1068 84 1096.5 104 c 128,-1,55
 1125 124 1125 124 1138 156 c 128,-1,56
 1151 188 1151 188 1151 224 c 0,57,58
 1151 311 1151 311 1103 358.5 c 128,-1,59
 1055 406 1055 406 970 434 c 1,60,61
 968 440 968 440 966 450.5 c 128,-1,62
 964 461 964 461 964 471 c 0,63,64
 964 491 964 491 972 506.5 c 128,-1,65
 980 522 980 522 998 522 c 0,66,67
 1023 522 1023 522 1056.5 499 c 128,-1,68
 1090 476 1090 476 1122.5 435 c 128,-1,69
 1155 394 1155 394 1176.5 339 c 128,-1,70
 1198 284 1198 284 1198 220 c 256,71,72
 1198 156 1198 156 1179 103.5 c 128,-1,73
 1160 51 1160 51 1121.5 20 c 128,-1,74
 1083 -11 1083 -11 1024 -11 c 0,75,76
 967 -11 967 -11 927 20.5 c 128,-1,77
 887 52 887 52 853 102 c 1,78,79
 835 53 835 53 794.5 21 c 128,-1,80
 754 -11 754 -11 687 -11 c 256,81,82
 620 -11 620 -11 574 26 c 128,-1,83
 528 63 528 63 490 121 c 1,84,85
 459 50 459 50 402.5 19.5 c 128,-1,86
 346 -11 346 -11 287 -11 c 0,0,1
288 84 m 0,87,88
 371 84 371 84 421.5 135 c 128,-1,89
 472 186 472 186 472 271 c 0,90,91
 472 357 472 357 425 409.5 c 128,-1,92
 378 462 378 462 287 462 c 0,93,94
 204 462 204 462 152 414 c 128,-1,95
 100 366 100 366 100 276 c 256,96,97
 100 186 100 186 153 135 c 128,-1,98
 206 84 206 84 288 84 c 0,87,88
EndSplineSet
Ligature2: "'psts' Post Base Substitutions lookup 42 subtable" ya_kannada zerowidthjoiner
Substitution2: "+BBUENAQ4BD0EOARHBD0EMARP +BD8EPgQ0BEEEQgQwBD0EPgQyBDoEMAAA lookup 9 subtable" ya_kannada.base
EndChar

StartChar: ra_kannada
Encoding: 3248 3248 52
Width: 629
GlyphClass: 2
Flags: W
AnchorPoint: "+BBEENQQ3BEsEPARPBD0EPQQ+BDUA--2" 314 0 basechar 0
AnchorPoint: "+BBEENQQ3BEsEPARPBD0EPQQ+BDUA--0" 314 547 basechar 0
LayerCount: 2
Fore
SplineSet
316 -11 m 0,0,1
 235 -11 235 -11 176.5 22 c 128,-1,2
 118 55 118 55 86 111.5 c 128,-1,3
 54 168 54 168 54 240 c 0,4,5
 54 317 54 317 88 372.5 c 128,-1,6
 122 428 122 428 182 460 c 1,7,-1
 59 460 l 1,8,-1
 66 547 l 1,9,-1
 388 547 l 2,10,11
 438 547 438 547 462 552.5 c 128,-1,12
 486 558 486 558 500 570 c 0,13,14
 523 588 523 588 523 628 c 0,15,16
 523 686 523 686 468 744 c 1,17,-1
 504 771 l 1,18,19
 538 735 538 735 556.5 693 c 128,-1,20
 575 651 575 651 575 605 c 0,21,22
 575 578 575 578 568.5 551 c 128,-1,23
 562 524 562 524 539 503 c 0,24,25
 524 489 524 489 502.5 478 c 128,-1,26
 481 467 481 467 442 463 c 1,27,28
 504 431 504 431 539.5 374.5 c 128,-1,29
 575 318 575 318 575 240 c 0,30,31
 575 172 575 172 544 115 c 128,-1,32
 513 58 513 58 455.5 23.5 c 128,-1,33
 398 -11 398 -11 316 -11 c 0,0,1
315 84 m 256,34,35
 378 84 378 84 421 109.5 c 128,-1,36
 464 135 464 135 485.5 177.5 c 128,-1,37
 507 220 507 220 507 271 c 0,38,39
 507 324 507 324 482 367 c 128,-1,40
 457 410 457 410 414 435.5 c 128,-1,41
 371 461 371 461 315 461 c 0,42,43
 260 461 260 461 216.5 435 c 128,-1,44
 173 409 173 409 148 366 c 128,-1,45
 123 323 123 323 123 271 c 0,46,47
 123 221 123 221 145 178.5 c 128,-1,48
 167 136 167 136 209.5 110 c 128,-1,49
 252 84 252 84 315 84 c 256,34,35
EndSplineSet
Ligature2: "'psts' Post Base Substitutions lookup 42 subtable" ra_kannada zerowidthjoiner
Substitution2: "+BBUENAQ4BD0EOARHBD0EMARP +BD8EPgQ0BEEEQgQwBD0EPgQyBDoEMAAA lookup 9 subtable" ra_kannada.base
Substitution2: "+BBUENAQ4BD0EOARHBD0EMARP +BD8EPgQ0BEEEQgQwBD0EPgQyBDoEMAAA lookup 6 subtable" rVocalic_kannada
EndChar

StartChar: rra_kannada
Encoding: 3249 3249 53
Width: 824
GlyphClass: 2
Flags: W
AnchorPoint: "+BBEENQQ3BEsEPARPBD0EPQQ+BDUA--2" 412 0 basechar 0
AnchorPoint: "+BBEENQQ3BEsEPARPBD0EPQQ+BDUA--0" 412 547 basechar 0
LayerCount: 2
Fore
SplineSet
243 -11 m 0,0,1
 187 -11 187 -11 143.5 22.5 c 128,-1,2
 100 56 100 56 76 115 c 128,-1,3
 52 174 52 174 52 250 c 0,4,5
 52 339 52 339 80 408.5 c 128,-1,6
 108 478 108 478 156 518 c 128,-1,7
 204 558 204 558 264 558 c 0,8,9
 319 558 319 558 352.5 524.5 c 128,-1,10
 386 491 386 491 386 439 c 0,11,12
 386 412 386 412 377 387.5 c 128,-1,13
 368 363 368 363 345 343 c 1,14,-1
 480 343 l 1,15,16
 457 363 457 363 448 387.5 c 128,-1,17
 439 412 439 412 439 439 c 0,18,19
 439 491 439 491 472.5 524.5 c 128,-1,20
 506 558 506 558 561 558 c 0,21,22
 622 558 622 558 669.5 518 c 128,-1,23
 717 478 717 478 744.5 408.5 c 128,-1,24
 772 339 772 339 772 250 c 0,25,26
 772 174 772 174 748 115 c 128,-1,27
 724 56 724 56 681 22.5 c 128,-1,28
 638 -11 638 -11 582 -11 c 0,29,30
 516 -11 516 -11 470.5 29 c 128,-1,31
 425 69 425 69 412 134 c 1,32,33
 400 69 400 69 354 29 c 128,-1,34
 308 -11 308 -11 243 -11 c 0,0,1
256 84 m 0,35,36
 318 84 318 84 349 117 c 128,-1,37
 380 150 380 150 394 202 c 1,38,-1
 431 202 l 1,39,40
 445 150 445 150 476 117 c 128,-1,41
 507 84 507 84 568 84 c 0,42,43
 610 84 610 84 644.5 106 c 128,-1,44
 679 128 679 128 699.5 171.5 c 128,-1,45
 720 215 720 215 720 280 c 0,46,47
 720 333 720 333 699 379 c 128,-1,48
 678 425 678 425 643 453.5 c 128,-1,49
 608 482 608 482 564 482 c 0,50,51
 527 482 527 482 508 463 c 128,-1,52
 489 444 489 444 489 417 c 0,53,54
 489 383 489 383 512 361.5 c 128,-1,55
 535 340 535 340 577 340 c 2,56,-1
 652 340 l 1,57,-1
 646 272 l 1,58,-1
 175 272 l 1,59,-1
 182 340 l 1,60,-1
 248 340 l 2,61,62
 290 340 290 340 312.5 361.5 c 128,-1,63
 335 383 335 383 335 417 c 0,64,65
 335 444 335 444 316.5 463 c 128,-1,66
 298 482 298 482 261 482 c 0,67,68
 217 482 217 482 181.5 453.5 c 128,-1,69
 146 425 146 425 125.5 379 c 128,-1,70
 105 333 105 333 105 280 c 0,71,72
 105 215 105 215 125.5 171.5 c 128,-1,73
 146 128 146 128 180.5 106 c 128,-1,74
 215 84 215 84 256 84 c 0,35,36
EndSplineSet
Ligature2: "'psts' Post Base Substitutions lookup 42 subtable" rra_kannada zerowidthjoiner
Substitution2: "+BBUENAQ4BD0EOARHBD0EMARP +BD8EPgQ0BEEEQgQwBD0EPgQyBDoEMAAA lookup 9 subtable" rra_kannada.base
EndChar

StartChar: la_kannada
Encoding: 3250 3250 54
Width: 730
GlyphClass: 2
Flags: W
AnchorPoint: "+BBEENQQ3BEsEPARPBD0EPQQ+BDUA--2" 365 0 basechar 0
AnchorPoint: "+BBEENQQ3BEsEPARPBD0EPQQ+BDUA--0" 365 547 basechar 0
LayerCount: 2
Fore
SplineSet
366 -11 m 0,0,1
 217 -11 217 -11 134.5 67.5 c 128,-1,2
 52 146 52 146 52 294 c 0,3,4
 52 375 52 375 79 434 c 128,-1,5
 106 493 106 493 152.5 525.5 c 128,-1,6
 199 558 199 558 256 558 c 0,7,8
 299 558 299 558 325.5 539 c 128,-1,9
 352 520 352 520 364.5 488.5 c 128,-1,10
 377 457 377 457 377 419 c 0,11,12
 377 357 377 357 348.5 319.5 c 128,-1,13
 320 282 320 282 264 282 c 0,14,15
 209 282 209 282 179.5 316.5 c 128,-1,16
 150 351 150 351 150 412 c 0,17,18
 150 426 150 426 152 438 c 128,-1,19
 154 450 154 450 157 459 c 1,20,21
 128 429 128 429 113 391.5 c 128,-1,22
 98 354 98 354 98 302 c 0,23,24
 98 207 98 207 163 147 c 128,-1,25
 228 87 228 87 362 87 c 0,26,27
 456 87 456 87 515.5 112.5 c 128,-1,28
 575 138 575 138 603.5 182.5 c 128,-1,29
 632 227 632 227 632 283 c 0,30,31
 632 342 632 342 600 391.5 c 128,-1,32
 568 441 568 441 478 475 c 1,33,34
 472 492 472 492 472 507 c 0,35,36
 472 530 472 530 481 544 c 128,-1,37
 490 558 490 558 506 558 c 0,38,39
 530 558 530 558 559.5 537 c 128,-1,40
 589 516 589 516 616 478.5 c 128,-1,41
 643 441 643 441 660.5 393 c 128,-1,42
 678 345 678 345 678 291 c 0,43,44
 678 149 678 149 600.5 69 c 128,-1,45
 523 -11 523 -11 366 -11 c 0,0,1
262 356 m 0,46,47
 300 356 300 356 316.5 374.5 c 128,-1,48
 333 393 333 393 333 419 c 0,49,50
 333 443 333 443 316 462.5 c 128,-1,51
 299 482 299 482 263 482 c 0,52,53
 228 482 228 482 209.5 464 c 128,-1,54
 191 446 191 446 191 419 c 0,55,56
 191 391 191 391 209.5 373.5 c 128,-1,57
 228 356 228 356 262 356 c 0,46,47
EndSplineSet
Ligature2: "'psts' Post Base Substitutions lookup 42 subtable" la_kannada zerowidthjoiner
Substitution2: "+BBUENAQ4BD0EOARHBD0EMARP +BD8EPgQ0BEEEQgQwBD0EPgQyBDoEMAAA lookup 9 subtable" la_kannada.base
EndChar

StartChar: lla_kannada
Encoding: 3251 3251 55
Width: 661
GlyphClass: 2
Flags: W
AnchorPoint: "+BBEENQQ3BEsEPARPBD0EPQQ+BDUA--2" 328 0 basechar 0
AnchorPoint: "+BBEENQQ3BEsEPARPBD0EPQQ+BDUA--0" 330 547 basechar 0
LayerCount: 2
Fore
SplineSet
332 -11 m 0,0,1
 271 -11 271 -11 237.5 19 c 128,-1,2
 204 49 204 49 204 99 c 0,3,4
 204 115 204 115 211.5 135.5 c 128,-1,5
 219 156 219 156 239 171 c 1,6,7
 145 175 145 175 92.5 226 c 128,-1,8
 40 277 40 277 40 361 c 0,9,10
 40 414 40 414 61 458.5 c 128,-1,11
 82 503 82 503 122 530.5 c 128,-1,12
 162 558 162 558 219 558 c 0,13,14
 278 558 278 558 305.5 523 c 128,-1,15
 333 488 333 488 333 438 c 0,16,17
 333 384 333 384 306.5 350.5 c 128,-1,18
 280 317 280 317 230 317 c 256,19,20
 180 317 180 317 153.5 347.5 c 128,-1,21
 127 378 127 378 127 430 c 0,22,23
 127 445 127 445 130 457 c 128,-1,24
 133 469 133 469 136 475 c 1,25,26
 107 453 107 453 96 426.5 c 128,-1,27
 85 400 85 400 85 375 c 0,28,29
 85 340 85 340 99.5 315 c 128,-1,30
 114 290 114 290 150.5 275.5 c 128,-1,31
 187 261 187 261 254 256 c 0,32,33
 301 252 301 252 333 246 c 128,-1,34
 365 240 365 240 389 226 c 1,35,36
 433 231 433 231 469.5 243.5 c 128,-1,37
 506 256 506 256 527.5 280.5 c 128,-1,38
 549 305 549 305 549 344 c 256,39,40
 549 383 549 383 523.5 413 c 128,-1,41
 498 443 498 443 443 460 c 0,42,43
 435 460 435 460 426 460 c 2,44,-1
 389 460 l 1,45,-1
 396 547 l 1,46,-1
 430 547 l 2,47,48
 480 547 480 547 504 552.5 c 128,-1,49
 528 558 528 558 542 570 c 0,50,51
 565 588 565 588 565 628 c 0,52,53
 565 686 565 686 510 744 c 1,54,-1
 546 771 l 1,55,56
 580 735 580 735 598.5 693 c 128,-1,57
 617 651 617 651 617 605 c 0,58,59
 617 578 617 578 610.5 551 c 128,-1,60
 604 524 604 524 581 503 c 0,61,62
 569 492 569 492 554 483 c 128,-1,63
 539 474 539 474 514 468 c 1,64,65
 563 448 563 448 588 413.5 c 128,-1,66
 613 379 613 379 613 339 c 0,67,68
 613 289 613 289 590 257.5 c 128,-1,69
 567 226 567 226 527 208 c 128,-1,70
 487 190 487 190 436 181 c 1,71,72
 462 150 462 150 462 104 c 0,73,74
 462 55 462 55 433 22 c 128,-1,75
 404 -11 404 -11 332 -11 c 0,0,1
229 385 m 0,76,77
 260 385 260 385 275 399.5 c 128,-1,78
 290 414 290 414 290 437 c 0,79,80
 290 457 290 457 274.5 472 c 128,-1,81
 259 487 259 487 229 487 c 0,82,83
 198 487 198 487 182.5 473 c 128,-1,84
 167 459 167 459 167 436 c 0,85,86
 167 385 167 385 229 385 c 0,76,77
334 63 m 0,87,88
 372 63 372 63 392 78 c 128,-1,89
 412 93 412 93 412 119 c 0,90,91
 412 146 412 146 392 161 c 128,-1,92
 372 176 372 176 335 176 c 0,93,94
 296 176 296 176 277.5 160 c 128,-1,95
 259 144 259 144 259 118 c 0,96,97
 259 94 259 94 278 78.5 c 128,-1,98
 297 63 297 63 334 63 c 0,87,88
EndSplineSet
Ligature2: "'psts' Post Base Substitutions lookup 42 subtable" lla_kannada zerowidthjoiner
Substitution2: "+BBUENAQ4BD0EOARHBD0EMARP +BD8EPgQ0BEEEQgQwBD0EPgQyBDoEMAAA lookup 9 subtable" lla_kannada.base
EndChar

StartChar: va_kannada
Encoding: 3253 3253 56
Width: 751
GlyphClass: 2
Flags: W
AnchorPoint: "+BBEENQQ3BEsEPARPBD0EPQQ+BDUA--2" 379 0 basechar 0
AnchorPoint: "+BBEENQQ3BEsEPARPBD0EPQQ+BDUA--0" 375 547 basechar 0
LayerCount: 2
Fore
SplineSet
212 -11 m 0,0,1
 160 -11 160 -11 124.5 14 c 128,-1,2
 89 39 89 39 71.5 80 c 128,-1,3
 54 121 54 121 54 168 c 0,4,5
 54 232 54 232 88.5 275.5 c 128,-1,6
 123 319 123 319 183 319 c 0,7,8
 230 319 230 319 255.5 293.5 c 128,-1,9
 281 268 281 268 281 229 c 0,10,11
 281 191 281 191 257 169 c 128,-1,12
 233 147 233 147 190 141 c 1,13,-1
 184 178 l 1,14,15
 220 186 220 186 220 219 c 0,16,17
 220 237 220 237 208 248.5 c 128,-1,18
 196 260 196 260 171 260 c 0,19,20
 138 260 138 260 118.5 238.5 c 128,-1,21
 99 217 99 217 99 182 c 0,22,23
 99 133 99 133 131 108.5 c 128,-1,24
 163 84 163 84 223 84 c 0,25,26
 330 84 330 84 362 200 c 1,27,-1
 396 200 l 1,28,29
 412 148 412 148 438.5 116 c 128,-1,30
 465 84 465 84 521 84 c 0,31,32
 580 84 580 84 603.5 122 c 128,-1,33
 627 160 627 160 627 215 c 0,34,35
 627 283 627 283 595.5 338.5 c 128,-1,36
 564 394 564 394 507.5 427 c 128,-1,37
 451 460 451 460 375 460 c 2,38,-1
 59 460 l 1,39,-1
 65 547 l 1,40,-1
 510 547 l 2,41,42
 560 547 560 547 584 552.5 c 128,-1,43
 608 558 608 558 622 570 c 0,44,45
 645 588 645 588 645 628 c 0,46,47
 645 686 645 686 590 744 c 1,48,-1
 626 771 l 1,49,50
 660 735 660 735 678.5 693 c 128,-1,51
 697 651 697 651 697 605 c 0,52,53
 697 578 697 578 690.5 551 c 128,-1,54
 684 524 684 524 661 503 c 0,55,56
 643 486 643 486 615 474 c 128,-1,57
 587 462 587 462 529 460 c 1,58,59
 588 434 588 434 625 390 c 128,-1,60
 662 346 662 346 679.5 295 c 128,-1,61
 697 244 697 244 697 196 c 0,62,63
 697 162 697 162 689 125.5 c 128,-1,64
 681 89 681 89 661.5 58 c 128,-1,65
 642 27 642 27 609.5 8 c 128,-1,66
 577 -11 577 -11 529 -11 c 0,67,68
 467 -11 467 -11 430.5 25 c 128,-1,69
 394 61 394 61 376 124 c 1,70,71
 356 63 356 63 318 26 c 128,-1,72
 280 -11 280 -11 212 -11 c 0,0,1
EndSplineSet
Ligature2: "'psts' Post Base Substitutions lookup 42 subtable" va_kannada zerowidthjoiner
Substitution2: "+BBUENAQ4BD0EOARHBD0EMARP +BD8EPgQ0BEEEQgQwBD0EPgQyBDoEMAAA lookup 9 subtable" va_kannada.base
EndChar

StartChar: sha_kannada
Encoding: 3254 3254 57
Width: 651
GlyphClass: 2
Flags: W
AnchorPoint: "+BBEENQQ3BEsEPARPBD0EPQQ+BDUA--2" 324 0 basechar 0
AnchorPoint: "+BBEENQQ3BEsEPARPBD0EPQQ+BDUA--0" 325 547 basechar 0
LayerCount: 2
Fore
SplineSet
257 -11 m 0,0,1
 159 -11 159 -11 105.5 25.5 c 128,-1,2
 52 62 52 62 52 121 c 0,3,4
 52 164 52 164 75.5 189 c 128,-1,5
 99 214 99 214 135.5 229 c 128,-1,6
 172 244 172 244 213.5 255.5 c 128,-1,7
 255 267 255 267 291.5 280.5 c 128,-1,8
 328 294 328 294 351.5 317 c 128,-1,9
 375 340 375 340 375 378 c 0,10,11
 375 419 375 419 349 441.5 c 128,-1,12
 323 464 323 464 276 464 c 0,13,14
 236 464 236 464 212 446.5 c 128,-1,15
 188 429 188 429 188 399 c 0,16,17
 188 372 188 372 204 359 c 1,18,-1
 204 364 l 2,19,20
 204 385 204 385 218 397.5 c 128,-1,21
 232 410 232 410 251 410 c 0,22,23
 275 410 275 410 288 395 c 128,-1,24
 301 380 301 380 301 358 c 0,25,26
 301 333 301 333 284 319 c 128,-1,27
 267 305 267 305 238 305 c 0,28,29
 200 305 200 305 172 331.5 c 128,-1,30
 144 358 144 358 144 397 c 0,31,32
 144 434 144 434 164 460 c 1,33,-1
 57 460 l 1,34,-1
 63 547 l 1,35,-1
 410 547 l 2,36,37
 460 547 460 547 484 552.5 c 128,-1,38
 508 558 508 558 522 570 c 0,39,40
 545 588 545 588 545 628 c 0,41,42
 545 686 545 686 490 744 c 1,43,-1
 526 771 l 1,44,45
 560 735 560 735 578.5 693 c 128,-1,46
 597 651 597 651 597 605 c 0,47,48
 597 578 597 578 590.5 551 c 128,-1,49
 584 524 584 524 561 503 c 0,50,51
 546 488 546 488 523.5 477.5 c 128,-1,52
 501 467 501 467 459 462 c 1,53,54
 524 430 524 430 560.5 374 c 128,-1,55
 597 318 597 318 597 250 c 0,56,57
 597 173 597 173 555 114 c 128,-1,58
 513 55 513 55 437 22 c 128,-1,59
 361 -11 361 -11 257 -11 c 0,0,1
117 140 m 0,60,61
 117 113 117 113 151.5 98.5 c 128,-1,62
 186 84 186 84 251 84 c 0,63,64
 328 84 328 84 391.5 108.5 c 128,-1,65
 455 133 455 133 493 177.5 c 128,-1,66
 531 222 531 222 531 283 c 0,67,68
 531 345 531 345 497.5 386.5 c 128,-1,69
 464 428 464 428 401 453 c 1,70,71
 430 420 430 420 430 375 c 0,72,73
 430 331 430 331 407.5 302 c 128,-1,74
 385 273 385 273 349 255 c 128,-1,75
 313 237 313 237 273.5 225 c 128,-1,76
 234 213 234 213 198 202.5 c 128,-1,77
 162 192 162 192 139.5 177.5 c 128,-1,78
 117 163 117 163 117 140 c 0,60,61
EndSplineSet
Ligature2: "'psts' Post Base Substitutions lookup 42 subtable" sha_kannada zerowidthjoiner
Substitution2: "+BBUENAQ4BD0EOARHBD0EMARP +BD8EPgQ0BEEEQgQwBD0EPgQyBDoEMAAA lookup 9 subtable" sha_kannada.base
EndChar

StartChar: ssa_kannada
Encoding: 3255 3255 58
Width: 755
GlyphClass: 2
Flags: W
AnchorPoint: "+BBEENQQ3BEsEPARPBD0EPQQ+BDUA--2" 379 0 basechar 0
AnchorPoint: "+BBEENQQ3BEsEPARPBD0EPQQ+BDUA--0" 377 547 basechar 0
LayerCount: 2
Fore
SplineSet
59 460 m 1,0,-1
 65 547 l 1,1,-1
 498 547 l 2,2,3
 548 547 548 547 572 552.5 c 128,-1,4
 596 558 596 558 610 570 c 0,5,6
 633 588 633 588 633 628 c 0,7,8
 633 686 633 686 578 744 c 1,9,-1
 614 771 l 1,10,11
 648 735 648 735 666.5 693 c 128,-1,12
 685 651 685 651 685 605 c 0,13,14
 685 578 685 578 678.5 551 c 128,-1,15
 672 524 672 524 649 503 c 0,16,17
 636 491 636 491 618 481 c 128,-1,18
 600 471 600 471 571 465.5 c 128,-1,19
 542 460 542 460 494 460 c 2,20,-1
 59 460 l 1,0,-1
379 304 m 256,21,22
 353 304 353 304 337.5 320 c 128,-1,23
 322 336 322 336 322 360 c 256,24,25
 322 384 322 384 338 400 c 128,-1,26
 354 416 354 416 379 416 c 0,27,28
 405 416 405 416 420.5 400 c 128,-1,29
 436 384 436 384 436 360 c 0,30,31
 436 337 436 337 420.5 320.5 c 128,-1,32
 405 304 405 304 379 304 c 256,21,22
212 -11 m 0,33,34
 160 -11 160 -11 124.5 14 c 128,-1,35
 89 39 89 39 71.5 80 c 128,-1,36
 54 121 54 121 54 168 c 0,37,38
 54 232 54 232 88.5 275.5 c 128,-1,39
 123 319 123 319 183 319 c 0,40,41
 230 319 230 319 255.5 293.5 c 128,-1,42
 281 268 281 268 281 229 c 0,43,44
 281 191 281 191 257 169 c 128,-1,45
 233 147 233 147 190 141 c 1,46,-1
 184 178 l 1,47,48
 220 186 220 186 220 219 c 0,49,50
 220 237 220 237 208 248.5 c 128,-1,51
 196 260 196 260 171 260 c 0,52,53
 138 260 138 260 118.5 238.5 c 128,-1,54
 99 217 99 217 99 182 c 0,55,56
 99 133 99 133 131 108.5 c 128,-1,57
 163 84 163 84 223 84 c 0,58,59
 330 84 330 84 362 200 c 1,60,-1
 396 200 l 1,61,62
 411 150 411 150 439.5 117 c 128,-1,63
 468 84 468 84 529 84 c 0,64,65
 550 84 550 84 568 90 c 1,66,-1
 464 259 l 1,67,-1
 497 280 l 1,68,-1
 614 123 l 1,69,70
 638 155 638 155 638 209 c 0,71,72
 638 268 638 268 612 309 c 128,-1,73
 586 350 586 350 554 380 c 1,74,75
 559 395 559 395 569.5 405 c 128,-1,76
 580 415 580 415 594 415 c 0,77,78
 618 415 618 415 638.5 387 c 128,-1,79
 659 359 659 359 672 312 c 128,-1,80
 685 265 685 265 685 208 c 0,81,82
 685 178 685 178 677.5 140.5 c 128,-1,83
 670 103 670 103 653 70 c 1,84,-1
 725 -27 l 1,85,-1
 664 -67 l 1,86,-1
 612 17 l 1,87,88
 597 4 597 4 577.5 -3.5 c 128,-1,89
 558 -11 558 -11 534 -11 c 0,90,91
 472 -11 472 -11 433.5 26.5 c 128,-1,92
 395 64 395 64 376 124 c 1,93,94
 356 63 356 63 318.5 26 c 128,-1,95
 281 -11 281 -11 212 -11 c 0,33,34
EndSplineSet
Ligature2: "'psts' Post Base Substitutions lookup 42 subtable" ssa_kannada zerowidthjoiner
Substitution2: "+BBUENAQ4BD0EOARHBD0EMARP +BD8EPgQ0BEEEQgQwBD0EPgQyBDoEMAAA lookup 9 subtable" ssa_kannada.base
EndChar

StartChar: sa_kannada
Encoding: 3256 3256 59
Width: 659
GlyphClass: 2
Flags: W
AnchorPoint: "+BBEENQQ3BEsEPARPBD0EPQQ+BDUA--2" 327 0 basechar 0
AnchorPoint: "+BBEENQQ3BEsEPARPBD0EPQQ+BDUA--0" 329 547 basechar 0
LayerCount: 2
Fore
SplineSet
55 460 m 1,0,-1
 62 547 l 1,1,-1
 418 547 l 2,2,3
 468 547 468 547 492 552.5 c 128,-1,4
 516 558 516 558 530 570 c 0,5,6
 553 588 553 588 553 628 c 0,7,8
 553 686 553 686 498 744 c 1,9,-1
 534 771 l 1,10,11
 568 735 568 735 586.5 693 c 128,-1,12
 605 651 605 651 605 605 c 0,13,14
 605 578 605 578 598.5 551 c 128,-1,15
 592 524 592 524 569 503 c 0,16,17
 556 491 556 491 538 481 c 128,-1,18
 520 471 520 471 491 465.5 c 128,-1,19
 462 460 462 460 414 460 c 2,20,-1
 55 460 l 1,0,-1
301 302 m 0,21,22
 276 302 276 302 260 319 c 128,-1,23
 244 336 244 336 244 358 c 0,24,25
 244 382 244 382 260 398.5 c 128,-1,26
 276 415 276 415 301 415 c 256,27,28
 326 415 326 415 341 398.5 c 128,-1,29
 356 382 356 382 356 358 c 0,30,31
 356 336 356 336 340.5 319 c 128,-1,32
 325 302 325 302 301 302 c 0,21,22
61 -11 m 1,33,34
 57 4 57 4 53.5 23.5 c 128,-1,35
 50 43 50 43 50 65 c 0,36,37
 50 152 50 152 101 204.5 c 128,-1,38
 152 257 152 257 234 257 c 0,39,40
 291 257 291 257 328.5 234.5 c 128,-1,41
 366 212 366 212 392 178 c 128,-1,42
 418 144 418 144 440 109 c 0,43,44
 450 94 450 94 459.5 86.5 c 128,-1,45
 469 79 469 79 486 79 c 0,46,47
 518 79 518 79 533 111 c 128,-1,48
 548 143 548 143 548 187 c 0,49,50
 548 245 548 245 535 290.5 c 128,-1,51
 522 336 522 336 499 380 c 1,52,-1
 539 398 l 1,53,54
 563 355 563 355 584 300 c 128,-1,55
 605 245 605 245 605 171 c 0,56,57
 605 80 605 80 574.5 34.5 c 128,-1,58
 544 -11 544 -11 500 -11 c 0,59,60
 471 -11 471 -11 454 5.5 c 128,-1,61
 437 22 437 22 420 49 c 0,62,63
 399 84 399 84 376 110 c 128,-1,64
 353 136 353 136 321 150.5 c 128,-1,65
 289 165 289 165 241 165 c 0,66,67
 174 165 174 165 135.5 131 c 128,-1,68
 97 97 97 97 97 39 c 0,69,70
 97 16 97 16 103 -7 c 1,71,-1
 61 -11 l 1,33,34
EndSplineSet
Ligature2: "'psts' Post Base Substitutions lookup 42 subtable" sa_kannada zerowidthjoiner
Substitution2: "+BBUENAQ4BD0EOARHBD0EMARP +BD8EPgQ0BEEEQgQwBD0EPgQyBDoEMAAA lookup 9 subtable" sa_kannada.base
EndChar

StartChar: ha_kannada
Encoding: 3257 3257 60
Width: 798
GlyphClass: 2
Flags: W
AnchorPoint: "+BBEENQQ3BEsEPARPBD0EPQQ+BDUA--2" 401 0 basechar 0
AnchorPoint: "+BBEENQQ3BEsEPARPBD0EPQQ+BDUA--0" 399 547 basechar 0
LayerCount: 2
Fore
SplineSet
245 -11 m 0,0,1
 189 -11 189 -11 147 14.5 c 128,-1,2
 105 40 105 40 81.5 84 c 128,-1,3
 58 128 58 128 58 185 c 256,4,5
 58 242 58 242 82.5 285.5 c 128,-1,6
 107 329 107 329 148 353.5 c 128,-1,7
 189 378 189 378 238 378 c 0,8,9
 275 378 275 378 305.5 364.5 c 128,-1,10
 336 351 336 351 359 328 c 1,11,12
 339 387 339 387 283.5 423.5 c 128,-1,13
 228 460 228 460 127 460 c 2,14,-1
 54 460 l 1,15,-1
 61 547 l 1,16,-1
 542 547 l 2,17,18
 592 547 592 547 616 552.5 c 128,-1,19
 640 558 640 558 654 570 c 0,20,21
 677 588 677 588 677 628 c 0,22,23
 677 686 677 686 622 744 c 1,24,-1
 658 771 l 1,25,26
 692 735 692 735 710.5 693 c 128,-1,27
 729 651 729 651 729 605 c 0,28,29
 729 578 729 578 722.5 551 c 128,-1,30
 716 524 716 524 693 503 c 0,31,32
 680 491 680 491 662 481 c 128,-1,33
 644 471 644 471 615 465.5 c 128,-1,34
 586 460 586 460 538 460 c 2,35,-1
 295 460 l 1,36,37
 341 438 341 438 370.5 393 c 128,-1,38
 400 348 400 348 409 287 c 1,39,40
 431 328 431 328 471 353 c 128,-1,41
 511 378 511 378 564 378 c 0,42,43
 620 378 620 378 660 351.5 c 128,-1,44
 700 325 700 325 722 280.5 c 128,-1,45
 744 236 744 236 744 182 c 0,46,47
 744 126 744 126 721.5 82.5 c 128,-1,48
 699 39 699 39 660 14 c 128,-1,49
 621 -11 621 -11 570 -11 c 0,50,51
 508 -11 508 -11 465 19 c 128,-1,52
 422 49 422 49 402 98 c 1,53,54
 384 48 384 48 344.5 18.5 c 128,-1,55
 305 -11 305 -11 245 -11 c 0,0,1
244 80 m 256,56,57
 297 80 297 80 333 114.5 c 128,-1,58
 369 149 369 149 369 201 c 0,59,60
 369 254 369 254 333.5 289.5 c 128,-1,61
 298 325 298 325 244 325 c 0,62,63
 191 325 191 325 155 289.5 c 128,-1,64
 119 254 119 254 119 201 c 0,65,66
 119 149 119 149 155 114.5 c 128,-1,67
 191 80 191 80 244 80 c 256,56,57
559 80 m 0,68,69
 612 80 612 80 647.5 114.5 c 128,-1,70
 683 149 683 149 683 201 c 0,71,72
 683 254 683 254 647.5 289.5 c 128,-1,73
 612 325 612 325 559 325 c 0,74,75
 505 325 505 325 469 289.5 c 128,-1,76
 433 254 433 254 433 201 c 0,77,78
 433 149 433 149 469 114.5 c 128,-1,79
 505 80 505 80 559 80 c 0,68,69
EndSplineSet
Ligature2: "'psts' Post Base Substitutions lookup 42 subtable" ha_kannada zerowidthjoiner
Substitution2: "+BBUENAQ4BD0EOARHBD0EMARP +BD8EPgQ0BEEEQgQwBD0EPgQyBDoEMAAA lookup 9 subtable" ha_kannada.base
EndChar

StartChar: llla_kannada
Encoding: 3294 3294 61
Width: 824
GlyphClass: 2
Flags: W
AnchorPoint: "+BBEENQQ3BEsEPARPBD0EPQQ+BDUA--2" 412 0 basechar 0
AnchorPoint: "+BBEENQQ3BEsEPARPBD0EPQQ+BDUA--0" 412 547 basechar 0
LayerCount: 2
Fore
SplineSet
243 -11 m 0,0,1
 187 -11 187 -11 143.5 22.5 c 128,-1,2
 100 56 100 56 76 115 c 128,-1,3
 52 174 52 174 52 250 c 0,4,5
 52 339 52 339 79 408.5 c 128,-1,6
 106 478 106 478 152 518 c 128,-1,7
 198 558 198 558 256 558 c 0,8,9
 317 558 317 558 351.5 519 c 128,-1,10
 386 480 386 480 386 419 c 0,11,12
 386 364 386 364 354 325 c 128,-1,13
 322 286 322 286 263 286 c 0,14,15
 212 286 212 286 181 316.5 c 128,-1,16
 150 347 150 347 150 402 c 0,17,18
 150 424 150 424 156 443 c 1,19,20
 133 414 133 414 119 371.5 c 128,-1,21
 105 329 105 329 105 280 c 0,22,23
 105 215 105 215 125.5 171.5 c 128,-1,24
 146 128 146 128 180.5 106 c 128,-1,25
 215 84 215 84 256 84 c 0,26,27
 318 84 318 84 349 117 c 128,-1,28
 380 150 380 150 394 200 c 1,29,-1
 431 200 l 1,30,31
 445 150 445 150 476 117 c 128,-1,32
 507 84 507 84 568 84 c 0,33,34
 610 84 610 84 644.5 106 c 128,-1,35
 679 128 679 128 699.5 171.5 c 128,-1,36
 720 215 720 215 720 280 c 0,37,38
 720 329 720 329 706 371 c 128,-1,39
 692 413 692 413 669 442 c 1,40,41
 675 423 675 423 675 402 c 0,42,43
 675 347 675 347 644 316.5 c 128,-1,44
 613 286 613 286 562 286 c 0,45,46
 502 286 502 286 470.5 325 c 128,-1,47
 439 364 439 364 439 419 c 0,48,49
 439 480 439 480 473.5 519 c 128,-1,50
 508 558 508 558 568 558 c 0,51,52
 627 558 627 558 673 518 c 128,-1,53
 719 478 719 478 745.5 408.5 c 128,-1,54
 772 339 772 339 772 250 c 0,55,56
 772 174 772 174 748 115 c 128,-1,57
 724 56 724 56 681 22.5 c 128,-1,58
 638 -11 638 -11 582 -11 c 0,59,60
 516 -11 516 -11 470.5 28.5 c 128,-1,61
 425 68 425 68 412 132 c 1,62,63
 400 68 400 68 354 28.5 c 128,-1,64
 308 -11 308 -11 243 -11 c 0,0,1
264 355 m 0,65,66
 302 355 302 355 318.5 373.5 c 128,-1,67
 335 392 335 392 335 419 c 0,68,69
 335 443 335 443 318 462.5 c 128,-1,70
 301 482 301 482 266 482 c 0,71,72
 230 482 230 482 211.5 464 c 128,-1,73
 193 446 193 446 193 419 c 0,74,75
 193 390 193 390 211.5 372.5 c 128,-1,76
 230 355 230 355 264 355 c 0,65,66
561 355 m 0,77,78
 595 355 595 355 613 372.5 c 128,-1,79
 631 390 631 390 631 419 c 0,80,81
 631 446 631 446 612.5 464 c 128,-1,82
 594 482 594 482 559 482 c 0,83,84
 523 482 523 482 506.5 462.5 c 128,-1,85
 490 443 490 443 490 419 c 0,86,87
 490 392 490 392 506.5 373.5 c 128,-1,88
 523 355 523 355 561 355 c 0,77,78
EndSplineSet
Ligature2: "'psts' Post Base Substitutions lookup 42 subtable" llla_kannada zerowidthjoiner
Substitution2: "+BBUENAQ4BD0EOARHBD0EMARP +BD8EPgQ0BEEEQgQwBD0EPgQyBDoEMAAA lookup 9 subtable" llla_kannada.base
EndChar

StartChar: nukta_kannada
Encoding: 3260 3260 62
Width: 0
GlyphClass: 4
Flags: W
AnchorPoint: "+BBEENQQ3BEsEPARPBD0EPQQ+BDUA--4" -297 0 mark 0
AnchorPoint: "+BBEENQQ3BEsEPARPBD0EPQQ+BDUA--2" -297 0 mark 0
LayerCount: 2
Fore
SplineSet
-173 -167 m 0,0,1
 -192 -167 -192 -167 -206 -154.5 c 128,-1,2
 -220 -142 -220 -142 -220 -121 c 0,3,4
 -220 -99 -220 -99 -206 -87 c 128,-1,5
 -192 -75 -192 -75 -173 -75 c 256,6,7
 -154 -75 -154 -75 -141 -87.5 c 128,-1,8
 -128 -100 -128 -100 -128 -121 c 0,9,10
 -128 -143 -128 -143 -141.5 -155 c 128,-1,11
 -155 -167 -155 -167 -173 -167 c 0,0,1
-419 -167 m 0,12,13
 -438 -167 -438 -167 -452 -154.5 c 128,-1,14
 -466 -142 -466 -142 -466 -121 c 0,15,16
 -466 -99 -466 -99 -452 -87 c 128,-1,17
 -438 -75 -438 -75 -419 -75 c 256,18,19
 -400 -75 -400 -75 -387 -87.5 c 128,-1,20
 -374 -100 -374 -100 -374 -121 c 0,21,22
 -374 -143 -374 -143 -387.5 -155 c 128,-1,23
 -401 -167 -401 -167 -419 -167 c 0,12,13
EndSplineSet
Substitution2: "+BBUENAQ4BD0EOARHBD0EMARP +BD8EPgQ0BEEEQgQwBD0EPgQyBDoEMAAA lookup 8 subtable" nukta_kannada.calt.01
Substitution2: "+BBUENAQ4BD0EOARHBD0EMARP +BD8EPgQ0BEEEQgQwBD0EPgQyBDoEMAAA lookup 7 subtable" nukta_kannada.calt
EndChar

StartChar: avagraha_kannada
Encoding: 3261 3261 63
Width: 455
GlyphClass: 1
Flags: W
LayerCount: 2
Fore
SplineSet
271 -6 m 0,0,1
 204 -6 204 -6 153 22.5 c 128,-1,2
 102 51 102 51 63.5 95 c 128,-1,3
 25 139 25 139 -5 185 c 1,4,-1
 28 206 l 1,5,6
 78 139 78 139 132.5 98.5 c 128,-1,7
 187 58 187 58 251 58 c 0,8,9
 291 58 291 58 318 81 c 128,-1,10
 345 104 345 104 345 144 c 0,11,12
 345 180 345 180 321 210 c 128,-1,13
 297 240 297 240 262 268 c 128,-1,14
 227 296 227 296 191.5 325 c 128,-1,15
 156 354 156 354 132 387 c 128,-1,16
 108 420 108 420 108 461 c 0,17,18
 108 495 108 495 133.5 521 c 128,-1,19
 159 547 159 547 212 547 c 2,20,-1
 440 547 l 1,21,-1
 433 460 l 1,22,-1
 240 460 l 2,23,24
 191 460 191 460 191 423 c 0,25,26
 191 398 191 398 215 373.5 c 128,-1,27
 239 349 239 349 274.5 323 c 128,-1,28
 310 297 310 297 346 267 c 128,-1,29
 382 237 382 237 406 202 c 128,-1,30
 430 167 430 167 430 124 c 0,31,32
 430 66 430 66 385 30 c 128,-1,33
 340 -6 340 -6 271 -6 c 0,0,1
EndSplineSet
EndChar

StartChar: aaMatra_kannada
Encoding: 3262 3262 64
Width: 388
GlyphClass: 4
Flags: W
LayerCount: 2
Fore
SplineSet
154 -11 m 0,0,1
 80 -11 80 -11 38 32.5 c 128,-1,2
 -4 76 -4 76 -4 143 c 0,3,4
 -4 186 -4 186 12.5 217 c 128,-1,5
 29 248 29 248 56 265 c 128,-1,6
 83 282 83 282 113 282 c 0,7,8
 145 282 145 282 162 264 c 128,-1,9
 179 246 179 246 179 217 c 0,10,11
 179 194 179 194 165.5 177.5 c 128,-1,12
 152 161 152 161 123 161 c 0,13,14
 100 161 100 161 85 173 c 128,-1,15
 70 185 70 185 70 213 c 2,16,-1
 70 218 l 1,17,18
 40 195 40 195 40 149 c 0,19,20
 40 110 40 110 68 87 c 128,-1,21
 96 64 96 64 146 64 c 0,22,23
 214 64 214 64 252 113 c 128,-1,24
 290 162 290 162 290 247 c 0,25,26
 290 362 290 362 222.5 411 c 128,-1,27
 155 460 155 460 23 460 c 2,28,-1
 -239 460 l 1,29,-1
 -232 547 l 1,30,-1
 32 547 l 2,31,32
 187 547 187 547 261.5 473.5 c 128,-1,33
 336 400 336 400 336 245 c 0,34,35
 336 173 336 173 316 115 c 128,-1,36
 296 57 296 57 255.5 23 c 128,-1,37
 215 -11 215 -11 154 -11 c 0,0,1
EndSplineSet
Substitution2: "+BBUENAQ4BD0EOARHBD0EMARP +BD8EPgQ0BEEEQgQwBD0EPgQyBDoEMAAA lookup 18 subtable" pha_nukta_kannada.below
Substitution2: "+BBUENAQ4BD0EOARHBD0EMARP +BD8EPgQ0BEEEQgQwBD0EPgQyBDoEMAAA lookup 17 subtable" ja_nukta_kannada.below
EndChar

StartChar: iMatra_kannada
Encoding: 3263 3263 65
Width: 0
GlyphClass: 4
Flags: W
LayerCount: 2
Fore
SplineSet
-238 520 m 0,0,1
 -290 520 -290 520 -290 568 c 1,2,3
 -236 590 -236 590 -200 623 c 128,-1,4
 -164 656 -164 656 -164 709 c 0,5,6
 -164 733 -164 733 -171 753 c 128,-1,7
 -178 773 -178 773 -194 789 c 1,8,9
 -188 769 -188 769 -188 750 c 0,10,11
 -188 698 -188 698 -213 668.5 c 128,-1,12
 -238 639 -238 639 -291 639 c 0,13,14
 -340 639 -340 639 -370.5 671.5 c 128,-1,15
 -401 704 -401 704 -401 756 c 0,16,17
 -401 805 -401 805 -368 842 c 128,-1,18
 -335 879 -335 879 -272 879 c 0,19,20
 -220 879 -220 879 -186.5 853 c 128,-1,21
 -153 827 -153 827 -136 785 c 128,-1,22
 -119 743 -119 743 -119 695 c 256,23,24
 -119 647 -119 647 -137 607 c 128,-1,25
 -155 567 -155 567 -182 543.5 c 128,-1,26
 -209 520 -209 520 -238 520 c 0,0,1
-294 708 m 0,27,28
 -262 708 -262 708 -246 722 c 128,-1,29
 -230 736 -230 736 -230 759 c 0,30,31
 -230 780 -230 780 -246 795.5 c 128,-1,32
 -262 811 -262 811 -294 811 c 0,33,34
 -329 811 -329 811 -343 795 c 128,-1,35
 -357 779 -357 779 -357 761 c 0,36,37
 -357 739 -357 739 -342.5 723.5 c 128,-1,38
 -328 708 -328 708 -294 708 c 0,27,28
EndSplineSet
EndChar

StartChar: uMatra_kannada
Encoding: 3265 3265 67
Width: 336
GlyphClass: 4
Flags: W
LayerCount: 2
Fore
SplineSet
110 -11 m 0,0,1
 61 -11 61 -11 24.5 12.5 c 128,-1,2
 -12 36 -12 36 -42 80 c 128,-1,3
 -72 124 -72 124 -103 185 c 1,4,-1
 -83 198 l 1,5,6
 -62 169 -62 169 -36 142.5 c 128,-1,7
 -10 116 -10 116 24.5 100 c 128,-1,8
 59 84 59 84 107 84 c 256,9,10
 155 84 155 84 183.5 104 c 128,-1,11
 212 124 212 124 225 155.5 c 128,-1,12
 238 187 238 187 238 223 c 0,13,14
 238 310 238 310 189.5 357.5 c 128,-1,15
 141 405 141 405 56 433 c 1,16,17
 54 439 54 439 52 449.5 c 128,-1,18
 50 460 50 460 50 470 c 0,19,20
 50 490 50 490 58 505.5 c 128,-1,21
 66 521 66 521 84 521 c 0,22,23
 108 521 108 521 142 498 c 128,-1,24
 176 475 176 475 208.5 434 c 128,-1,25
 241 393 241 393 262.5 338 c 128,-1,26
 284 283 284 283 284 219 c 0,27,28
 284 156 284 156 265.5 103.5 c 128,-1,29
 247 51 247 51 208.5 20 c 128,-1,30
 170 -11 170 -11 110 -11 c 0,0,1
EndSplineSet
Substitution2: "+BBUENAQ4BD0EOARHBD0EMARP +BD8EPgQ0BEEEQgQwBD0EPgQyBDoEMAAA lookup 18 subtable" pha_nukta_kannada.below
Substitution2: "+BBUENAQ4BD0EOARHBD0EMARP +BD8EPgQ0BEEEQgQwBD0EPgQyBDoEMAAA lookup 17 subtable" ja_nukta_kannada.below
EndChar

StartChar: uuMatra_kannada
Encoding: 3266 3266 68
Width: 676
GlyphClass: 4
Flags: W
LayerCount: 2
Fore
SplineSet
104 -11 m 0,0,1
 46 -11 46 -11 -5 39.5 c 128,-1,2
 -56 90 -56 90 -103 187 c 1,3,-1
 -83 200 l 1,4,5
 -40 139 -40 139 4 111.5 c 128,-1,6
 48 84 48 84 89 84 c 0,7,8
 129 84 129 84 146.5 107 c 128,-1,9
 164 130 164 130 164 175 c 0,10,11
 164 204 164 204 162.5 239 c 128,-1,12
 161 274 161 274 161 311 c 0,13,14
 161 385 161 385 189 440.5 c 128,-1,15
 217 496 217 496 267.5 527 c 128,-1,16
 318 558 318 558 386 558 c 0,17,18
 463 558 463 558 516 520 c 128,-1,19
 569 482 569 482 596.5 413 c 128,-1,20
 624 344 624 344 624 250 c 0,21,22
 624 178 624 178 604 118.5 c 128,-1,23
 584 59 584 59 543.5 24 c 128,-1,24
 503 -11 503 -11 442 -11 c 0,25,26
 369 -11 369 -11 326.5 32 c 128,-1,27
 284 75 284 75 284 145 c 0,28,29
 284 209 284 209 319 245.5 c 128,-1,30
 354 282 354 282 400 282 c 0,31,32
 433 282 433 282 450 264 c 128,-1,33
 467 246 467 246 467 217 c 0,34,35
 467 193 467 193 452.5 177 c 128,-1,36
 438 161 438 161 412 161 c 0,37,38
 389 161 389 161 373.5 175 c 128,-1,39
 358 189 358 189 358 214 c 2,40,-1
 358 217 l 1,41,42
 344 206 344 206 336 188.5 c 128,-1,43
 328 171 328 171 328 149 c 0,44,45
 328 110 328 110 355.5 87 c 128,-1,46
 383 64 383 64 434 64 c 0,47,48
 501 64 501 64 539.5 113 c 128,-1,49
 578 162 578 162 578 249 c 0,50,51
 578 353 578 353 529.5 410.5 c 128,-1,52
 481 468 481 468 390 468 c 0,53,54
 301 468 301 468 254 417 c 128,-1,55
 207 366 207 366 207 278 c 0,56,57
 207 246 207 246 208 207.5 c 128,-1,58
 209 169 209 169 209 127 c 0,59,60
 209 61 209 61 184 25 c 128,-1,61
 159 -11 159 -11 104 -11 c 0,0,1
EndSplineSet
Substitution2: "+BBUENAQ4BD0EOARHBD0EMARP +BD8EPgQ0BEEEQgQwBD0EPgQyBDoEMAAA lookup 18 subtable" pha_nukta_kannada.below
Substitution2: "+BBUENAQ4BD0EOARHBD0EMARP +BD8EPgQ0BEEEQgQwBD0EPgQyBDoEMAAA lookup 17 subtable" ja_nukta_kannada.below
EndChar

StartChar: rVocalicMatra_kannada
Encoding: 3267 3267 69
Width: 0
GlyphClass: 4
Flags: W
LayerCount: 2
Fore
SplineSet
-76 -442 m 0,0,1
 -133 -442 -133 -442 -177 -416 c 128,-1,2
 -221 -390 -221 -390 -246 -344 c 128,-1,3
 -271 -298 -271 -298 -271 -240 c 0,4,5
 -271 -163 -271 -163 -236 -115 c 128,-1,6
 -201 -67 -201 -67 -143 -67 c 0,7,8
 -96 -67 -96 -67 -71.5 -99.5 c 128,-1,9
 -47 -132 -47 -132 -47 -176 c 0,10,11
 -47 -225 -47 -225 -72 -254.5 c 128,-1,12
 -97 -284 -97 -284 -142 -284 c 0,13,14
 -176 -284 -176 -284 -200 -266 c 128,-1,15
 -224 -248 -224 -248 -233 -218 c 1,16,17
 -233 -223 -233 -223 -233 -229 c 0,18,19
 -233 -284 -233 -284 -192.5 -322 c 128,-1,20
 -152 -360 -152 -360 -76 -360 c 0,21,22
 1 -360 1 -360 42 -311 c 128,-1,23
 83 -262 83 -262 83 -179 c 256,24,25
 83 -96 83 -96 46 -42.5 c 128,-1,26
 9 11 9 11 -57 37 c 1,27,28
 -57 52 -57 52 -46 62.5 c 128,-1,29
 -35 73 -35 73 -14 73 c 0,30,31
 25 73 25 73 58 38 c 128,-1,32
 91 3 91 3 110.5 -55.5 c 128,-1,33
 130 -114 130 -114 130 -182 c 0,34,35
 130 -257 130 -257 106 -315.5 c 128,-1,36
 82 -374 82 -374 36 -408 c 128,-1,37
 -10 -442 -10 -442 -76 -442 c 0,0,1
-145 -220 m 0,38,39
 -84 -220 -84 -220 -84 -176 c 0,40,41
 -84 -131 -84 -131 -145 -131 c 0,42,43
 -173 -131 -173 -131 -189 -143 c 128,-1,44
 -205 -155 -205 -155 -205 -176 c 0,45,46
 -205 -220 -205 -220 -145 -220 c 0,38,39
EndSplineSet
Substitution2: "+BBUENAQ4BD0EOARHBD0EMARP +BD8EPgQ0BEEEQgQwBD0EPgQyBDoEMAAA lookup 6 subtable" reph_kannada
Substitution2: "+BBUENAQ4BD0EOARHBD0EMARP +BD8EPgQ0BEEEQgQwBD0EPgQyBDoEMAAA lookup 2 subtable" ra_kannada.below
Position2: "Single Positioning lookup 50 subtable" dx=0 dy=-100 dh=0 dv=0
Position2: "Single Positioning lookup 49 subtable" dx=70 dy=-50 dh=70 dv=0
Position2: "Single Positioning lookup 48 subtable" dx=50 dy=-50 dh=50 dv=0
Position2: "Single Positioning lookup 2 per glyph data 0" dx=0 dy=-48 dh=0 dv=0
Position2: "'dist' Distance in +BBoEMAQ9BD0EMAQ0BDAA lookup 0 subtable" dx=0 dy=0 dh=2 dv=0
EndChar

StartChar: rrVocalicMatra_kannada
Encoding: 3268 3268 70
Width: 434
GlyphClass: 4
Flags: W
LayerCount: 2
Fore
SplineSet
-76 -442 m 0,0,1
 -133 -442 -133 -442 -177 -416 c 128,-1,2
 -221 -390 -221 -390 -246 -344 c 128,-1,3
 -271 -298 -271 -298 -271 -240 c 0,4,5
 -271 -163 -271 -163 -236 -115 c 128,-1,6
 -201 -67 -201 -67 -143 -67 c 0,7,8
 -96 -67 -96 -67 -71.5 -99.5 c 128,-1,9
 -47 -132 -47 -132 -47 -176 c 0,10,11
 -47 -225 -47 -225 -72 -254.5 c 128,-1,12
 -97 -284 -97 -284 -142 -284 c 0,13,14
 -176 -284 -176 -284 -200 -266 c 128,-1,15
 -224 -248 -224 -248 -233 -218 c 1,16,17
 -233 -223 -233 -223 -233 -229 c 0,18,19
 -233 -284 -233 -284 -192.5 -322 c 128,-1,20
 -152 -360 -152 -360 -76 -360 c 0,21,22
 1 -360 1 -360 42 -311 c 128,-1,23
 83 -262 83 -262 83 -179 c 256,24,25
 83 -96 83 -96 46 -42.5 c 128,-1,26
 9 11 9 11 -57 37 c 1,27,28
 -55 55 -55 55 -44.5 64 c 128,-1,29
 -34 73 -34 73 -6 73 c 2,30,-1
 241 73 l 2,31,32
 318 73 318 73 366 44.5 c 128,-1,33
 414 16 414 16 436.5 -31.5 c 128,-1,34
 459 -79 459 -79 459 -136 c 0,35,36
 459 -195 459 -195 439 -237.5 c 128,-1,37
 419 -280 419 -280 385 -303 c 128,-1,38
 351 -326 351 -326 309 -326 c 0,39,40
 254 -326 254 -326 215.5 -288 c 128,-1,41
 177 -250 177 -250 177 -186 c 0,42,43
 177 -130 177 -130 209.5 -98.5 c 128,-1,44
 242 -67 242 -67 284 -67 c 0,45,46
 345 -67 345 -67 345 -127 c 0,47,48
 345 -148 345 -148 332.5 -163 c 128,-1,49
 320 -178 320 -178 294 -178 c 0,50,51
 246 -178 246 -178 246 -130 c 0,52,53
 246 -126 246 -126 246 -124 c 1,54,55
 217 -142 217 -142 217 -179 c 0,56,57
 217 -213 217 -213 241.5 -232 c 128,-1,58
 266 -251 266 -251 309 -251 c 0,59,60
 356 -251 356 -251 386.5 -219.5 c 128,-1,61
 417 -188 417 -188 417 -136 c 0,62,63
 417 -79 417 -79 380 -42.5 c 128,-1,64
 343 -6 343 -6 251 -6 c 2,65,-1
 73 -6 l 1,66,67
 99 -41 99 -41 114.5 -86 c 128,-1,68
 130 -131 130 -131 130 -182 c 0,69,70
 130 -257 130 -257 106 -315.5 c 128,-1,71
 82 -374 82 -374 36 -408 c 128,-1,72
 -10 -442 -10 -442 -76 -442 c 0,0,1
-145 -220 m 0,73,74
 -84 -220 -84 -220 -84 -176 c 0,75,76
 -84 -131 -84 -131 -145 -131 c 0,77,78
 -173 -131 -173 -131 -189 -143 c 128,-1,79
 -205 -155 -205 -155 -205 -176 c 0,80,81
 -205 -220 -205 -220 -145 -220 c 0,73,74
EndSplineSet
Substitution2: "+BBUENAQ4BD0EOARHBD0EMARP +BD8EPgQ0BEEEQgQwBD0EPgQyBDoEMAAA lookup 2 subtable" ra_kannada.below
Position2: "Single Positioning lookup 50 subtable" dx=0 dy=-100 dh=0 dv=0
Position2: "Single Positioning lookup 49 subtable" dx=70 dy=-50 dh=70 dv=0
Position2: "Single Positioning lookup 48 subtable" dx=50 dy=-50 dh=50 dv=0
Position2: "Single Positioning lookup 4 subtable" dx=0 dy=0 dh=396 dv=0
Position2: "Single Positioning lookup 2 per glyph data 0" dx=0 dy=-48 dh=0 dv=0
Position2: "'dist' Distance in +BBoEMAQ9BD0EMAQ0BDAA lookup 0 subtable" dx=0 dy=0 dh=2 dv=0
EndChar

StartChar: eMatra_kannada
Encoding: 3270 3270 71
Width: 0
GlyphClass: 4
Flags: W
LayerCount: 2
Fore
SplineSet
-248 460 m 1,0,-1
 -241 547 l 1,1,-1
 -209 547 l 2,2,3
 -148 547 -148 547 -118 554 c 128,-1,4
 -88 561 -88 561 -72 577 c 0,5,6
 -46 601 -46 601 -46 648 c 0,7,8
 -46 688 -46 688 -72 718.5 c 128,-1,9
 -98 749 -98 749 -149 749 c 0,10,11
 -187 749 -187 749 -206.5 730.5 c 128,-1,12
 -226 712 -226 712 -226 685 c 0,13,14
 -226 661 -226 661 -215 649 c 1,15,-1
 -215 651 l 2,16,17
 -215 668 -215 668 -204 679.5 c 128,-1,18
 -193 691 -193 691 -174 691 c 0,19,20
 -153 691 -153 691 -142.5 678 c 128,-1,21
 -132 665 -132 665 -132 648 c 0,22,23
 -132 628 -132 628 -146 615 c 128,-1,24
 -160 602 -160 602 -186 602 c 0,25,26
 -219 602 -219 602 -244.5 625.5 c 128,-1,27
 -270 649 -270 649 -270 693 c 0,28,29
 -270 719 -270 719 -257.5 744 c 128,-1,30
 -245 769 -245 769 -217.5 786 c 128,-1,31
 -190 803 -190 803 -147 803 c 0,32,33
 -101 803 -101 803 -68 778.5 c 128,-1,34
 -35 754 -35 754 -17.5 715.5 c 128,-1,35
 0 677 0 677 0 634 c 0,36,37
 0 549 0 549 -50 504.5 c 128,-1,38
 -100 460 -100 460 -213 460 c 2,39,-1
 -248 460 l 1,0,-1
EndSplineSet
EndChar

StartChar: auMatra_kannada
Encoding: 3276 3276 76
Width: 451
GlyphClass: 4
Flags: W
LayerCount: 2
Fore
SplineSet
246 229 m 0,0,1
 172 229 172 229 129.5 272 c 128,-1,2
 87 315 87 315 87 385 c 0,3,4
 87 449 87 449 122.5 485.5 c 128,-1,5
 158 522 158 522 204 522 c 0,6,7
 237 522 237 522 254 504 c 128,-1,8
 271 486 271 486 271 457 c 0,9,10
 271 432 271 432 256.5 416 c 128,-1,11
 242 400 242 400 216 400 c 0,12,13
 193 400 193 400 177.5 414.5 c 128,-1,14
 162 429 162 429 162 454 c 2,15,-1
 162 458 l 1,16,17
 131 433 131 433 131 389 c 0,18,19
 131 350 131 350 158.5 327 c 128,-1,20
 186 304 186 304 238 304 c 0,21,22
 305 304 305 304 343 352.5 c 128,-1,23
 381 401 381 401 381 487 c 0,24,25
 381 544 381 544 362 588.5 c 128,-1,26
 343 633 343 633 304 661 c 0,27,28
 285 675 285 675 262.5 684 c 128,-1,29
 240 693 240 693 205 698 c 128,-1,30
 170 703 170 703 115 703 c 2,31,-1
 51 703 l 1,32,33
 64 679 64 679 71.5 653 c 128,-1,34
 79 627 79 627 79 600 c 0,35,36
 79 574 79 574 71.5 548.5 c 128,-1,37
 64 523 64 523 44 503 c 0,38,39
 27 486 27 486 -3 473 c 128,-1,40
 -33 460 -33 460 -92 460 c 2,41,-1
 -210 460 l 1,42,-1
 -203 547 l 1,43,-1
 -93 547 l 2,44,45
 -47 547 -47 547 -26.5 552 c 128,-1,46
 -6 557 -6 557 7 570 c 0,47,48
 26 589 26 589 26 625 c 0,49,50
 26 665 26 665 3 703 c 1,51,-1
 -208 703 l 1,52,-1
 -201 789 l 1,53,-1
 124 789 l 2,54,55
 190 789 190 789 233.5 780 c 128,-1,56
 277 771 277 771 306.5 752 c 128,-1,57
 336 733 336 733 361 704 c 0,58,59
 394 665 394 665 411 611.5 c 128,-1,60
 428 558 428 558 428 488 c 0,61,62
 428 416 428 416 408 357.5 c 128,-1,63
 388 299 388 299 347.5 264 c 128,-1,64
 307 229 307 229 246 229 c 0,0,1
EndSplineSet
Substitution2: "+BBUENAQ4BD0EOARHBD0EMARP +BD8EPgQ0BEEEQgQwBD0EPgQyBDoEMAAA lookup 18 subtable" pha_nukta_kannada.below
Substitution2: "+BBUENAQ4BD0EOARHBD0EMARP +BD8EPgQ0BEEEQgQwBD0EPgQyBDoEMAAA lookup 17 subtable" ja_nukta_kannada.below
EndChar

StartChar: halant_kannada
Encoding: 3277 3277 77
Width: 0
GlyphClass: 4
Flags: W
AnchorPoint: "+BBEENQQ3BEsEPARPBD0EPQQ+BDUA--5" -456 460 mark 0
AnchorPoint: "+BBEENQQ3BEsEPARPBD0EPQQ+BDUA--1" -456 460 mark 0
LayerCount: 2
Fore
SplineSet
-152 287 m 0,0,1
 -212 287 -212 287 -242 329.5 c 128,-1,2
 -272 372 -272 372 -274 460 c 1,3,-1
 -467 460 l 1,4,-1
 -460 547 l 1,5,-1
 -274 547 l 1,6,7
 -269 623 -269 623 -232 665 c 128,-1,8
 -195 707 -195 707 -133 707 c 0,9,10
 -77 707 -77 707 -43.5 672.5 c 128,-1,11
 -10 638 -10 638 0 576 c 1,12,-1
 -40 571 l 1,13,14
 -50 602 -50 602 -73 620 c 128,-1,15
 -96 638 -96 638 -134 638 c 0,16,17
 -171 638 -171 638 -196 614.5 c 128,-1,18
 -221 591 -221 591 -227 547 c 1,19,-1
 -214 547 l 2,20,21
 -128 547 -128 547 -87.5 513 c 128,-1,22
 -47 479 -47 479 -47 411 c 0,23,24
 -47 361 -47 361 -73.5 324 c 128,-1,25
 -100 287 -100 287 -152 287 c 0,0,1
-176 460 m 2,26,-1
 -229 460 l 1,27,28
 -229 432 -229 432 -223 407.5 c 128,-1,29
 -217 383 -217 383 -200 368.5 c 128,-1,30
 -183 354 -183 354 -151 354 c 0,31,32
 -123 354 -123 354 -107 368 c 128,-1,33
 -91 382 -91 382 -91 407 c 0,34,35
 -91 439 -91 439 -114.5 449.5 c 128,-1,36
 -138 460 -138 460 -176 460 c 2,26,-1
EndSplineSet
Position2: "Single Positioning lookup 46 per glyph data 1" dx=272 dy=0 dh=272 dv=0
EndChar

StartChar: length_kannada
Encoding: 3285 3285 78
Width: 399
GlyphClass: 1
Flags: W
LayerCount: 2
Fore
SplineSet
273 -11 m 0,0,1
 233 -11 233 -11 191 9.5 c 128,-1,2
 149 30 149 30 113 69.5 c 128,-1,3
 77 109 77 109 55 165 c 128,-1,4
 33 221 33 221 33 291 c 0,5,6
 33 371 33 371 58.5 431 c 128,-1,7
 84 491 84 491 128.5 524.5 c 128,-1,8
 173 558 173 558 228 558 c 0,9,10
 292 558 292 558 320.5 517 c 128,-1,11
 349 476 349 476 349 417 c 0,12,13
 349 357 349 357 320.5 319 c 128,-1,14
 292 281 292 281 235 281 c 0,15,16
 181 281 181 281 149.5 318 c 128,-1,17
 118 355 118 355 118 411 c 0,18,19
 118 424 118 424 120 437 c 1,20,21
 79 384 79 384 79 303 c 0,22,23
 79 211 79 211 141.5 141.5 c 128,-1,24
 204 72 204 72 325 51 c 1,25,26
 325 23 325 23 312.5 6 c 128,-1,27
 300 -11 300 -11 273 -11 c 0,0,1
234 356 m 256,28,29
 266 356 266 356 285.5 373.5 c 128,-1,30
 305 391 305 391 305 419 c 0,31,32
 305 448 305 448 285.5 465 c 128,-1,33
 266 482 266 482 234 482 c 0,34,35
 203 482 203 482 183 465 c 128,-1,36
 163 448 163 448 163 419 c 0,37,38
 163 391 163 391 182.5 373.5 c 128,-1,39
 202 356 202 356 234 356 c 256,28,29
EndSplineSet
Substitution2: "+BBUENAQ4BD0EOARHBD0EMARP +BD8EPgQ0BEEEQgQwBD0EPgQyBDoEMAAA lookup 31 subtable" candrabindu_1CDA_knda
Substitution2: "+BBUENAQ4BD0EOARHBD0EMARP +BD8EPgQ0BEEEQgQwBD0EPgQyBDoEMAAA lookup 30 subtable" candrabindu_anudatta_knda
Substitution2: "+BBUENAQ4BD0EOARHBD0EMARP +BD8EPgQ0BEEEQgQwBD0EPgQyBDoEMAAA lookup 29 subtable" candrabindu_udatta_knda
Substitution2: "+BBUENAQ4BD0EOARHBD0EMARP +BD8EPgQ0BEEEQgQwBD0EPgQyBDoEMAAA lookup 28 subtable" uni1CF4
Substitution2: "+BBUENAQ4BD0EOARHBD0EMARP +BD8EPgQ0BEEEQgQwBD0EPgQyBDoEMAAA lookup 27 subtable" doubleSvarita_vedic
Substitution2: "+BBUENAQ4BD0EOARHBD0EMARP +BD8EPgQ0BEEEQgQwBD0EPgQyBDoEMAAA lookup 26 subtable" uni1CD2
Substitution2: "+BBUENAQ4BD0EOARHBD0EMARP +BD8EPgQ0BEEEQgQwBD0EPgQyBDoEMAAA lookup 25 subtable" uni1CD0
Substitution2: "+BBUENAQ4BD0EOARHBD0EMARP +BD8EPgQ0BEEEQgQwBD0EPgQyBDoEMAAA lookup 24 subtable" anudatta_deva
Substitution2: "+BBUENAQ4BD0EOARHBD0EMARP +BD8EPgQ0BEEEQgQwBD0EPgQyBDoEMAAA lookup 23 subtable" udatta_deva
Substitution2: "+BBUENAQ4BD0EOARHBD0EMARP +BD8EPgQ0BEEEQgQwBD0EPgQyBDoEMAAA lookup 22 subtable" candrabindu_kannada
Substitution2: "+BBUENAQ4BD0EOARHBD0EMARP +BD8EPgQ0BEEEQgQwBD0EPgQyBDoEMAAA lookup 0 subtable" ra_kannada.below
EndChar

StartChar: ailength_kannada
Encoding: 3286 3286 79
Width: 0
GlyphClass: 4
Flags: W
LayerCount: 2
Fore
SplineSet
-100 -442 m 0,0,1
 -164 -442 -164 -442 -210 -415.5 c 128,-1,2
 -256 -389 -256 -389 -280.5 -342.5 c 128,-1,3
 -305 -296 -305 -296 -305 -237 c 0,4,5
 -305 -161 -305 -161 -271.5 -114 c 128,-1,6
 -238 -67 -238 -67 -177 -67 c 0,7,8
 -130 -67 -130 -67 -105.5 -99.5 c 128,-1,9
 -81 -132 -81 -132 -81 -176 c 0,10,11
 -81 -225 -81 -225 -105.5 -254.5 c 128,-1,12
 -130 -284 -130 -284 -176 -284 c 0,13,14
 -210 -284 -210 -284 -234 -266 c 128,-1,15
 -258 -248 -258 -248 -267 -217 c 1,16,17
 -267 -222 -267 -222 -267 -229 c 0,18,19
 -267 -284 -267 -284 -223.5 -322 c 128,-1,20
 -180 -360 -180 -360 -104 -360 c 0,21,22
 -33 -360 -33 -360 10 -321 c 128,-1,23
 53 -282 53 -282 53 -220 c 0,24,25
 53 -178 53 -178 34 -147 c 128,-1,26
 15 -116 15 -116 -26 -100 c 1,27,-1
 -24 -76 l 1,28,29
 6 -49 6 -49 18.5 -29.5 c 128,-1,30
 31 -10 31 -10 31 12 c 0,31,32
 31 40 31 40 10.5 55 c 128,-1,33
 -10 70 -10 70 -48 70 c 1,34,35
 -45 91 -45 91 -28.5 104 c 128,-1,36
 -12 117 -12 117 16 117 c 0,37,38
 53 117 53 117 73 93.5 c 128,-1,39
 93 70 93 70 93 38 c 0,40,41
 93 0 93 0 75.5 -28 c 128,-1,42
 58 -56 58 -56 26 -86 c 1,43,44
 64 -108 64 -108 84 -147.5 c 128,-1,45
 104 -187 104 -187 104 -236 c 0,46,47
 104 -294 104 -294 78 -341 c 128,-1,48
 52 -388 52 -388 6 -415 c 128,-1,49
 -40 -442 -40 -442 -100 -442 c 0,0,1
-179 -220 m 0,50,51
 -118 -220 -118 -220 -118 -176 c 0,52,53
 -118 -131 -118 -131 -178 -131 c 0,54,55
 -239 -131 -239 -131 -239 -176 c 0,56,57
 -239 -220 -239 -220 -179 -220 c 0,50,51
EndSplineSet
Substitution2: "+BBUENAQ4BD0EOARHBD0EMARP +BD8EPgQ0BEEEQgQwBD0EPgQyBDoEMAAA lookup 2 subtable" ra_kannada.below
Substitution2: "+BBUENAQ4BD0EOARHBD0EMARP +BD8EPgQ0BEEEQgQwBD0EPgQyBDoEMAAA lookup 1 subtable" ra_kannada.below
Position2: "Single Positioning lookup 50 subtable" dx=0 dy=-100 dh=0 dv=0
Position2: "Single Positioning lookup 49 subtable" dx=70 dy=-50 dh=70 dv=0
Position2: "Single Positioning lookup 48 subtable" dx=50 dy=-50 dh=50 dv=0
Position2: "Single Positioning lookup 2 per glyph data 0" dx=0 dy=-48 dh=0 dv=0
Position2: "'dist' Distance in +BBoEMAQ9BD0EMAQ0BDAA lookup 0 subtable" dx=0 dy=0 dh=2 dv=0
EndChar

StartChar: lVocalicMatra_kannada
Encoding: 3298 3298 80
Width: 0
GlyphClass: 4
Flags: W
LayerCount: 2
Fore
SplineSet
83 -475 m 0,0,1
 40 -475 40 -475 12 -448.5 c 128,-1,2
 -16 -422 -16 -422 -16 -382 c 0,3,4
 -16 -355 -16 -355 -4 -336 c 128,-1,5
 8 -317 8 -317 26 -302.5 c 128,-1,6
 44 -288 44 -288 62 -274.5 c 128,-1,7
 80 -261 80 -261 92 -244.5 c 128,-1,8
 104 -228 104 -228 104 -205 c 0,9,10
 104 -176 104 -176 86 -159.5 c 128,-1,11
 68 -143 68 -143 37 -143 c 0,12,13
 -2 -143 -2 -143 -27 -169 c 128,-1,14
 -52 -195 -52 -195 -57 -239 c 1,15,-1
 -94 -239 l 1,16,17
 -99 -199 -99 -199 -121 -171 c 128,-1,18
 -143 -143 -143 -143 -186 -143 c 0,19,20
 -219 -143 -219 -143 -237.5 -160.5 c 128,-1,21
 -256 -178 -256 -178 -256 -206 c 0,22,23
 -256 -225 -256 -225 -247.5 -240.5 c 128,-1,24
 -239 -256 -239 -256 -226 -270 c 1,25,-1
 -250 -295 l 1,26,27
 -273 -275 -273 -275 -289 -246.5 c 128,-1,28
 -305 -218 -305 -218 -305 -180 c 0,29,30
 -305 -131 -305 -131 -274 -99.5 c 128,-1,31
 -243 -68 -243 -68 -192 -68 c 0,32,33
 -148 -68 -148 -68 -117.5 -94.5 c 128,-1,34
 -87 -121 -87 -121 -75 -165 c 1,35,36
 -60 -121 -60 -121 -29 -94.5 c 128,-1,37
 2 -68 2 -68 46 -68 c 0,38,39
 102 -68 102 -68 129.5 -104.5 c 128,-1,40
 157 -141 157 -141 157 -188 c 0,41,42
 157 -221 157 -221 145 -242.5 c 128,-1,43
 133 -264 133 -264 115 -279 c 128,-1,44
 97 -294 97 -294 78.5 -306.5 c 128,-1,45
 60 -319 60 -319 48 -333.5 c 128,-1,46
 36 -348 36 -348 36 -368 c 0,47,48
 36 -387 36 -387 50 -399 c 128,-1,49
 64 -411 64 -411 89 -411 c 0,50,51
 129 -411 129 -411 151.5 -384 c 128,-1,52
 174 -357 174 -357 184 -320 c 1,53,-1
 222 -326 l 1,54,55
 212 -393 212 -393 178.5 -434 c 128,-1,56
 145 -475 145 -475 83 -475 c 0,0,1
EndSplineSet
Position2: "Single Positioning lookup 50 subtable" dx=0 dy=-100 dh=0 dv=0
Position2: "Single Positioning lookup 49 subtable" dx=70 dy=-50 dh=70 dv=0
Position2: "Single Positioning lookup 48 subtable" dx=50 dy=-50 dh=50 dv=0
Position2: "Single Positioning lookup 2 per glyph data 1" dx=0 dy=-24 dh=0 dv=0
Position2: "'dist' Distance in +BBoEMAQ9BD0EMAQ0BDAA lookup 0 subtable" dx=0 dy=0 dh=2 dv=0
EndChar

StartChar: llVocalicMatra_kannada
Encoding: 3299 3299 81
Width: 0
GlyphClass: 4
Flags: W
LayerCount: 2
Fore
SplineSet
83 -445 m 0,0,1
 80 -445 80 -445 77 -445 c 0,2,3
 67 -455 67 -455 60 -466.5 c 128,-1,4
 53 -478 53 -478 53 -492 c 0,5,6
 53 -525 53 -525 96 -525 c 0,7,8
 123 -525 123 -525 140.5 -512.5 c 128,-1,9
 158 -500 158 -500 169 -481.5 c 128,-1,10
 180 -463 180 -463 186 -446 c 1,11,-1
 224 -452 l 1,12,13
 214 -507 214 -507 183 -546 c 128,-1,14
 152 -585 152 -585 90 -585 c 0,15,16
 47 -585 47 -585 24 -564.5 c 128,-1,17
 1 -544 1 -544 1 -514 c 0,18,19
 1 -487 1 -487 11 -469 c 128,-1,20
 21 -451 21 -451 38 -436 c 1,21,22
 -6 -417 -6 -417 -6 -370 c 0,23,24
 -6 -342 -6 -342 5 -323.5 c 128,-1,25
 16 -305 16 -305 32.5 -291.5 c 128,-1,26
 49 -278 49 -278 65.5 -265 c 128,-1,27
 82 -252 82 -252 93 -235.5 c 128,-1,28
 104 -219 104 -219 104 -195 c 0,29,30
 104 -174 104 -174 86 -158.5 c 128,-1,31
 68 -143 68 -143 37 -143 c 0,32,33
 -2 -143 -2 -143 -27 -169 c 128,-1,34
 -52 -195 -52 -195 -57 -239 c 1,35,-1
 -94 -239 l 1,36,37
 -99 -199 -99 -199 -121 -171 c 128,-1,38
 -143 -143 -143 -143 -186 -143 c 0,39,40
 -219 -143 -219 -143 -237.5 -160.5 c 128,-1,41
 -256 -178 -256 -178 -256 -206 c 0,42,43
 -256 -225 -256 -225 -247.5 -240.5 c 128,-1,44
 -239 -256 -239 -256 -226 -270 c 1,45,-1
 -250 -295 l 1,46,47
 -273 -275 -273 -275 -289 -246.5 c 128,-1,48
 -305 -218 -305 -218 -305 -180 c 0,49,50
 -305 -131 -305 -131 -274 -99.5 c 128,-1,51
 -243 -68 -243 -68 -192 -68 c 0,52,53
 -148 -68 -148 -68 -117.5 -94.5 c 128,-1,54
 -87 -121 -87 -121 -75 -165 c 1,55,56
 -60 -121 -60 -121 -29 -94.5 c 128,-1,57
 2 -68 2 -68 46 -68 c 0,58,59
 83 -68 83 -68 107.5 -84.5 c 128,-1,60
 132 -101 132 -101 144.5 -127 c 128,-1,61
 157 -153 157 -153 157 -181 c 0,62,63
 157 -217 157 -217 140 -241 c 128,-1,64
 123 -265 123 -265 101.5 -282 c 128,-1,65
 80 -299 80 -299 63 -314.5 c 128,-1,66
 46 -330 46 -330 46 -350 c 0,67,68
 46 -383 46 -383 89 -383 c 0,69,70
 129 -383 129 -383 149.5 -357.5 c 128,-1,71
 170 -332 170 -332 179 -306 c 1,72,-1
 217 -312 l 1,73,74
 207 -367 207 -367 176 -406 c 128,-1,75
 145 -445 145 -445 83 -445 c 0,0,1
EndSplineSet
Position2: "Single Positioning lookup 50 subtable" dx=0 dy=-100 dh=0 dv=0
Position2: "Single Positioning lookup 49 subtable" dx=70 dy=-50 dh=70 dv=0
Position2: "Single Positioning lookup 48 subtable" dx=50 dy=-50 dh=50 dv=0
Position2: "Single Positioning lookup 2 per glyph data 1" dx=0 dy=-24 dh=0 dv=0
Position2: "'dist' Distance in +BBoEMAQ9BD0EMAQ0BDAA lookup 0 subtable" dx=0 dy=0 dh=2 dv=0
EndChar

StartChar: zero_kannada
Encoding: 3302 3302 82
Width: 578
GlyphClass: 2
Flags: W
AnchorPoint: "+BBEENQQ3BEsEPARPBD0EPQQ+BDUA--0" 289 547 basechar 0
LayerCount: 2
Fore
SplineSet
289 -11 m 0,0,1
 213 -11 213 -11 160 25.5 c 128,-1,2
 107 62 107 62 79.5 126 c 128,-1,3
 52 190 52 190 52 273 c 0,4,5
 52 357 52 357 79.5 421 c 128,-1,6
 107 485 107 485 160 521.5 c 128,-1,7
 213 558 213 558 289 558 c 0,8,9
 366 558 366 558 418.5 521.5 c 128,-1,10
 471 485 471 485 498.5 421 c 128,-1,11
 526 357 526 357 526 273 c 0,12,13
 526 190 526 190 498.5 126 c 128,-1,14
 471 62 471 62 418.5 25.5 c 128,-1,15
 366 -11 366 -11 289 -11 c 0,0,1
289 74 m 0,16,17
 385 74 385 74 433 129.5 c 128,-1,18
 481 185 481 185 481 273 c 0,19,20
 481 327 481 327 459.5 372.5 c 128,-1,21
 438 418 438 418 395.5 445.5 c 128,-1,22
 353 473 353 473 289 473 c 0,23,24
 226 473 226 473 183 445 c 128,-1,25
 140 417 140 417 118.5 371.5 c 128,-1,26
 97 326 97 326 97 273 c 0,27,28
 97 185 97 185 145.5 129.5 c 128,-1,29
 194 74 194 74 289 74 c 0,16,17
EndSplineSet
EndChar

StartChar: one_kannada
Encoding: 3303 3303 83
Width: 601
GlyphClass: 2
Flags: W
AnchorPoint: "+BBEENQQ3BEsEPARPBD0EPQQ+BDUA--0" 300 547 basechar 0
LayerCount: 2
Fore
SplineSet
205 -11 m 0,0,1
 173 -11 173 -11 137.5 17 c 128,-1,2
 102 45 102 45 77 105.5 c 128,-1,3
 52 166 52 166 52 263 c 0,4,5
 52 344 52 344 79 411 c 128,-1,6
 106 478 106 478 161.5 518 c 128,-1,7
 217 558 217 558 300 558 c 0,8,9
 384 558 384 558 439 518 c 128,-1,10
 494 478 494 478 521.5 411 c 128,-1,11
 549 344 549 344 549 263 c 0,12,13
 549 166 549 166 524 105.5 c 128,-1,14
 499 45 499 45 463.5 17 c 128,-1,15
 428 -11 428 -11 396 -11 c 0,16,17
 373 -11 373 -11 357.5 4 c 128,-1,18
 342 19 342 19 342 42 c 0,19,20
 342 56 342 56 345 65 c 1,21,-1
 348 65 l 2,22,23
 393 65 393 65 428 92 c 128,-1,24
 463 119 463 119 483 164.5 c 128,-1,25
 503 210 503 210 503 263 c 0,26,27
 503 319 503 319 479 366 c 128,-1,28
 455 413 455 413 410 441 c 128,-1,29
 365 469 365 469 300 469 c 0,30,31
 236 469 236 469 190.5 441 c 128,-1,32
 145 413 145 413 121.5 366 c 128,-1,33
 98 319 98 319 98 263 c 0,34,35
 98 210 98 210 118 164.5 c 128,-1,36
 138 119 138 119 173.5 92 c 128,-1,37
 209 65 209 65 253 65 c 2,38,-1
 256 65 l 1,39,40
 259 56 259 56 259 42 c 0,41,42
 259 19 259 19 244 4 c 128,-1,43
 229 -11 229 -11 205 -11 c 0,0,1
EndSplineSet
EndChar

StartChar: two_kannada
Encoding: 3304 3304 84
Width: 601
GlyphClass: 2
Flags: W
AnchorPoint: "+BBEENQQ3BEsEPARPBD0EPQQ+BDUA--0" 300 547 basechar 0
LayerCount: 2
Fore
SplineSet
26 0 m 1,0,-1
 26 86 l 1,1,-1
 242 86 l 2,2,3
 361 86 361 86 433 140 c 128,-1,4
 505 194 505 194 505 292 c 0,5,6
 505 346 505 346 485.5 388.5 c 128,-1,7
 466 431 466 431 429.5 455.5 c 128,-1,8
 393 480 393 480 342 480 c 0,9,10
 290 480 290 480 256.5 452 c 128,-1,11
 223 424 223 424 223 381 c 0,12,13
 223 350 223 350 243 335.5 c 128,-1,14
 263 321 263 321 288 321 c 0,15,16
 320 321 320 321 339 338 c 128,-1,17
 358 355 358 355 364 382 c 1,18,19
 389 378 389 378 401 361.5 c 128,-1,20
 413 345 413 345 413 328 c 0,21,22
 413 300 413 300 390 279 c 128,-1,23
 367 258 367 258 323 258 c 256,24,25
 279 258 279 258 245.5 278 c 128,-1,26
 212 298 212 298 193.5 331 c 128,-1,27
 175 364 175 364 175 403 c 0,28,29
 175 473 175 473 220.5 516 c 128,-1,30
 266 559 266 559 338 559 c 0,31,32
 434 559 434 559 491.5 491.5 c 128,-1,33
 549 424 549 424 549 305 c 0,34,35
 549 214 549 214 509.5 145 c 128,-1,36
 470 76 470 76 396 38 c 128,-1,37
 322 0 322 0 217 0 c 2,38,-1
 26 0 l 1,0,-1
EndSplineSet
EndChar

StartChar: three_kannada
Encoding: 3305 3305 85
Width: 593
GlyphClass: 2
Flags: W
AnchorPoint: "+BBEENQQ3BEsEPARPBD0EPQQ+BDUA--0" 296 547 basechar 0
LayerCount: 2
Fore
SplineSet
170 -11 m 0,0,1
 112 -11 112 -11 71 20 c 128,-1,2
 30 51 30 51 30 105 c 0,3,4
 30 158 30 158 67.5 188 c 128,-1,5
 105 218 105 218 161 218 c 0,6,7
 215 218 215 218 256.5 197 c 128,-1,8
 298 176 298 176 339 149 c 1,9,10
 365 180 365 180 380.5 221 c 128,-1,11
 396 262 396 262 396 311 c 0,12,13
 396 385 396 385 358 433.5 c 128,-1,14
 320 482 320 482 246 482 c 0,15,16
 211 482 211 482 185 465 c 128,-1,17
 159 448 159 448 159 417 c 0,18,19
 159 392 159 392 178 377.5 c 128,-1,20
 197 363 197 363 226 363 c 0,21,22
 274 363 274 363 309 398 c 1,23,24
 330 377 330 377 330 353 c 0,25,26
 330 332 330 332 311 315.5 c 128,-1,27
 292 299 292 299 254 299 c 0,28,29
 213 299 213 299 180.5 318.5 c 128,-1,30
 148 338 148 338 129.5 369 c 128,-1,31
 111 400 111 400 111 434 c 0,32,33
 111 488 111 488 148.5 523 c 128,-1,34
 186 558 186 558 243 558 c 0,35,36
 306 558 306 558 350 520.5 c 128,-1,37
 394 483 394 483 417 423 c 128,-1,38
 440 363 440 363 440 296 c 0,39,40
 440 244 440 244 427 199 c 128,-1,41
 414 154 414 154 391 117 c 1,42,43
 428 96 428 96 472.5 81 c 128,-1,44
 517 66 517 66 575 66 c 1,45,46
 575 48 575 48 569.5 30 c 128,-1,47
 564 12 564 12 548 0.5 c 128,-1,48
 532 -11 532 -11 501 -11 c 0,49,50
 455 -11 455 -11 419 12 c 128,-1,51
 383 35 383 35 351 66 c 1,52,53
 315 29 315 29 268 9 c 128,-1,54
 221 -11 221 -11 170 -11 c 0,0,1
90 125 m 0,55,56
 90 99 90 99 112 84.5 c 128,-1,57
 134 70 134 70 171 70 c 0,58,59
 242 70 242 70 301 114 c 1,60,61
 272 141 272 141 239 161 c 128,-1,62
 206 181 206 181 165 181 c 0,63,64
 133 181 133 181 111.5 166.5 c 128,-1,65
 90 152 90 152 90 125 c 0,55,56
EndSplineSet
EndChar

StartChar: four_kannada
Encoding: 3306 3306 86
Width: 668
GlyphClass: 2
Flags: W
AnchorPoint: "+BBEENQQ3BEsEPARPBD0EPQQ+BDUA--0" 334 547 basechar 0
LayerCount: 2
Fore
SplineSet
357 -11 m 0,0,1
 292 -11 292 -11 246 17 c 128,-1,2
 200 45 200 45 200 100 c 0,3,4
 200 134 200 134 216 157 c 128,-1,5
 232 180 232 180 258 198 c 1,6,7
 235 203 235 203 214 210 c 0,8,9
 127 239 127 239 87.5 284.5 c 128,-1,10
 48 330 48 330 48 396 c 0,11,12
 48 453 48 453 71 488.5 c 128,-1,13
 94 524 94 524 129.5 541 c 128,-1,14
 165 558 165 558 201 558 c 0,15,16
 253 558 253 558 291.5 526 c 128,-1,17
 330 494 330 494 330 426 c 0,18,19
 330 401 330 401 319.5 377 c 128,-1,20
 309 353 309 353 288 337.5 c 128,-1,21
 267 322 267 322 235 322 c 0,22,23
 200 322 200 322 182 339.5 c 128,-1,24
 164 357 164 357 164 376 c 0,25,26
 164 387 164 387 166 394.5 c 128,-1,27
 168 402 168 402 171 407 c 1,28,29
 185 399 185 399 200.5 396 c 128,-1,30
 216 393 216 393 228 393 c 0,31,32
 249 393 249 393 269 402 c 128,-1,33
 289 411 289 411 289 432 c 0,34,35
 289 459 289 459 262.5 470.5 c 128,-1,36
 236 482 236 482 204 482 c 0,37,38
 146 482 146 482 118 454.5 c 128,-1,39
 90 427 90 427 90 393 c 0,40,41
 90 340 90 340 131.5 311.5 c 128,-1,42
 173 283 173 283 250 271 c 0,43,44
 285 265 285 265 314 259 c 128,-1,45
 343 253 343 253 367 246 c 1,46,47
 411 262 411 262 451 280 c 128,-1,48
 491 298 491 298 517 325 c 128,-1,49
 543 352 543 352 543 395 c 0,50,51
 543 433 543 433 518 457 c 128,-1,52
 493 481 493 481 455 481 c 0,53,54
 452 481 452 481 447.5 480.5 c 128,-1,55
 443 480 443 480 441 480 c 0,56,57
 436 493 436 493 436 505 c 0,58,59
 436 527 436 527 452.5 542.5 c 128,-1,60
 469 558 469 558 500 558 c 0,61,62
 527 558 527 558 552 543.5 c 128,-1,63
 577 529 577 529 593.5 500 c 128,-1,64
 610 471 610 471 610 427 c 0,65,66
 610 367 610 367 584 328.5 c 128,-1,67
 558 290 558 290 517 265.5 c 128,-1,68
 476 241 476 241 432 224 c 1,69,70
 468 207 468 207 484.5 187 c 128,-1,71
 501 167 501 167 506 146.5 c 128,-1,72
 511 126 511 126 511 107 c 0,73,74
 511 68 511 68 490 41.5 c 128,-1,75
 469 15 469 15 434 2 c 128,-1,76
 399 -11 399 -11 357 -11 c 0,0,1
257 119 m 0,77,78
 257 66 257 66 357 66 c 0,79,80
 412 66 412 66 435.5 81 c 128,-1,81
 459 96 459 96 459 119 c 256,82,83
 459 142 459 142 435.5 157.5 c 128,-1,84
 412 173 412 173 356 180 c 0,85,86
 340 182 340 182 324 185 c 1,87,88
 294 172 294 172 275.5 157 c 128,-1,89
 257 142 257 142 257 119 c 0,77,78
EndSplineSet
EndChar

StartChar: five_kannada
Encoding: 3307 3307 87
Width: 723
GlyphClass: 2
Flags: W
AnchorPoint: "+BBEENQQ3BEsEPARPBD0EPQQ+BDUA--0" 361 547 basechar 0
LayerCount: 2
Fore
SplineSet
581 -11 m 0,0,1
 552 -11 552 -11 534 10 c 128,-1,2
 516 31 516 31 516 57 c 1,3,4
 551 57 551 57 563 73.5 c 128,-1,5
 575 90 575 90 575 109 c 0,6,7
 575 144 575 144 553.5 178.5 c 128,-1,8
 532 213 532 213 505 250 c 1,9,10
 477 241 477 241 446 234.5 c 128,-1,11
 415 228 415 228 384 223 c 1,12,13
 375 115 375 115 323 52 c 128,-1,14
 271 -11 271 -11 178 -11 c 0,15,16
 111 -11 111 -11 74.5 23.5 c 128,-1,17
 38 58 38 58 38 103 c 0,18,19
 38 153 38 153 71.5 181.5 c 128,-1,20
 105 210 105 210 157 225 c 0,21,22
 197 236 197 236 244.5 243.5 c 128,-1,23
 292 251 292 251 340 257 c 1,24,25
 341 272 341 272 341 289 c 0,26,27
 341 322 341 322 334 356.5 c 128,-1,28
 327 391 327 391 311.5 419.5 c 128,-1,29
 296 448 296 448 269 466 c 128,-1,30
 242 484 242 484 201 484 c 0,31,32
 165 484 165 484 142.5 471.5 c 128,-1,33
 120 459 120 459 120 434 c 0,34,35
 120 410 120 410 140.5 399 c 128,-1,36
 161 388 161 388 184 388 c 0,37,38
 195 388 195 388 211 391.5 c 128,-1,39
 227 395 227 395 240 402 c 1,40,41
 248 391 248 391 248 372 c 0,42,43
 248 352 248 352 232 335 c 128,-1,44
 216 318 216 318 181 318 c 256,45,46
 146 318 146 318 123 335 c 128,-1,47
 100 352 100 352 89.5 378.5 c 128,-1,48
 79 405 79 405 79 433 c 0,49,50
 79 491 79 491 115 524.5 c 128,-1,51
 151 558 151 558 206 558 c 0,52,53
 257 558 257 558 291.5 533 c 128,-1,54
 326 508 326 508 347 465.5 c 128,-1,55
 368 423 368 423 377 372 c 128,-1,56
 386 321 386 321 386 268 c 2,57,-1
 386 264 l 1,58,59
 411 269 411 269 435 273.5 c 128,-1,60
 459 278 459 278 481 285 c 1,61,62
 459 317 459 317 443 353.5 c 128,-1,63
 427 390 427 390 427 431 c 0,64,65
 427 487 427 487 459.5 522.5 c 128,-1,66
 492 558 492 558 550 558 c 0,67,68
 592 558 592 558 619 539 c 128,-1,69
 646 520 646 520 659.5 490 c 128,-1,70
 673 460 673 460 673 428 c 0,71,72
 673 376 673 376 649 341 c 128,-1,73
 625 306 625 306 584 283 c 0,74,75
 566 273 566 273 544 264 c 1,76,77
 567 231 567 231 591.5 199 c 128,-1,78
 616 167 616 167 632.5 133 c 128,-1,79
 649 99 649 99 649 63 c 0,80,81
 649 30 649 30 630 9.5 c 128,-1,82
 611 -11 611 -11 581 -11 c 0,0,1
484 405 m 0,83,84
 484 377 484 377 494.5 350 c 128,-1,85
 505 323 505 323 520 298 c 1,86,87
 563 315 563 315 589 343.5 c 128,-1,88
 615 372 615 372 615 418 c 0,89,90
 615 445 615 445 599.5 464 c 128,-1,91
 584 483 584 483 552 483 c 0,92,93
 521 483 521 483 502.5 461.5 c 128,-1,94
 484 440 484 440 484 405 c 0,83,84
112 122 m 0,95,96
 112 100 112 100 132 85.5 c 128,-1,97
 152 71 152 71 187 71 c 0,98,99
 248 71 248 71 285.5 108.5 c 128,-1,100
 323 146 323 146 335 215 c 1,101,102
 276 206 276 206 225 196 c 128,-1,103
 174 186 174 186 143 169 c 128,-1,104
 112 152 112 152 112 122 c 0,95,96
EndSplineSet
EndChar

StartChar: six_kannada
Encoding: 3308 3308 88
Width: 566
GlyphClass: 2
Flags: W
AnchorPoint: "+BBEENQQ3BEsEPARPBD0EPQQ+BDUA--0" 283 547 basechar 0
LayerCount: 2
Fore
SplineSet
309 0 m 2,0,1
 224 0 224 0 167.5 32 c 128,-1,2
 111 64 111 64 83 114.5 c 128,-1,3
 55 165 55 165 55 220 c 0,4,5
 55 276 55 276 80 318.5 c 128,-1,6
 105 361 105 361 145 388 c 1,7,8
 131 429 131 429 110 467 c 128,-1,9
 89 505 89 505 50 529 c 1,10,11
 58 540 58 540 74 549 c 128,-1,12
 90 558 90 558 112 558 c 0,13,14
 146 558 146 558 165 538 c 128,-1,15
 184 518 184 518 193 486 c 128,-1,16
 202 454 202 454 207 418 c 1,17,18
 244 429 244 429 283 429 c 0,19,20
 370 429 370 429 414.5 390.5 c 128,-1,21
 459 352 459 352 459 298 c 0,22,23
 459 246 459 246 422.5 214.5 c 128,-1,24
 386 183 386 183 330 183 c 0,25,26
 272 183 272 183 239.5 206.5 c 128,-1,27
 207 230 207 230 189 268 c 128,-1,28
 171 306 171 306 157 349 c 1,29,30
 133 330 133 330 119 302 c 128,-1,31
 105 274 105 274 105 237 c 0,32,33
 105 170 105 170 158 126.5 c 128,-1,34
 211 83 211 83 320 83 c 2,35,-1
 540 83 l 1,36,-1
 540 0 l 1,37,-1
 309 0 l 2,0,1
278 384 m 0,38,39
 243 384 243 384 213 376 c 1,40,41
 219 338 219 338 228.5 304.5 c 128,-1,42
 238 271 238 271 258.5 250.5 c 128,-1,43
 279 230 279 230 316 230 c 0,44,45
 347 230 347 230 366.5 248.5 c 128,-1,46
 386 267 386 267 386 301 c 0,47,48
 386 336 386 336 358.5 360 c 128,-1,49
 331 384 331 384 278 384 c 0,38,39
EndSplineSet
EndChar

StartChar: seven_kannada
Encoding: 3309 3309 89
Width: 575
GlyphClass: 2
Flags: W
AnchorPoint: "+BBEENQQ3BEsEPARPBD0EPQQ+BDUA--0" 287 547 basechar 0
LayerCount: 2
Fore
SplineSet
199 0 m 2,0,1
 119 0 119 0 79.5 31 c 128,-1,2
 40 62 40 62 40 114 c 0,3,4
 40 161 40 161 76.5 197.5 c 128,-1,5
 113 234 113 234 186 279 c 0,6,7
 260 325 260 325 296.5 354.5 c 128,-1,8
 333 384 333 384 333 418 c 0,9,10
 333 445 333 445 313 461.5 c 128,-1,11
 293 478 293 478 255 478 c 256,12,13
 217 478 217 478 196.5 460.5 c 128,-1,14
 176 443 176 443 176 416 c 0,15,16
 176 403 176 403 181 391.5 c 128,-1,17
 186 380 186 380 193 370 c 1,18,-1
 167 354 l 1,19,20
 149 370 149 370 136.5 392.5 c 128,-1,21
 124 415 124 415 124 445 c 0,22,23
 124 495 124 495 163 526.5 c 128,-1,24
 202 558 202 558 266 558 c 0,25,26
 337 558 337 558 372 524 c 128,-1,27
 407 490 407 490 407 443 c 0,28,29
 407 407 407 407 385 378 c 128,-1,30
 363 349 363 349 326.5 324 c 128,-1,31
 290 299 290 299 247 271 c 0,32,33
 191 235 191 235 153.5 207 c 128,-1,34
 116 179 116 179 116 147 c 0,35,36
 116 84 116 84 219 84 c 2,37,-1
 519 84 l 1,38,-1
 519 0 l 1,39,-1
 199 0 l 2,0,1
EndSplineSet
EndChar

StartChar: eight_kannada
Encoding: 3310 3310 90
Width: 725
GlyphClass: 2
Flags: W
AnchorPoint: "+BBEENQQ3BEsEPARPBD0EPQQ+BDUA--0" 362 547 basechar 0
LayerCount: 2
Fore
SplineSet
660 185 m 0,0,1
 660 124 660 124 625.5 80 c 128,-1,2
 591 36 591 36 531.5 12.5 c 128,-1,3
 472 -11 472 -11 395 -11 c 0,4,5
 289 -11 289 -11 212 28.5 c 128,-1,6
 135 68 135 68 93.5 138.5 c 128,-1,7
 52 209 52 209 52 301 c 0,8,9
 52 350 52 350 66 395.5 c 128,-1,10
 80 441 80 441 105.5 477.5 c 128,-1,11
 131 514 131 514 167 535.5 c 128,-1,12
 203 557 203 557 246 557 c 0,13,14
 302 557 302 557 328 522 c 128,-1,15
 354 487 354 487 354 440 c 0,16,17
 354 388 354 388 325 356.5 c 128,-1,18
 296 325 296 325 249 325 c 0,19,20
 203 325 203 325 173 355 c 128,-1,21
 143 385 143 385 143 435 c 0,22,23
 143 453 143 453 148 467 c 1,24,25
 123 440 123 440 109 397.5 c 128,-1,26
 95 355 95 355 95 308 c 0,27,28
 95 243 95 243 130 190 c 128,-1,29
 165 137 165 137 231.5 106 c 128,-1,30
 298 75 298 75 391 75 c 0,31,32
 498 75 498 75 548 113 c 128,-1,33
 598 151 598 151 598 209 c 0,34,35
 598 245 598 245 579 275 c 128,-1,36
 560 305 560 305 535 333 c 128,-1,37
 510 361 510 361 491 390.5 c 128,-1,38
 472 420 472 420 472 455 c 0,39,40
 472 500 472 500 504 523.5 c 128,-1,41
 536 547 536 547 585 547 c 2,42,-1
 685 547 l 1,43,-1
 685 463 l 1,44,-1
 594 463 l 2,45,46
 538 463 538 463 538 424 c 0,47,48
 538 400 538 400 556.5 374.5 c 128,-1,49
 575 349 575 349 599 320.5 c 128,-1,50
 623 292 623 292 641.5 258.5 c 128,-1,51
 660 225 660 225 660 185 c 0,0,1
181 441 m 0,52,53
 181 418 181 418 198 404 c 128,-1,54
 215 390 215 390 247 390 c 0,55,56
 282 390 282 390 297.5 404.5 c 128,-1,57
 313 419 313 419 313 441 c 0,58,59
 313 461 313 461 297 477 c 128,-1,60
 281 493 281 493 248 493 c 256,61,62
 215 493 215 493 198 478 c 128,-1,63
 181 463 181 463 181 441 c 0,52,53
EndSplineSet
EndChar

StartChar: nine_kannada
Encoding: 3311 3311 91
Width: 595
GlyphClass: 2
Flags: W
AnchorPoint: "+BBEENQQ3BEsEPARPBD0EPQQ+BDUA--0" 297 547 basechar 0
LayerCount: 2
Fore
SplineSet
321 -11 m 0,0,1
 265 -11 265 -11 222.5 15 c 128,-1,2
 180 41 180 41 156.5 83.5 c 128,-1,3
 133 126 133 126 133 178 c 0,4,5
 133 200 133 200 137 221 c 1,6,7
 95 249 95 249 74.5 288.5 c 128,-1,8
 54 328 54 328 54 369 c 0,9,10
 54 425 54 425 85 464.5 c 128,-1,11
 116 504 116 504 171.5 525.5 c 128,-1,12
 227 547 227 547 300 547 c 2,13,-1
 567 547 l 1,14,-1
 567 463 l 1,15,-1
 298 463 l 2,16,17
 206 463 206 463 158.5 434 c 128,-1,18
 111 405 111 405 111 351 c 0,19,20
 111 328 111 328 121 305.5 c 128,-1,21
 131 283 131 283 152 264 c 1,22,23
 175 312 175 312 221 339.5 c 128,-1,24
 267 367 267 367 324 367 c 0,25,26
 383 367 383 367 413 340.5 c 128,-1,27
 443 314 443 314 443 275 c 0,28,29
 443 229 443 229 405 203.5 c 128,-1,30
 367 178 367 178 300 178 c 0,31,32
 269 178 269 178 242.5 182 c 128,-1,33
 216 186 216 186 193 194 c 1,34,35
 197 138 197 138 238.5 108.5 c 128,-1,36
 280 79 280 79 342 79 c 0,37,38
 386 79 386 79 420 91 c 1,39,40
 426 78 426 78 426 63 c 0,41,42
 426 26 426 26 398 7.5 c 128,-1,43
 370 -11 370 -11 321 -11 c 0,0,1
324 325 m 0,44,45
 279 325 279 325 244 301 c 128,-1,46
 209 277 209 277 198 237 c 1,47,48
 217 229 217 229 241.5 224.5 c 128,-1,49
 266 220 266 220 295 220 c 0,50,51
 351 220 351 220 372.5 236 c 128,-1,52
 394 252 394 252 394 275 c 0,53,54
 394 296 394 296 376.5 310.5 c 128,-1,55
 359 325 359 325 324 325 c 0,44,45
EndSplineSet
EndChar

StartChar: jihvamuliya_kannada
Encoding: 3313 3313 92
Width: 538
GlyphClass: 2
Flags: W
AnchorPoint: "+BBEENQQ3BEsEPARPBD0EPQQ+BDUA--1" 338 490 basechar 0
AnchorPoint: "+BBEENQQ3BEsEPARPBD0EPQQ+BDUA--0" 269 547 basechar 0
LayerCount: 2
Fore
SplineSet
50 30 m 1,0,-1
 50 58 l 1,1,-1
 238 276 l 1,2,-1
 63 489 l 1,3,-1
 63 517 l 1,4,-1
 475 517 l 1,5,-1
 475 489 l 1,6,-1
 301 289 l 1,7,-1
 488 58 l 1,8,-1
 488 30 l 1,9,-1
 50 30 l 1,0,-1
146 479 m 1,10,-1
 276 320 l 1,11,-1
 413 479 l 1,12,13
 399 478 399 478 382.5 477.5 c 128,-1,14
 366 477 366 477 343 477 c 2,15,-1
 215 477 l 2,16,17
 193 477 193 477 176.5 477.5 c 128,-1,18
 160 478 160 478 146 479 c 1,10,-1
112 72 m 1,19,20
 148 75 148 75 196 75 c 2,21,-1
 322 75 l 2,22,23
 369 75 369 75 405 72 c 1,24,-1
 263 245 l 1,25,-1
 112 72 l 1,19,20
EndSplineSet
Position2: "Single Positioning lookup 46 per glyph data 0" dx=0 dy=0 dh=272 dv=0
EndChar

StartChar: upadhmaniya_kannada
Encoding: 3314 3314 93
Width: 731
GlyphClass: 2
Flags: W
AnchorPoint: "+BBEENQQ3BEsEPARPBD0EPQQ+BDUA--1" 531 490 basechar 0
AnchorPoint: "+BBEENQQ3BEsEPARPBD0EPQQ+BDUA--0" 365 547 basechar 0
LayerCount: 2
Fore
SplineSet
540 104 m 0,0,1
 482 104 482 104 440.5 146.5 c 128,-1,2
 399 189 399 189 399 264 c 0,3,4
 399 338 399 338 440.5 380.5 c 128,-1,5
 482 423 482 423 540 423 c 0,6,7
 599 423 599 423 640 380.5 c 128,-1,8
 681 338 681 338 681 264 c 0,9,10
 681 214 681 214 662 178 c 128,-1,11
 643 142 643 142 611 123 c 128,-1,12
 579 104 579 104 540 104 c 0,0,1
190 104 m 0,13,14
 132 104 132 104 91 146.5 c 128,-1,15
 50 189 50 189 50 264 c 0,16,17
 50 338 50 338 91 380.5 c 128,-1,18
 132 423 132 423 190 423 c 0,19,20
 249 423 249 423 290 380.5 c 128,-1,21
 331 338 331 338 331 264 c 0,22,23
 331 189 331 189 290 146.5 c 128,-1,24
 249 104 249 104 190 104 c 0,13,14
190 179 m 256,25,26
 235 179 235 179 261 203.5 c 128,-1,27
 287 228 287 228 287 264 c 0,28,29
 287 299 287 299 261 323.5 c 128,-1,30
 235 348 235 348 190 348 c 256,31,32
 145 348 145 348 119 323.5 c 128,-1,33
 93 299 93 299 93 264 c 0,34,35
 93 228 93 228 119 203.5 c 128,-1,36
 145 179 145 179 190 179 c 256,25,26
540 179 m 0,37,38
 585 179 585 179 611 203.5 c 128,-1,39
 637 228 637 228 637 264 c 0,40,41
 637 299 637 299 611 323.5 c 128,-1,42
 585 348 585 348 540 348 c 0,43,44
 494 348 494 348 468 323.5 c 128,-1,45
 442 299 442 299 442 264 c 0,46,47
 442 228 442 228 468 203.5 c 128,-1,48
 494 179 494 179 540 179 c 0,37,38
EndSplineSet
Position2: "Single Positioning lookup 46 per glyph data 0" dx=0 dy=0 dh=272 dv=0
EndChar

StartChar: reph_kannada
Encoding: 65537 -1 94
Width: 523
GlyphClass: 1
Flags: W
LayerCount: 2
Fore
SplineSet
192 0 m 2,0,1
 158 0 158 0 125.5 13.5 c 128,-1,2
 93 27 93 27 71.5 56 c 128,-1,3
 50 85 50 85 50 132 c 0,4,5
 50 174 50 174 70.5 205.5 c 128,-1,6
 91 237 91 237 129 253 c 1,7,8
 92 272 92 272 71 306.5 c 128,-1,9
 50 341 50 341 50 390 c 0,10,11
 50 465 50 465 100.5 506 c 128,-1,12
 151 547 151 547 239 547 c 2,13,-1
 499 547 l 1,14,-1
 492 460 l 1,15,-1
 217 460 l 2,16,17
 158 460 158 460 131.5 440 c 128,-1,18
 105 420 105 420 105 385 c 0,19,20
 105 348 105 348 132 328.5 c 128,-1,21
 159 309 159 309 200 309 c 2,22,-1
 338 309 l 1,23,-1
 338 227 l 1,24,-1
 192 227 l 2,25,26
 151 227 151 227 128 208.5 c 128,-1,27
 105 190 105 190 105 156 c 0,28,29
 105 125 105 125 126 105.5 c 128,-1,30
 147 86 147 86 187 86 c 2,31,-1
 216 86 l 1,32,-1
 216 0 l 1,33,-1
 192 0 l 2,0,1
EndSplineSet
Substitution2: "+BBUENAQ4BD0EOARHBD0EMARP +BD8EPgQ0BEEEQgQwBD0EPgQyBDoEMAAA lookup 38 subtable" ra_kannada.below
Ligature2: "'rphf' Reph Form lookup 34 subtable" ra_kannada halant_kannada
Substitution2: "+BBUENAQ4BD0EOARHBD0EMARP +BD8EPgQ0BEEEQgQwBD0EPgQyBDoEMAAA lookup 31 subtable" candrabindu_1CDA_knda
Substitution2: "+BBUENAQ4BD0EOARHBD0EMARP +BD8EPgQ0BEEEQgQwBD0EPgQyBDoEMAAA lookup 30 subtable" candrabindu_anudatta_knda
Substitution2: "+BBUENAQ4BD0EOARHBD0EMARP +BD8EPgQ0BEEEQgQwBD0EPgQyBDoEMAAA lookup 29 subtable" candrabindu_udatta_knda
Substitution2: "+BBUENAQ4BD0EOARHBD0EMARP +BD8EPgQ0BEEEQgQwBD0EPgQyBDoEMAAA lookup 28 subtable" uni1CF4
Substitution2: "+BBUENAQ4BD0EOARHBD0EMARP +BD8EPgQ0BEEEQgQwBD0EPgQyBDoEMAAA lookup 27 subtable" doubleSvarita_vedic
Substitution2: "+BBUENAQ4BD0EOARHBD0EMARP +BD8EPgQ0BEEEQgQwBD0EPgQyBDoEMAAA lookup 26 subtable" uni1CD2
Substitution2: "+BBUENAQ4BD0EOARHBD0EMARP +BD8EPgQ0BEEEQgQwBD0EPgQyBDoEMAAA lookup 25 subtable" uni1CD0
Substitution2: "+BBUENAQ4BD0EOARHBD0EMARP +BD8EPgQ0BEEEQgQwBD0EPgQyBDoEMAAA lookup 24 subtable" anudatta_deva
Substitution2: "+BBUENAQ4BD0EOARHBD0EMARP +BD8EPgQ0BEEEQgQwBD0EPgQyBDoEMAAA lookup 23 subtable" udatta_deva
Substitution2: "+BBUENAQ4BD0EOARHBD0EMARP +BD8EPgQ0BEEEQgQwBD0EPgQyBDoEMAAA lookup 22 subtable" candrabindu_kannada
Substitution2: "+BBUENAQ4BD0EOARHBD0EMARP +BD8EPgQ0BEEEQgQwBD0EPgQyBDoEMAAA lookup 1 subtable" ailength_kannada
Substitution2: "+BBUENAQ4BD0EOARHBD0EMARP +BD8EPgQ0BEEEQgQwBD0EPgQyBDoEMAAA lookup 0 subtable" length_kannada
EndChar

StartChar: nakaarapollu_kannada
Encoding: 3293 3293 95
Width: 583
GlyphClass: 1
Flags: W
LayerCount: 2
Fore
SplineSet
107 180 m 1,0,1
 80 189 80 189 63.5 209 c 128,-1,2
 47 229 47 229 47 258 c 0,3,4
 47 284 47 284 61.5 302.5 c 128,-1,5
 76 321 76 321 99 330 c 1,6,7
 75 341 75 341 60 367 c 128,-1,8
 45 393 45 393 45 425 c 0,9,10
 45 489 45 489 90 518 c 128,-1,11
 135 547 135 547 223 547 c 2,12,-1
 559 547 l 1,13,-1
 549 460 l 1,14,-1
 195 460 l 2,15,16
 146 460 146 460 124.5 448 c 128,-1,17
 103 436 103 436 103 411 c 0,18,19
 103 384 103 384 123 372 c 128,-1,20
 143 360 143 360 187 360 c 2,21,-1
 383 360 l 1,22,-1
 383 296 l 1,23,-1
 187 296 l 2,24,25
 144 296 144 296 123 287.5 c 128,-1,26
 102 279 102 279 102 256 c 0,27,28
 102 231 102 231 123 221.5 c 128,-1,29
 144 212 144 212 186 212 c 2,30,-1
 383 212 l 1,31,-1
 383 148 l 1,32,-1
 186 148 l 2,33,34
 145 148 145 148 124 139 c 128,-1,35
 103 130 103 130 103 106 c 256,36,37
 103 82 103 82 124 73 c 128,-1,38
 145 64 145 64 186 64 c 2,39,-1
 383 64 l 1,40,-1
 383 0 l 1,41,-1
 176 0 l 2,42,43
 109 0 109 0 78.5 28 c 128,-1,44
 48 56 48 56 48 101 c 0,45,46
 48 129 48 129 64 150 c 128,-1,47
 80 171 80 171 107 180 c 1,0,1
EndSplineSet
EndChar

StartChar: anusvaraaboveright_kannada
Encoding: 3315 3315 96
Width: 289
GlyphClass: 4
Flags: W
LayerCount: 2
Fore
SplineSet
273 587 m 0,0,1
 273 520 273 520 238.5 482.5 c 128,-1,2
 204 445 204 445 148 445 c 256,3,4
 92 445 92 445 58 482.5 c 128,-1,5
 24 520 24 520 24 587 c 0,6,7
 24 655 24 655 58 691 c 128,-1,8
 92 727 92 727 148 727 c 256,9,10
 204 727 204 727 238.5 691 c 128,-1,11
 273 655 273 655 273 587 c 0,0,1
62 587 m 0,12,13
 62 557 62 557 85.5 538 c 128,-1,14
 109 519 109 519 148 519 c 256,15,16
 187 519 187 519 210.5 538 c 128,-1,17
 234 557 234 557 234 587 c 0,18,19
 234 616 234 616 210.5 634 c 128,-1,20
 187 652 187 652 148 652 c 256,21,22
 109 652 109 652 85.5 634 c 128,-1,23
 62 616 62 616 62 587 c 0,12,13
EndSplineSet
EndChar

StartChar: nukta_kannada.calt
Encoding: 65538 -1 97
Width: 0
GlyphClass: 4
Flags: W
AnchorPoint: "+BBEENQQ3BEsEPARPBD0EPQQ+BDUA--4" 0 0 mark 0
AnchorPoint: "+BBEENQQ3BEsEPARPBD0EPQQ+BDUA--2" 0 0 mark 0
LayerCount: 2
Fore
SplineSet
174 -167 m 256,0,1
 155 -167 155 -167 141 -154.5 c 128,-1,2
 127 -142 127 -142 127 -121 c 0,3,4
 127 -99 127 -99 141 -87 c 128,-1,5
 155 -75 155 -75 174 -75 c 256,6,7
 193 -75 193 -75 206.5 -87.5 c 128,-1,8
 220 -100 220 -100 220 -121 c 0,9,10
 220 -143 220 -143 206.5 -155 c 128,-1,11
 193 -167 193 -167 174 -167 c 256,0,1
-172 -167 m 0,12,13
 -191 -167 -191 -167 -205.5 -154.5 c 128,-1,14
 -220 -142 -220 -142 -220 -121 c 0,15,16
 -220 -99 -220 -99 -206 -87 c 128,-1,17
 -192 -75 -192 -75 -172 -75 c 0,18,19
 -153 -75 -153 -75 -139.5 -87.5 c 128,-1,20
 -126 -100 -126 -100 -126 -121 c 0,21,22
 -126 -143 -126 -143 -140 -155 c 128,-1,23
 -154 -167 -154 -167 -172 -167 c 0,12,13
EndSplineSet
Substitution2: "+BBUENAQ4BD0EOARHBD0EMARP +BD8EPgQ0BEEEQgQwBD0EPgQyBDoEMAAA lookup 8 subtable" nukta_kannada.calt.01
EndChar

StartChar: nukta_kannada.calt.01
Encoding: 65539 -1 98
Width: 0
GlyphClass: 4
Flags: W
AnchorPoint: "+BBEENQQ3BEsEPARPBD0EPQQ+BDUA--4" 0 0 mark 0
AnchorPoint: "+BBEENQQ3BEsEPARPBD0EPQQ+BDUA--2" 0 0 mark 0
LayerCount: 2
Fore
SplineSet
-157 -167 m 0,0,1
 -176 -167 -176 -167 -190.5 -154.5 c 128,-1,2
 -205 -142 -205 -142 -205 -121 c 0,3,4
 -205 -99 -205 -99 -191 -87 c 128,-1,5
 -177 -75 -177 -75 -157 -75 c 0,6,7
 -138 -75 -138 -75 -124.5 -87.5 c 128,-1,8
 -111 -100 -111 -100 -111 -121 c 0,9,10
 -111 -143 -111 -143 -125 -155 c 128,-1,11
 -139 -167 -139 -167 -157 -167 c 0,0,1
159 -253 m 0,12,13
 140 -253 140 -253 125.5 -241 c 128,-1,14
 111 -229 111 -229 111 -208 c 0,15,16
 111 -186 111 -186 125 -173.5 c 128,-1,17
 139 -161 139 -161 159 -161 c 0,18,19
 178 -161 178 -161 191 -173.5 c 128,-1,20
 204 -186 204 -186 204 -208 c 0,21,22
 204 -229 204 -229 190.5 -241 c 128,-1,23
 177 -253 177 -253 159 -253 c 0,12,13
EndSplineSet
EndChar

StartChar: halant_kannada.calt
Encoding: 65540 -1 99
Width: 0
GlyphClass: 4
Flags: W
AnchorPoint: "+BBEENQQ3BEsEPARPBD0EPQQ+BDUA--5" -460 460 mark 0
AnchorPoint: "+BBEENQQ3BEsEPARPBD0EPQQ+BDUA--1" -460 460 mark 0
LayerCount: 2
Fore
SplineSet
-152 287 m 0,0,1
 -212 287 -212 287 -242 329.5 c 128,-1,2
 -272 372 -272 372 -274 460 c 1,3,-1
 -470 460 l 1,4,-1
 -463 547 l 1,5,-1
 -274 547 l 1,6,7
 -269 623 -269 623 -232 665 c 128,-1,8
 -195 707 -195 707 -133 707 c 0,9,10
 -77 707 -77 707 -43.5 672.5 c 128,-1,11
 -10 638 -10 638 0 576 c 1,12,-1
 -40 571 l 1,13,14
 -50 602 -50 602 -73 620 c 128,-1,15
 -96 638 -96 638 -134 638 c 0,16,17
 -171 638 -171 638 -196 614.5 c 128,-1,18
 -221 591 -221 591 -227 547 c 1,19,-1
 -214 547 l 2,20,21
 -128 547 -128 547 -87.5 513 c 128,-1,22
 -47 479 -47 479 -47 411 c 0,23,24
 -47 361 -47 361 -73.5 324 c 128,-1,25
 -100 287 -100 287 -152 287 c 0,0,1
-176 460 m 2,26,-1
 -229 460 l 1,27,28
 -229 432 -229 432 -223 407.5 c 128,-1,29
 -217 383 -217 383 -200 368.5 c 128,-1,30
 -183 354 -183 354 -151 354 c 0,31,32
 -123 354 -123 354 -107 368 c 128,-1,33
 -91 382 -91 382 -91 407 c 0,34,35
 -91 439 -91 439 -114.5 449.5 c 128,-1,36
 -138 460 -138 460 -176 460 c 2,26,-1
EndSplineSet
EndChar

StartChar: ghaa_kannada
Encoding: 65541 -1 100
Width: 1260
GlyphClass: 2
Flags: W
AnchorPoint: "+BBEENQQ3BEsEPARPBD0EPQQ+BDUA--2" 376 0 basechar 0
AnchorPoint: "+BBEENQQ3BEsEPARPBD0EPQQ+BDUA--0" 448 547 basechar 0
LayerCount: 2
Fore
SplineSet
212 -11 m 0,0,1
 160 -11 160 -11 124.5 14 c 128,-1,2
 89 39 89 39 71.5 80 c 128,-1,3
 54 121 54 121 54 168 c 0,4,5
 54 232 54 232 88.5 275.5 c 128,-1,6
 123 319 123 319 183 319 c 0,7,8
 230 319 230 319 255.5 293.5 c 128,-1,9
 281 268 281 268 281 229 c 0,10,11
 281 191 281 191 257 169 c 128,-1,12
 233 147 233 147 190 141 c 1,13,-1
 184 178 l 1,14,15
 220 186 220 186 220 219 c 0,16,17
 220 237 220 237 208 248.5 c 128,-1,18
 196 260 196 260 171 260 c 0,19,20
 138 260 138 260 118.5 238.5 c 128,-1,21
 99 217 99 217 99 182 c 0,22,23
 99 133 99 133 131 108.5 c 128,-1,24
 163 84 163 84 223 84 c 0,25,26
 330 84 330 84 362 200 c 1,27,-1
 396 200 l 1,28,29
 411 150 411 150 439.5 117 c 128,-1,30
 468 84 468 84 529 84 c 0,31,32
 584 84 584 84 611 118 c 128,-1,33
 638 152 638 152 638 206 c 0,34,35
 638 255 638 255 619.5 288.5 c 128,-1,36
 601 322 601 322 565 363 c 1,37,-1
 604 397 l 1,38,39
 639 356 639 356 670 331.5 c 128,-1,40
 701 307 701 307 741 307 c 0,41,42
 773 307 773 307 790.5 325 c 128,-1,43
 808 343 808 343 808 374 c 0,44,45
 808 411 808 411 784.5 435.5 c 128,-1,46
 761 460 761 460 718 460 c 2,47,-1
 60 460 l 1,48,-1
 67 547 l 1,49,-1
 904 547 l 2,50,51
 1059 547 1059 547 1133.5 473.5 c 128,-1,52
 1208 400 1208 400 1208 245 c 0,53,54
 1208 173 1208 173 1188 115 c 128,-1,55
 1168 57 1168 57 1128 23 c 128,-1,56
 1088 -11 1088 -11 1027 -11 c 0,57,58
 953 -11 953 -11 910.5 32.5 c 128,-1,59
 868 76 868 76 868 143 c 0,60,61
 868 186 868 186 885 217 c 128,-1,62
 902 248 902 248 928.5 265 c 128,-1,63
 955 282 955 282 985 282 c 0,64,65
 1017 282 1017 282 1034 264 c 128,-1,66
 1051 246 1051 246 1051 217 c 0,67,68
 1051 194 1051 194 1037.5 177.5 c 128,-1,69
 1024 161 1024 161 995 161 c 0,70,71
 972 161 972 161 957 173 c 128,-1,72
 942 185 942 185 942 213 c 2,73,-1
 942 218 l 1,74,75
 912 193 912 193 912 149 c 0,76,77
 912 110 912 110 940 87 c 128,-1,78
 968 64 968 64 1019 64 c 0,79,80
 1087 64 1087 64 1124.5 113 c 128,-1,81
 1162 162 1162 162 1162 247 c 0,82,83
 1162 362 1162 362 1095 411 c 128,-1,84
 1028 460 1028 460 896 460 c 2,85,-1
 827 460 l 1,86,87
 852 418 852 418 852 361 c 256,88,89
 852 304 852 304 823 269.5 c 128,-1,90
 794 235 794 235 743 235 c 0,91,92
 711 235 711 235 679 250 c 1,93,94
 682 239 682 239 683.5 228 c 128,-1,95
 685 217 685 217 685 205 c 0,96,97
 685 171 685 171 678.5 133.5 c 128,-1,98
 672 96 672 96 655.5 63 c 128,-1,99
 639 30 639 30 609.5 9.5 c 128,-1,100
 580 -11 580 -11 534 -11 c 0,101,102
 472 -11 472 -11 433.5 26.5 c 128,-1,103
 395 64 395 64 376 124 c 1,104,105
 356 63 356 63 318.5 26 c 128,-1,106
 281 -11 281 -11 212 -11 c 0,0,1
381 304 m 0,107,108
 356 304 356 304 340 320 c 128,-1,109
 324 336 324 336 324 360 c 256,110,111
 324 384 324 384 340 400 c 128,-1,112
 356 416 356 416 381 416 c 0,113,114
 407 416 407 416 422.5 400 c 128,-1,115
 438 384 438 384 438 360 c 256,116,117
 438 336 438 336 422.5 320 c 128,-1,118
 407 304 407 304 381 304 c 0,107,108
376 -196 m 256,119,120
 353 -196 353 -196 340 -187 c 128,-1,121
 327 -178 327 -178 327 -156 c 0,122,123
 327 -141 327 -141 332.5 -115.5 c 128,-1,124
 338 -90 338 -90 346 -61.5 c 128,-1,125
 354 -33 354 -33 362 -9 c 1,126,-1
 390 -9 l 1,127,128
 399 -32 399 -32 407 -60 c 128,-1,129
 415 -88 415 -88 420 -113.5 c 128,-1,130
 425 -139 425 -139 425 -156 c 0,131,132
 425 -178 425 -178 412 -187 c 128,-1,133
 399 -196 399 -196 376 -196 c 256,119,120
EndSplineSet
Ligature2: "'psts' Post Base Substitutions lookup 46 subtable" gha_kannada aaMatra_kannada
EndChar

